<svg class="main-svg" xmlns="http://www.w3.org/2000/svg" xmlns:xlink="http://www.w3.org/1999/xlink" width="1750" height="1250" style="" viewBox="0 0 700 500"><rect x="0" y="0" width="700" height="500" style="fill: rgb(255, 255, 255); fill-opacity: 1;"/><defs id="defs-183c23"><g class="clips"><clipPath id="clip183c23xyplot" class="plotclip"><rect width="611" height="430"/></clipPath><clipPath class="axesclip" id="clip183c23x"><rect x="89" y="0" width="611" height="500"/></clipPath><clipPath class="axesclip" id="clip183c23y"><rect x="0" y="0" width="700" height="430"/></clipPath><clipPath class="axesclip" id="clip183c23xy"><rect x="89" y="0" width="611" height="430"/></clipPath></g><g class="gradients"/><g class="patterns"/></defs><g class="bglayer"/><g class="layer-below"><g class="imagelayer"/><g class="shapelayer"/></g><g class="cartesianlayer"><g class="subplot xy"><g class="layer-subplot"><g class="shapelayer"/><g class="imagelayer"/></g><g class="minor-gridlayer"><g class="x"/><g class="y"/></g><g class="gridlayer"><g class="x"/><g class="y"/></g><g class="zerolinelayer"/><path class="xlines-below"/><path class="ylines-below"/><g class="overlines-below"/><g class="xaxislayer-below"/><g class="yaxislayer-below"/><g class="overaxes-below"/><g class="plot" transform="translate(89,0)" clip-path="url(#clip183c23xyplot)"><g class="scatterlayer mlayer"><g class="trace scatter trace509841" style="stroke-miterlimit: 2; opacity: 1;"><g class="fills"/><g class="errorbars"/><g class="lines"/><g class="points"><path class="point" transform="translate(39.3,399.75)" d="M7,7H-7V-7H7Z" style="opacity: 1; stroke-width: 0px; fill: rgb(0, 0, 4); fill-opacity: 1;"/><path class="point" transform="translate(56.47,399.75)" d="M7,7H-7V-7H7Z" style="opacity: 1; stroke-width: 0px; fill: rgb(0, 0, 4); fill-opacity: 1;"/><path class="point" transform="translate(73.65,399.75)" d="M7,7H-7V-7H7Z" style="opacity: 1; stroke-width: 0px; fill: rgb(0, 0, 4); fill-opacity: 1;"/><path class="point" transform="translate(90.82,399.75)" d="M7,7H-7V-7H7Z" style="opacity: 1; stroke-width: 0px; fill: rgb(0, 0, 4); fill-opacity: 1;"/><path class="point" transform="translate(108,399.75)" d="M7,7H-7V-7H7Z" style="opacity: 1; stroke-width: 0px; fill: rgb(0, 0, 4); fill-opacity: 1;"/><path class="point" transform="translate(125.17,399.75)" d="M7,7H-7V-7H7Z" style="opacity: 1; stroke-width: 0px; fill: rgb(0, 0, 4); fill-opacity: 1;"/><path class="point" transform="translate(142.35,399.75)" d="M7,7H-7V-7H7Z" style="opacity: 1; stroke-width: 0px; fill: rgb(0, 0, 4); fill-opacity: 1;"/><path class="point" transform="translate(159.52,399.75)" d="M7,7H-7V-7H7Z" style="opacity: 1; stroke-width: 0px; fill: rgb(0, 0, 4); fill-opacity: 1;"/><path class="point" transform="translate(176.69,399.75)" d="M7,7H-7V-7H7Z" style="opacity: 1; stroke-width: 0px; fill: rgb(0, 0, 4); fill-opacity: 1;"/><path class="point" transform="translate(193.87,399.75)" d="M7,7H-7V-7H7Z" style="opacity: 1; stroke-width: 0px; fill: rgb(0, 0, 4); fill-opacity: 1;"/><path class="point" transform="translate(211.04,399.75)" d="M7,7H-7V-7H7Z" style="opacity: 1; stroke-width: 0px; fill: rgb(0, 0, 4); fill-opacity: 1;"/><path class="point" transform="translate(228.22,399.75)" d="M7,7H-7V-7H7Z" style="opacity: 1; stroke-width: 0px; fill: rgb(0, 0, 4); fill-opacity: 1;"/><path class="point" transform="translate(245.39,399.75)" d="M7,7H-7V-7H7Z" style="opacity: 1; stroke-width: 0px; fill: rgb(0, 0, 4); fill-opacity: 1;"/><path class="point" transform="translate(262.56,399.75)" d="M7,7H-7V-7H7Z" style="opacity: 1; stroke-width: 0px; fill: rgb(0, 0, 4); fill-opacity: 1;"/><path class="point" transform="translate(279.74,399.75)" d="M7,7H-7V-7H7Z" style="opacity: 1; stroke-width: 0px; fill: rgb(0, 0, 4); fill-opacity: 1;"/><path class="point" transform="translate(296.91,399.75)" d="M7,7H-7V-7H7Z" style="opacity: 1; stroke-width: 0px; fill: rgb(0, 0, 4); fill-opacity: 1;"/><path class="point" transform="translate(314.09,399.75)" d="M7,7H-7V-7H7Z" style="opacity: 1; stroke-width: 0px; fill: rgb(0, 0, 4); fill-opacity: 1;"/><path class="point" transform="translate(331.26,399.75)" d="M7,7H-7V-7H7Z" style="opacity: 1; stroke-width: 0px; fill: rgb(0, 0, 4); fill-opacity: 1;"/><path class="point" transform="translate(348.44,399.75)" d="M7,7H-7V-7H7Z" style="opacity: 1; stroke-width: 0px; fill: rgb(0, 0, 4); fill-opacity: 1;"/><path class="point" transform="translate(365.61,399.75)" d="M7,7H-7V-7H7Z" style="opacity: 1; stroke-width: 0px; fill: rgb(0, 0, 4); fill-opacity: 1;"/><path class="point" transform="translate(382.78,399.75)" d="M7,7H-7V-7H7Z" style="opacity: 1; stroke-width: 0px; fill: rgb(0, 0, 4); fill-opacity: 1;"/><path class="point" transform="translate(399.96,399.75)" d="M7,7H-7V-7H7Z" style="opacity: 1; stroke-width: 0px; fill: rgb(0, 0, 4); fill-opacity: 1;"/><path class="point" transform="translate(417.13,399.75)" d="M7,7H-7V-7H7Z" style="opacity: 1; stroke-width: 0px; fill: rgb(0, 0, 4); fill-opacity: 1;"/><path class="point" transform="translate(434.31,399.75)" d="M7,7H-7V-7H7Z" style="opacity: 1; stroke-width: 0px; fill: rgb(0, 0, 4); fill-opacity: 1;"/><path class="point" transform="translate(451.48,399.75)" d="M7,7H-7V-7H7Z" style="opacity: 1; stroke-width: 0px; fill: rgb(0, 0, 4); fill-opacity: 1;"/><path class="point" transform="translate(468.65,399.75)" d="M7,7H-7V-7H7Z" style="opacity: 1; stroke-width: 0px; fill: rgb(0, 0, 4); fill-opacity: 1;"/><path class="point" transform="translate(485.83,399.75)" d="M7,7H-7V-7H7Z" style="opacity: 1; stroke-width: 0px; fill: rgb(0, 0, 4); fill-opacity: 1;"/><path class="point" transform="translate(503,399.75)" d="M7,7H-7V-7H7Z" style="opacity: 1; stroke-width: 0px; fill: rgb(0, 0, 4); fill-opacity: 1;"/><path class="point" transform="translate(520.18,399.75)" d="M7,7H-7V-7H7Z" style="opacity: 1; stroke-width: 0px; fill: rgb(0, 0, 4); fill-opacity: 1;"/><path class="point" transform="translate(537.35,399.75)" d="M7,7H-7V-7H7Z" style="opacity: 1; stroke-width: 0px; fill: rgb(0, 0, 4); fill-opacity: 1;"/><path class="point" transform="translate(554.53,399.75)" d="M7,7H-7V-7H7Z" style="opacity: 1; stroke-width: 0px; fill: rgb(0, 0, 4); fill-opacity: 1;"/><path class="point" transform="translate(571.7,399.75)" d="M7,7H-7V-7H7Z" style="opacity: 1; stroke-width: 0px; fill: rgb(0, 0, 4); fill-opacity: 1;"/><path class="point" transform="translate(39.3,307.38)" d="M7,7H-7V-7H7Z" style="opacity: 1; stroke-width: 0px; fill: rgb(6, 3, 18); fill-opacity: 1;"/><path class="point" transform="translate(56.47,307.38)" d="M7,7H-7V-7H7Z" style="opacity: 1; stroke-width: 0px; fill: rgb(15, 7, 38); fill-opacity: 1;"/><path class="point" transform="translate(73.65,307.38)" d="M7,7H-7V-7H7Z" style="opacity: 1; stroke-width: 0px; fill: rgb(139, 35, 104); fill-opacity: 1;"/><path class="point" transform="translate(90.82,307.38)" d="M7,7H-7V-7H7Z" style="opacity: 1; stroke-width: 0px; fill: rgb(19, 9, 48); fill-opacity: 1;"/><path class="point" transform="translate(108,307.38)" d="M7,7H-7V-7H7Z" style="opacity: 1; stroke-width: 0px; fill: rgb(2, 1, 9); fill-opacity: 1;"/><path class="point" transform="translate(125.17,307.38)" d="M7,7H-7V-7H7Z" style="opacity: 1; stroke-width: 0px; fill: rgb(247, 210, 63); fill-opacity: 1;"/><path class="point" transform="translate(142.35,307.38)" d="M7,7H-7V-7H7Z" style="opacity: 1; stroke-width: 0px; fill: rgb(1, 0, 5); fill-opacity: 1;"/><path class="point" transform="translate(159.52,307.38)" d="M7,7H-7V-7H7Z" style="opacity: 1; stroke-width: 0px; fill: rgb(6, 3, 19); fill-opacity: 1;"/><path class="point" transform="translate(176.69,307.38)" d="M7,7H-7V-7H7Z" style="opacity: 1; stroke-width: 0px; fill: rgb(17, 8, 42); fill-opacity: 1;"/><path class="point" transform="translate(193.87,307.38)" d="M7,7H-7V-7H7Z" style="opacity: 1; stroke-width: 0px; fill: rgb(7, 3, 19); fill-opacity: 1;"/><path class="point" transform="translate(211.04,307.38)" d="M7,7H-7V-7H7Z" style="opacity: 1; stroke-width: 0px; fill: rgb(6, 2, 16); fill-opacity: 1;"/><path class="point" transform="translate(228.22,307.38)" d="M7,7H-7V-7H7Z" style="opacity: 1; stroke-width: 0px; fill: rgb(10, 5, 27); fill-opacity: 1;"/><path class="point" transform="translate(245.39,307.38)" d="M7,7H-7V-7H7Z" style="opacity: 1; stroke-width: 0px; fill: rgb(6, 3, 17); fill-opacity: 1;"/><path class="point" transform="translate(262.56,307.38)" d="M7,7H-7V-7H7Z" style="opacity: 1; stroke-width: 0px; fill: rgb(9, 4, 25); fill-opacity: 1;"/><path class="point" transform="translate(279.74,307.38)" d="M7,7H-7V-7H7Z" style="opacity: 1; stroke-width: 0px; fill: rgb(3, 1, 11); fill-opacity: 1;"/><path class="point" transform="translate(296.91,307.38)" d="M7,7H-7V-7H7Z" style="opacity: 1; stroke-width: 0px; fill: rgb(2, 1, 8); fill-opacity: 1;"/><path class="point" transform="translate(314.09,307.38)" d="M7,7H-7V-7H7Z" style="opacity: 1; stroke-width: 0px; fill: rgb(2, 1, 9); fill-opacity: 1;"/><path class="point" transform="translate(331.26,307.38)" d="M7,7H-7V-7H7Z" style="opacity: 1; stroke-width: 0px; fill: rgb(2, 1, 9); fill-opacity: 1;"/><path class="point" transform="translate(348.44,307.38)" d="M7,7H-7V-7H7Z" style="opacity: 1; stroke-width: 0px; fill: rgb(5, 2, 16); fill-opacity: 1;"/><path class="point" transform="translate(365.61,307.38)" d="M7,7H-7V-7H7Z" style="opacity: 1; stroke-width: 0px; fill: rgb(19, 8, 46); fill-opacity: 1;"/><path class="point" transform="translate(382.78,307.38)" d="M7,7H-7V-7H7Z" style="opacity: 1; stroke-width: 0px; fill: rgb(5, 2, 16); fill-opacity: 1;"/><path class="point" transform="translate(399.96,307.38)" d="M7,7H-7V-7H7Z" style="opacity: 1; stroke-width: 0px; fill: rgb(5, 2, 16); fill-opacity: 1;"/><path class="point" transform="translate(417.13,307.38)" d="M7,7H-7V-7H7Z" style="opacity: 1; stroke-width: 0px; fill: rgb(3, 1, 10); fill-opacity: 1;"/><path class="point" transform="translate(434.31,307.38)" d="M7,7H-7V-7H7Z" style="opacity: 1; stroke-width: 0px; fill: rgb(5, 2, 16); fill-opacity: 1;"/><path class="point" transform="translate(451.48,307.38)" d="M7,7H-7V-7H7Z" style="opacity: 1; stroke-width: 0px; fill: rgb(4, 2, 14); fill-opacity: 1;"/><path class="point" transform="translate(468.65,307.38)" d="M7,7H-7V-7H7Z" style="opacity: 1; stroke-width: 0px; fill: rgb(14, 6, 35); fill-opacity: 1;"/><path class="point" transform="translate(485.83,307.38)" d="M7,7H-7V-7H7Z" style="opacity: 1; stroke-width: 0px; fill: rgb(6, 3, 18); fill-opacity: 1;"/><path class="point" transform="translate(503,307.38)" d="M7,7H-7V-7H7Z" style="opacity: 1; stroke-width: 0px; fill: rgb(29, 12, 67); fill-opacity: 1;"/><path class="point" transform="translate(520.18,307.38)" d="M7,7H-7V-7H7Z" style="opacity: 1; stroke-width: 0px; fill: rgb(10, 4, 26); fill-opacity: 1;"/><path class="point" transform="translate(537.35,307.38)" d="M7,7H-7V-7H7Z" style="opacity: 1; stroke-width: 0px; fill: rgb(15, 7, 38); fill-opacity: 1;"/><path class="point" transform="translate(554.53,307.38)" d="M7,7H-7V-7H7Z" style="opacity: 1; stroke-width: 0px; fill: rgb(7, 3, 19); fill-opacity: 1;"/><path class="point" transform="translate(571.7,307.38)" d="M7,7H-7V-7H7Z" style="opacity: 1; stroke-width: 0px; fill: rgb(8, 4, 22); fill-opacity: 1;"/><path class="point" transform="translate(39.3,215)" d="M7,7H-7V-7H7Z" style="opacity: 1; stroke-width: 0px; fill: rgb(7, 3, 20); fill-opacity: 1;"/><path class="point" transform="translate(56.47,215)" d="M7,7H-7V-7H7Z" style="opacity: 1; stroke-width: 0px; fill: rgb(15, 7, 38); fill-opacity: 1;"/><path class="point" transform="translate(73.65,215)" d="M7,7H-7V-7H7Z" style="opacity: 1; stroke-width: 0px; fill: rgb(122, 29, 109); fill-opacity: 1;"/><path class="point" transform="translate(90.82,215)" d="M7,7H-7V-7H7Z" style="opacity: 1; stroke-width: 0px; fill: rgb(17, 8, 43); fill-opacity: 1;"/><path class="point" transform="translate(108,215)" d="M7,7H-7V-7H7Z" style="opacity: 1; stroke-width: 0px; fill: rgb(1, 0, 6); fill-opacity: 1;"/><path class="point" transform="translate(125.17,215)" d="M7,7H-7V-7H7Z" style="opacity: 1; stroke-width: 0px; fill: rgb(250, 236, 120); fill-opacity: 1;"/><path class="point" transform="translate(142.35,215)" d="M7,7H-7V-7H7Z" style="opacity: 1; stroke-width: 0px; fill: rgb(0, 0, 5); fill-opacity: 1;"/><path class="point" transform="translate(159.52,215)" d="M7,7H-7V-7H7Z" style="opacity: 1; stroke-width: 0px; fill: rgb(7, 3, 19); fill-opacity: 1;"/><path class="point" transform="translate(176.69,215)" d="M7,7H-7V-7H7Z" style="opacity: 1; stroke-width: 0px; fill: rgb(17, 8, 43); fill-opacity: 1;"/><path class="point" transform="translate(193.87,215)" d="M7,7H-7V-7H7Z" style="opacity: 1; stroke-width: 0px; fill: rgb(9, 4, 25); fill-opacity: 1;"/><path class="point" transform="translate(211.04,215)" d="M7,7H-7V-7H7Z" style="opacity: 1; stroke-width: 0px; fill: rgb(3, 1, 11); fill-opacity: 1;"/><path class="point" transform="translate(228.22,215)" d="M7,7H-7V-7H7Z" style="opacity: 1; stroke-width: 0px; fill: rgb(9, 4, 24); fill-opacity: 1;"/><path class="point" transform="translate(245.39,215)" d="M7,7H-7V-7H7Z" style="opacity: 1; stroke-width: 0px; fill: rgb(5, 2, 15); fill-opacity: 1;"/><path class="point" transform="translate(262.56,215)" d="M7,7H-7V-7H7Z" style="opacity: 1; stroke-width: 0px; fill: rgb(8, 3, 21); fill-opacity: 1;"/><path class="point" transform="translate(279.74,215)" d="M7,7H-7V-7H7Z" style="opacity: 1; stroke-width: 0px; fill: rgb(3, 1, 10); fill-opacity: 1;"/><path class="point" transform="translate(296.91,215)" d="M7,7H-7V-7H7Z" style="opacity: 1; stroke-width: 0px; fill: rgb(2, 1, 8); fill-opacity: 1;"/><path class="point" transform="translate(314.09,215)" d="M7,7H-7V-7H7Z" style="opacity: 1; stroke-width: 0px; fill: rgb(2, 1, 9); fill-opacity: 1;"/><path class="point" transform="translate(331.26,215)" d="M7,7H-7V-7H7Z" style="opacity: 1; stroke-width: 0px; fill: rgb(3, 1, 10); fill-opacity: 1;"/><path class="point" transform="translate(348.44,215)" d="M7,7H-7V-7H7Z" style="opacity: 1; stroke-width: 0px; fill: rgb(8, 3, 21); fill-opacity: 1;"/><path class="point" transform="translate(365.61,215)" d="M7,7H-7V-7H7Z" style="opacity: 1; stroke-width: 0px; fill: rgb(16, 7, 41); fill-opacity: 1;"/><path class="point" transform="translate(382.78,215)" d="M7,7H-7V-7H7Z" style="opacity: 1; stroke-width: 0px; fill: rgb(5, 2, 15); fill-opacity: 1;"/><path class="point" transform="translate(399.96,215)" d="M7,7H-7V-7H7Z" style="opacity: 1; stroke-width: 0px; fill: rgb(5, 2, 16); fill-opacity: 1;"/><path class="point" transform="translate(417.13,215)" d="M7,7H-7V-7H7Z" style="opacity: 1; stroke-width: 0px; fill: rgb(5, 2, 15); fill-opacity: 1;"/><path class="point" transform="translate(434.31,215)" d="M7,7H-7V-7H7Z" style="opacity: 1; stroke-width: 0px; fill: rgb(5, 2, 14); fill-opacity: 1;"/><path class="point" transform="translate(451.48,215)" d="M7,7H-7V-7H7Z" style="opacity: 1; stroke-width: 0px; fill: rgb(3, 1, 11); fill-opacity: 1;"/><path class="point" transform="translate(468.65,215)" d="M7,7H-7V-7H7Z" style="opacity: 1; stroke-width: 0px; fill: rgb(15, 7, 37); fill-opacity: 1;"/><path class="point" transform="translate(485.83,215)" d="M7,7H-7V-7H7Z" style="opacity: 1; stroke-width: 0px; fill: rgb(14, 6, 35); fill-opacity: 1;"/><path class="point" transform="translate(503,215)" d="M7,7H-7V-7H7Z" style="opacity: 1; stroke-width: 0px; fill: rgb(24, 11, 59); fill-opacity: 1;"/><path class="point" transform="translate(520.18,215)" d="M7,7H-7V-7H7Z" style="opacity: 1; stroke-width: 0px; fill: rgb(9, 4, 24); fill-opacity: 1;"/><path class="point" transform="translate(537.35,215)" d="M7,7H-7V-7H7Z" style="opacity: 1; stroke-width: 0px; fill: rgb(17, 7, 42); fill-opacity: 1;"/><path class="point" transform="translate(554.53,215)" d="M7,7H-7V-7H7Z" style="opacity: 1; stroke-width: 0px; fill: rgb(5, 2, 16); fill-opacity: 1;"/><path class="point" transform="translate(571.7,215)" d="M7,7H-7V-7H7Z" style="opacity: 1; stroke-width: 0px; fill: rgb(6, 3, 17); fill-opacity: 1;"/><path class="point" transform="translate(39.3,122.63)" d="M7,7H-7V-7H7Z" style="opacity: 1; stroke-width: 0px; fill: rgb(7, 3, 21); fill-opacity: 1;"/><path class="point" transform="translate(56.47,122.63)" d="M7,7H-7V-7H7Z" style="opacity: 1; stroke-width: 0px; fill: rgb(15, 7, 38); fill-opacity: 1;"/><path class="point" transform="translate(73.65,122.63)" d="M7,7H-7V-7H7Z" style="opacity: 1; stroke-width: 0px; fill: rgb(123, 29, 108); fill-opacity: 1;"/><path class="point" transform="translate(90.82,122.63)" d="M7,7H-7V-7H7Z" style="opacity: 1; stroke-width: 0px; fill: rgb(18, 8, 44); fill-opacity: 1;"/><path class="point" transform="translate(108,122.63)" d="M7,7H-7V-7H7Z" style="opacity: 1; stroke-width: 0px; fill: rgb(1, 0, 6); fill-opacity: 1;"/><path class="point" transform="translate(125.17,122.63)" d="M7,7H-7V-7H7Z" style="opacity: 1; stroke-width: 0px; fill: rgb(250, 238, 125); fill-opacity: 1;"/><path class="point" transform="translate(142.35,122.63)" d="M7,7H-7V-7H7Z" style="opacity: 1; stroke-width: 0px; fill: rgb(0, 0, 5); fill-opacity: 1;"/><path class="point" transform="translate(159.52,122.63)" d="M7,7H-7V-7H7Z" style="opacity: 1; stroke-width: 0px; fill: rgb(7, 3, 19); fill-opacity: 1;"/><path class="point" transform="translate(176.69,122.63)" d="M7,7H-7V-7H7Z" style="opacity: 1; stroke-width: 0px; fill: rgb(17, 8, 43); fill-opacity: 1;"/><path class="point" transform="translate(193.87,122.63)" d="M7,7H-7V-7H7Z" style="opacity: 1; stroke-width: 0px; fill: rgb(9, 4, 25); fill-opacity: 1;"/><path class="point" transform="translate(211.04,122.63)" d="M7,7H-7V-7H7Z" style="opacity: 1; stroke-width: 0px; fill: rgb(3, 1, 11); fill-opacity: 1;"/><path class="point" transform="translate(228.22,122.63)" d="M7,7H-7V-7H7Z" style="opacity: 1; stroke-width: 0px; fill: rgb(9, 4, 25); fill-opacity: 1;"/><path class="point" transform="translate(245.39,122.63)" d="M7,7H-7V-7H7Z" style="opacity: 1; stroke-width: 0px; fill: rgb(5, 2, 15); fill-opacity: 1;"/><path class="point" transform="translate(262.56,122.63)" d="M7,7H-7V-7H7Z" style="opacity: 1; stroke-width: 0px; fill: rgb(8, 3, 21); fill-opacity: 1;"/><path class="point" transform="translate(279.74,122.63)" d="M7,7H-7V-7H7Z" style="opacity: 1; stroke-width: 0px; fill: rgb(3, 1, 10); fill-opacity: 1;"/><path class="point" transform="translate(296.91,122.63)" d="M7,7H-7V-7H7Z" style="opacity: 1; stroke-width: 0px; fill: rgb(2, 1, 8); fill-opacity: 1;"/><path class="point" transform="translate(314.09,122.63)" d="M7,7H-7V-7H7Z" style="opacity: 1; stroke-width: 0px; fill: rgb(2, 1, 9); fill-opacity: 1;"/><path class="point" transform="translate(331.26,122.63)" d="M7,7H-7V-7H7Z" style="opacity: 1; stroke-width: 0px; fill: rgb(3, 1, 10); fill-opacity: 1;"/><path class="point" transform="translate(348.44,122.63)" d="M7,7H-7V-7H7Z" style="opacity: 1; stroke-width: 0px; fill: rgb(7, 3, 20); fill-opacity: 1;"/><path class="point" transform="translate(365.61,122.63)" d="M7,7H-7V-7H7Z" style="opacity: 1; stroke-width: 0px; fill: rgb(16, 7, 41); fill-opacity: 1;"/><path class="point" transform="translate(382.78,122.63)" d="M7,7H-7V-7H7Z" style="opacity: 1; stroke-width: 0px; fill: rgb(5, 2, 15); fill-opacity: 1;"/><path class="point" transform="translate(399.96,122.63)" d="M7,7H-7V-7H7Z" style="opacity: 1; stroke-width: 0px; fill: rgb(5, 2, 16); fill-opacity: 1;"/><path class="point" transform="translate(417.13,122.63)" d="M7,7H-7V-7H7Z" style="opacity: 1; stroke-width: 0px; fill: rgb(4, 2, 14); fill-opacity: 1;"/><path class="point" transform="translate(434.31,122.63)" d="M7,7H-7V-7H7Z" style="opacity: 1; stroke-width: 0px; fill: rgb(5, 2, 14); fill-opacity: 1;"/><path class="point" transform="translate(451.48,122.63)" d="M7,7H-7V-7H7Z" style="opacity: 1; stroke-width: 0px; fill: rgb(3, 1, 11); fill-opacity: 1;"/><path class="point" transform="translate(468.65,122.63)" d="M7,7H-7V-7H7Z" style="opacity: 1; stroke-width: 0px; fill: rgb(14, 6, 36); fill-opacity: 1;"/><path class="point" transform="translate(485.83,122.63)" d="M7,7H-7V-7H7Z" style="opacity: 1; stroke-width: 0px; fill: rgb(12, 5, 31); fill-opacity: 1;"/><path class="point" transform="translate(503,122.63)" d="M7,7H-7V-7H7Z" style="opacity: 1; stroke-width: 0px; fill: rgb(24, 11, 59); fill-opacity: 1;"/><path class="point" transform="translate(520.18,122.63)" d="M7,7H-7V-7H7Z" style="opacity: 1; stroke-width: 0px; fill: rgb(9, 4, 24); fill-opacity: 1;"/><path class="point" transform="translate(537.35,122.63)" d="M7,7H-7V-7H7Z" style="opacity: 1; stroke-width: 0px; fill: rgb(16, 7, 41); fill-opacity: 1;"/><path class="point" transform="translate(554.53,122.63)" d="M7,7H-7V-7H7Z" style="opacity: 1; stroke-width: 0px; fill: rgb(5, 2, 16); fill-opacity: 1;"/><path class="point" transform="translate(571.7,122.63)" d="M7,7H-7V-7H7Z" style="opacity: 1; stroke-width: 0px; fill: rgb(6, 3, 17); fill-opacity: 1;"/><path class="point" transform="translate(39.3,30.25)" d="M7,7H-7V-7H7Z" style="opacity: 1; stroke-width: 0px; fill: rgb(7, 3, 20); fill-opacity: 1;"/><path class="point" transform="translate(56.47,30.25)" d="M7,7H-7V-7H7Z" style="opacity: 1; stroke-width: 0px; fill: rgb(15, 7, 38); fill-opacity: 1;"/><path class="point" transform="translate(73.65,30.25)" d="M7,7H-7V-7H7Z" style="opacity: 1; stroke-width: 0px; fill: rgb(122, 29, 108); fill-opacity: 1;"/><path class="point" transform="translate(90.82,30.25)" d="M7,7H-7V-7H7Z" style="opacity: 1; stroke-width: 0px; fill: rgb(18, 8, 44); fill-opacity: 1;"/><path class="point" transform="translate(108,30.25)" d="M7,7H-7V-7H7Z" style="opacity: 1; stroke-width: 0px; fill: rgb(1, 0, 6); fill-opacity: 1;"/><path class="point" transform="translate(125.17,30.25)" d="M7,7H-7V-7H7Z" style="opacity: 1; stroke-width: 0px; fill: rgb(250, 239, 127); fill-opacity: 1;"/><path class="point" transform="translate(142.35,30.25)" d="M7,7H-7V-7H7Z" style="opacity: 1; stroke-width: 0px; fill: rgb(0, 0, 5); fill-opacity: 1;"/><path class="point" transform="translate(159.52,30.25)" d="M7,7H-7V-7H7Z" style="opacity: 1; stroke-width: 0px; fill: rgb(7, 3, 19); fill-opacity: 1;"/><path class="point" transform="translate(176.69,30.25)" d="M7,7H-7V-7H7Z" style="opacity: 1; stroke-width: 0px; fill: rgb(17, 8, 43); fill-opacity: 1;"/><path class="point" transform="translate(193.87,30.25)" d="M7,7H-7V-7H7Z" style="opacity: 1; stroke-width: 0px; fill: rgb(9, 4, 25); fill-opacity: 1;"/><path class="point" transform="translate(211.04,30.25)" d="M7,7H-7V-7H7Z" style="opacity: 1; stroke-width: 0px; fill: rgb(3, 1, 11); fill-opacity: 1;"/><path class="point" transform="translate(228.22,30.25)" d="M7,7H-7V-7H7Z" style="opacity: 1; stroke-width: 0px; fill: rgb(9, 4, 24); fill-opacity: 1;"/><path class="point" transform="translate(245.39,30.25)" d="M7,7H-7V-7H7Z" style="opacity: 1; stroke-width: 0px; fill: rgb(5, 2, 15); fill-opacity: 1;"/><path class="point" transform="translate(262.56,30.25)" d="M7,7H-7V-7H7Z" style="opacity: 1; stroke-width: 0px; fill: rgb(8, 3, 21); fill-opacity: 1;"/><path class="point" transform="translate(279.74,30.25)" d="M7,7H-7V-7H7Z" style="opacity: 1; stroke-width: 0px; fill: rgb(3, 1, 10); fill-opacity: 1;"/><path class="point" transform="translate(296.91,30.25)" d="M7,7H-7V-7H7Z" style="opacity: 1; stroke-width: 0px; fill: rgb(2, 1, 8); fill-opacity: 1;"/><path class="point" transform="translate(314.09,30.25)" d="M7,7H-7V-7H7Z" style="opacity: 1; stroke-width: 0px; fill: rgb(2, 1, 9); fill-opacity: 1;"/><path class="point" transform="translate(331.26,30.25)" d="M7,7H-7V-7H7Z" style="opacity: 1; stroke-width: 0px; fill: rgb(3, 1, 10); fill-opacity: 1;"/><path class="point" transform="translate(348.44,30.25)" d="M7,7H-7V-7H7Z" style="opacity: 1; stroke-width: 0px; fill: rgb(7, 3, 20); fill-opacity: 1;"/><path class="point" transform="translate(365.61,30.25)" d="M7,7H-7V-7H7Z" style="opacity: 1; stroke-width: 0px; fill: rgb(16, 7, 41); fill-opacity: 1;"/><path class="point" transform="translate(382.78,30.25)" d="M7,7H-7V-7H7Z" style="opacity: 1; stroke-width: 0px; fill: rgb(5, 2, 15); fill-opacity: 1;"/><path class="point" transform="translate(399.96,30.25)" d="M7,7H-7V-7H7Z" style="opacity: 1; stroke-width: 0px; fill: rgb(5, 2, 16); fill-opacity: 1;"/><path class="point" transform="translate(417.13,30.25)" d="M7,7H-7V-7H7Z" style="opacity: 1; stroke-width: 0px; fill: rgb(4, 2, 14); fill-opacity: 1;"/><path class="point" transform="translate(434.31,30.25)" d="M7,7H-7V-7H7Z" style="opacity: 1; stroke-width: 0px; fill: rgb(5, 2, 14); fill-opacity: 1;"/><path class="point" transform="translate(451.48,30.25)" d="M7,7H-7V-7H7Z" style="opacity: 1; stroke-width: 0px; fill: rgb(3, 1, 11); fill-opacity: 1;"/><path class="point" transform="translate(468.65,30.25)" d="M7,7H-7V-7H7Z" style="opacity: 1; stroke-width: 0px; fill: rgb(14, 6, 36); fill-opacity: 1;"/><path class="point" transform="translate(485.83,30.25)" d="M7,7H-7V-7H7Z" style="opacity: 1; stroke-width: 0px; fill: rgb(12, 5, 32); fill-opacity: 1;"/><path class="point" transform="translate(503,30.25)" d="M7,7H-7V-7H7Z" style="opacity: 1; stroke-width: 0px; fill: rgb(24, 11, 59); fill-opacity: 1;"/><path class="point" transform="translate(520.18,30.25)" d="M7,7H-7V-7H7Z" style="opacity: 1; stroke-width: 0px; fill: rgb(9, 4, 24); fill-opacity: 1;"/><path class="point" transform="translate(537.35,30.25)" d="M7,7H-7V-7H7Z" style="opacity: 1; stroke-width: 0px; fill: rgb(16, 7, 41); fill-opacity: 1;"/><path class="point" transform="translate(554.53,30.25)" d="M7,7H-7V-7H7Z" style="opacity: 1; stroke-width: 0px; fill: rgb(5, 2, 16); fill-opacity: 1;"/><path class="point" transform="translate(571.7,30.25)" d="M7,7H-7V-7H7Z" style="opacity: 1; stroke-width: 0px; fill: rgb(6, 3, 17); fill-opacity: 1;"/></g><g class="text"/></g></g></g><g class="overplot"/><path class="xlines-above crisp" d="M0,0" style="fill: none;"/><path class="ylines-above crisp" d="M0,0" style="fill: none;"/><g class="overlines-above"/><g class="xaxislayer-above"><g class="xtick"><text text-anchor="middle" x="0" y="453" transform="translate(128.3,0)" style="font-family: 'Open Sans', verdana, arial, sans-serif; font-size: 22px; fill: rgb(42, 63, 95); fill-opacity: 1; white-space: pre; opacity: 1;">1</text></g><g class="xtick"><text text-anchor="middle" x="0" y="453" style="font-family: 'Open Sans', verdana, arial, sans-serif; font-size: 22px; fill: rgb(42, 63, 95); fill-opacity: 1; white-space: pre; opacity: 1;" transform="translate(214.17000000000002,0)">6</text></g><g class="xtick"><text text-anchor="middle" x="0" y="453" style="font-family: 'Open Sans', verdana, arial, sans-serif; font-size: 22px; fill: rgb(42, 63, 95); fill-opacity: 1; white-space: pre; opacity: 1;" transform="translate(300.03999999999996,0)">11</text></g><g class="xtick"><text text-anchor="middle" x="0" y="453" style="font-family: 'Open Sans', verdana, arial, sans-serif; font-size: 22px; fill: rgb(42, 63, 95); fill-opacity: 1; white-space: pre; opacity: 1;" transform="translate(385.91,0)">16</text></g><g class="xtick"><text text-anchor="middle" x="0" y="453" style="font-family: 'Open Sans', verdana, arial, sans-serif; font-size: 22px; fill: rgb(42, 63, 95); fill-opacity: 1; white-space: pre; opacity: 1;" transform="translate(471.78,0)">21</text></g><g class="xtick"><text text-anchor="middle" x="0" y="453" style="font-family: 'Open Sans', verdana, arial, sans-serif; font-size: 22px; fill: rgb(42, 63, 95); fill-opacity: 1; white-space: pre; opacity: 1;" transform="translate(557.65,0)">26</text></g><g class="xtick"><text text-anchor="middle" x="0" y="453" style="font-family: 'Open Sans', verdana, arial, sans-serif; font-size: 22px; fill: rgb(42, 63, 95); fill-opacity: 1; white-space: pre; opacity: 1;" transform="translate(643.53,0)">31</text></g></g><g class="yaxislayer-above"><g class="ytick"><text text-anchor="end" x="88" y="7.699999999999999" transform="translate(0,399.75)" style="font-family: 'Open Sans', verdana, arial, sans-serif; font-size: 22px; fill: rgb(42, 63, 95); fill-opacity: 1; white-space: pre; opacity: 1;">Input</text></g><g class="ytick"><text text-anchor="end" x="88" y="7.699999999999999" style="font-family: 'Open Sans', verdana, arial, sans-serif; font-size: 22px; fill: rgb(42, 63, 95); fill-opacity: 1; white-space: pre; opacity: 1;" transform="translate(0,307.38)">1</text></g><g class="ytick"><text text-anchor="end" x="88" y="7.699999999999999" style="font-family: 'Open Sans', verdana, arial, sans-serif; font-size: 22px; fill: rgb(42, 63, 95); fill-opacity: 1; white-space: pre; opacity: 1;" transform="translate(0,215)">2</text></g><g class="ytick"><text text-anchor="end" x="88" y="7.699999999999999" style="font-family: 'Open Sans', verdana, arial, sans-serif; font-size: 22px; fill: rgb(42, 63, 95); fill-opacity: 1; white-space: pre; opacity: 1;" transform="translate(0,122.63)">3</text></g><g class="ytick"><text text-anchor="end" x="88" y="7.699999999999999" style="font-family: 'Open Sans', verdana, arial, sans-serif; font-size: 22px; fill: rgb(42, 63, 95); fill-opacity: 1; white-space: pre; opacity: 1;" transform="translate(0,30.25)">4</text></g></g><g class="overaxes-above"/></g></g><g class="polarlayer"/><g class="smithlayer"/><g class="ternarylayer"/><g class="geolayer"/><g class="funnelarealayer"/><g class="pielayer"/><g class="iciclelayer"/><g class="treemaplayer"/><g class="sunburstlayer"/><g class="glimages"/><defs id="topdefs-183c23"><g class="clips"/></defs><g class="layer-above"><g class="imagelayer"/><g class="shapelayer"><g class="shape-group" data-index="0" clip-path="url(#clip183c23xy)"><path data-index="0" fill-rule="evenodd" d="M214.17000000000002,392.36L197,314.77" style="opacity: 1; stroke: rgb(99, 110, 250); stroke-opacity: 0.8; fill: rgb(0, 0, 0); fill-opacity: 0; stroke-width: 0.325891px;"/></g><g class="shape-group" data-index="1" clip-path="url(#clip183c23xy)"><path data-index="1" fill-rule="evenodd" d="M162.65,392.36L351.56,314.77" style="opacity: 1; stroke: rgb(99, 110, 250); stroke-opacity: 0.8; fill: rgb(0, 0, 0); fill-opacity: 0; stroke-width: 0.351192px;"/></g><g class="shape-group" data-index="2" clip-path="url(#clip183c23xy)"><path data-index="2" fill-rule="evenodd" d="M162.65,392.36L454.61,314.77" style="opacity: 1; stroke: rgb(99, 110, 250); stroke-opacity: 0.8; fill: rgb(0, 0, 0); fill-opacity: 0; stroke-width: 0.446089px;"/></g><g class="shape-group" data-index="3" clip-path="url(#clip183c23xy)"><path data-index="3" fill-rule="evenodd" d="M214.17000000000002,392.36L523.31,314.77" style="opacity: 1; stroke: rgb(99, 110, 250); stroke-opacity: 0.8; fill: rgb(0, 0, 0); fill-opacity: 0; stroke-width: 0.522998px;"/></g><g class="shape-group" data-index="4" clip-path="url(#clip183c23xy)"><path data-index="4" fill-rule="evenodd" d="M214.17000000000002,392.36L540.48,314.77" style="opacity: 1; stroke: rgb(99, 110, 250); stroke-opacity: 0.8; fill: rgb(0, 0, 0); fill-opacity: 0; stroke-width: 0.312451px;"/></g><g class="shape-group" data-index="5" clip-path="url(#clip183c23xy)"><path data-index="5" fill-rule="evenodd" d="M162.65,392.36L574.8299999999999,314.77" style="opacity: 1; stroke: rgb(99, 110, 250); stroke-opacity: 0.8; fill: rgb(0, 0, 0); fill-opacity: 0; stroke-width: 0.518921px;"/></g><g class="shape-group" data-index="6" clip-path="url(#clip183c23xy)"><path data-index="6" fill-rule="evenodd" d="M214.17000000000002,392.36L609.18,314.77" style="opacity: 1; stroke: rgb(99, 110, 250); stroke-opacity: 0.8; fill: rgb(0, 0, 0); fill-opacity: 0; stroke-width: 0.696048px;"/></g><g class="shape-group" data-index="7" clip-path="url(#clip183c23xy)"><path data-index="7" fill-rule="evenodd" d="M214.17000000000002,392.36L145.47,314.77" style="opacity: 1; stroke: rgb(239, 85, 59); stroke-opacity: 0.8; fill: rgb(0, 0, 0); fill-opacity: 0; stroke-width: 0.861167px;"/></g><g class="shape-group" data-index="8" clip-path="url(#clip183c23xy)"><path data-index="8" fill-rule="evenodd" d="M574.8299999999999,392.36L162.65,314.77" style="opacity: 1; stroke: rgb(239, 85, 59); stroke-opacity: 0.8; fill: rgb(0, 0, 0); fill-opacity: 0; stroke-width: 0.301373px;"/></g><g class="shape-group" data-index="9" clip-path="url(#clip183c23xy)"><path data-index="9" fill-rule="evenodd" d="M214.17000000000002,392.36L179.82,314.77" style="opacity: 1; stroke: rgb(239, 85, 59); stroke-opacity: 0.8; fill: rgb(0, 0, 0); fill-opacity: 0; stroke-width: 0.888493px;"/></g><g class="shape-group" data-index="10" clip-path="url(#clip183c23xy)"><path data-index="10" fill-rule="evenodd" d="M214.17000000000002,392.36L231.35,314.77" style="opacity: 1; stroke: rgb(239, 85, 59); stroke-opacity: 0.8; fill: rgb(0, 0, 0); fill-opacity: 0; stroke-width: 0.359433px;"/></g><g class="shape-group" data-index="11" clip-path="url(#clip183c23xy)"><path data-index="11" fill-rule="evenodd" d="M214.17000000000002,392.36L265.69,314.77" style="opacity: 1; stroke: rgb(239, 85, 59); stroke-opacity: 0.8; fill: rgb(0, 0, 0); fill-opacity: 0; stroke-width: 0.770821px;"/></g><g class="shape-group" data-index="12" clip-path="url(#clip183c23xy)"><path data-index="12" fill-rule="evenodd" d="M162.65,392.36L506.13,314.77" style="opacity: 1; stroke: rgb(239, 85, 59); stroke-opacity: 0.8; fill: rgb(0, 0, 0); fill-opacity: 0; stroke-width: 0.393196px;"/></g><g class="shape-group" data-index="13" clip-path="url(#clip183c23xy)"><path data-index="13" fill-rule="evenodd" d="M214.17000000000002,392.36L609.18,314.77" style="opacity: 1; stroke: rgb(239, 85, 59); stroke-opacity: 0.8; fill: rgb(0, 0, 0); fill-opacity: 0; stroke-width: 0.411192px;"/></g><g class="shape-group" data-index="14" clip-path="url(#clip183c23xy)"><path data-index="14" fill-rule="evenodd" d="M214.17000000000002,392.36L265.69,314.77" style="opacity: 1; stroke: rgb(0, 204, 150); stroke-opacity: 0.8; fill: rgb(0, 0, 0); fill-opacity: 0; stroke-width: 0.34961px;"/></g><g class="shape-group" data-index="15" clip-path="url(#clip183c23xy)"><path data-index="15" fill-rule="evenodd" d="M162.65,392.36L437.44,314.77" style="opacity: 1; stroke: rgb(0, 204, 150); stroke-opacity: 0.8; fill: rgb(0, 0, 0); fill-opacity: 0; stroke-width: 0.50393px;"/></g><g class="shape-group" data-index="16" clip-path="url(#clip183c23xy)"><path data-index="16" fill-rule="evenodd" d="M162.65,392.36L557.65,314.77" style="opacity: 1; stroke: rgb(0, 204, 150); stroke-opacity: 0.8; fill: rgb(0, 0, 0); fill-opacity: 0; stroke-width: 0.945005px;"/></g><g class="shape-group" data-index="17" clip-path="url(#clip183c23xy)"><path data-index="17" fill-rule="evenodd" d="M214.17000000000002,392.36L128.3,314.77" style="opacity: 1; stroke: rgb(171, 99, 250); stroke-opacity: 0.8; fill: rgb(0, 0, 0); fill-opacity: 0; stroke-width: 0.725088px;"/></g><g class="shape-group" data-index="18" clip-path="url(#clip183c23xy)"><path data-index="18" fill-rule="evenodd" d="M214.17000000000002,392.36L162.65,314.77" style="opacity: 1; stroke: rgb(171, 99, 250); stroke-opacity: 0.8; fill: rgb(0, 0, 0); fill-opacity: 0; stroke-width: 0.775159px;"/></g><g class="shape-group" data-index="19" clip-path="url(#clip183c23xy)"><path data-index="19" fill-rule="evenodd" d="M214.17000000000002,392.36L197,314.77" style="opacity: 1; stroke: rgb(171, 99, 250); stroke-opacity: 0.8; fill: rgb(0, 0, 0); fill-opacity: 0; stroke-width: 0.533957px;"/></g><g class="shape-group" data-index="20" clip-path="url(#clip183c23xy)"><path data-index="20" fill-rule="evenodd" d="M214.17000000000002,392.36L523.31,314.77" style="opacity: 1; stroke: rgb(171, 99, 250); stroke-opacity: 0.8; fill: rgb(0, 0, 0); fill-opacity: 0; stroke-width: 0.317961px;"/></g><g class="shape-group" data-index="21" clip-path="url(#clip183c23xy)"><path data-index="21" fill-rule="evenodd" d="M214.17000000000002,392.36L540.48,314.77" style="opacity: 1; stroke: rgb(171, 99, 250); stroke-opacity: 0.8; fill: rgb(0, 0, 0); fill-opacity: 0; stroke-width: 0.329258px;"/></g><g class="shape-group" data-index="22" clip-path="url(#clip183c23xy)"><path data-index="22" fill-rule="evenodd" d="M214.17000000000002,392.36L574.8299999999999,314.77" style="opacity: 1; stroke: rgb(171, 99, 250); stroke-opacity: 0.8; fill: rgb(0, 0, 0); fill-opacity: 0; stroke-width: 0.663796px;"/></g><g class="shape-group" data-index="23" clip-path="url(#clip183c23xy)"><path data-index="23" fill-rule="evenodd" d="M214.17000000000002,392.36L592,314.77" style="opacity: 1; stroke: rgb(171, 99, 250); stroke-opacity: 0.8; fill: rgb(0, 0, 0); fill-opacity: 0; stroke-width: 0.455339px;"/></g><g class="shape-group" data-index="24" clip-path="url(#clip183c23xy)"><path data-index="24" fill-rule="evenodd" d="M214.17000000000002,392.36L609.18,314.77" style="opacity: 1; stroke: rgb(171, 99, 250); stroke-opacity: 0.8; fill: rgb(0, 0, 0); fill-opacity: 0; stroke-width: 0.739465px;"/></g><g class="shape-group" data-index="25" clip-path="url(#clip183c23xy)"><path data-index="25" fill-rule="evenodd" d="M162.65,299.99L454.61,222.39" style="opacity: 1; stroke: rgb(99, 110, 250); stroke-opacity: 0.8; fill: rgb(0, 0, 0); fill-opacity: 0; stroke-width: 0.812366px;"/></g><g class="shape-group" data-index="26" clip-path="url(#clip183c23xy)"><path data-index="26" fill-rule="evenodd" d="M162.65,299.99L471.78,222.39" style="opacity: 1; stroke: rgb(99, 110, 250); stroke-opacity: 0.8; fill: rgb(0, 0, 0); fill-opacity: 0; stroke-width: 0.63941px;"/></g><g class="shape-group" data-index="27" clip-path="url(#clip183c23xy)"><path data-index="27" fill-rule="evenodd" d="M162.65,299.99L523.31,222.39" style="opacity: 1; stroke: rgb(99, 110, 250); stroke-opacity: 0.8; fill: rgb(0, 0, 0); fill-opacity: 0; stroke-width: 0.634581px;"/></g><g class="shape-group" data-index="28" clip-path="url(#clip183c23xy)"><path data-index="28" fill-rule="evenodd" d="M162.65,299.99L557.65,222.39" style="opacity: 1; stroke: rgb(99, 110, 250); stroke-opacity: 0.8; fill: rgb(0, 0, 0); fill-opacity: 0; stroke-width: 0.318536px;"/></g><g class="shape-group" data-index="29" clip-path="url(#clip183c23xy)"><path data-index="29" fill-rule="evenodd" d="M162.65,299.99L574.8299999999999,222.39" style="opacity: 1; stroke: rgb(99, 110, 250); stroke-opacity: 0.8; fill: rgb(0, 0, 0); fill-opacity: 0; stroke-width: 0.652923px;"/></g><g class="shape-group" data-index="30" clip-path="url(#clip183c23xy)"><path data-index="30" fill-rule="evenodd" d="M214.17000000000002,299.99L609.18,222.39" style="opacity: 1; stroke: rgb(99, 110, 250); stroke-opacity: 0.8; fill: rgb(0, 0, 0); fill-opacity: 0; stroke-width: 0.339178px;"/></g><g class="shape-group" data-index="31" clip-path="url(#clip183c23xy)"><path data-index="31" fill-rule="evenodd" d="M609.18,299.99L162.65,222.39" style="opacity: 1; stroke: rgb(239, 85, 59); stroke-opacity: 0.8; fill: rgb(0, 0, 0); fill-opacity: 0; stroke-width: 0.434931px;"/></g><g class="shape-group" data-index="32" clip-path="url(#clip183c23xy)"><path data-index="32" fill-rule="evenodd" d="M162.65,299.99L506.13,222.39" style="opacity: 1; stroke: rgb(239, 85, 59); stroke-opacity: 0.8; fill: rgb(0, 0, 0); fill-opacity: 0; stroke-width: 0.357608px;"/></g><g class="shape-group" data-index="33" clip-path="url(#clip183c23xy)"><path data-index="33" fill-rule="evenodd" d="M557.65,299.99L540.48,222.39" style="opacity: 1; stroke: rgb(239, 85, 59); stroke-opacity: 0.8; fill: rgb(0, 0, 0); fill-opacity: 0; stroke-width: 0.698293px;"/></g><g class="shape-group" data-index="34" clip-path="url(#clip183c23xy)"><path data-index="34" fill-rule="evenodd" d="M592,299.99L403.09,222.39" style="opacity: 1; stroke: rgb(0, 204, 150); stroke-opacity: 0.8; fill: rgb(0, 0, 0); fill-opacity: 0; stroke-width: 0.38887px;"/></g><g class="shape-group" data-index="35" clip-path="url(#clip183c23xy)"><path data-index="35" fill-rule="evenodd" d="M162.65,299.99L437.44,222.39" style="opacity: 1; stroke: rgb(0, 204, 150); stroke-opacity: 0.8; fill: rgb(0, 0, 0); fill-opacity: 0; stroke-width: 0.887051px;"/></g><g class="shape-group" data-index="36" clip-path="url(#clip183c23xy)"><path data-index="36" fill-rule="evenodd" d="M162.65,299.99L523.31,222.39" style="opacity: 1; stroke: rgb(0, 204, 150); stroke-opacity: 0.8; fill: rgb(0, 0, 0); fill-opacity: 0; stroke-width: 0.312464px;"/></g><g class="shape-group" data-index="37" clip-path="url(#clip183c23xy)"><path data-index="37" fill-rule="evenodd" d="M162.65,299.99L557.65,222.39" style="opacity: 1; stroke: rgb(0, 204, 150); stroke-opacity: 0.8; fill: rgb(0, 0, 0); fill-opacity: 0; stroke-width: 0.864693px;"/></g><g class="shape-group" data-index="38" clip-path="url(#clip183c23xy)"><path data-index="38" fill-rule="evenodd" d="M557.65,299.99L592,222.39" style="opacity: 1; stroke: rgb(0, 204, 150); stroke-opacity: 0.8; fill: rgb(0, 0, 0); fill-opacity: 0; stroke-width: 0.343422px;"/></g><g class="shape-group" data-index="39" clip-path="url(#clip183c23xy)"><path data-index="39" fill-rule="evenodd" d="M214.17000000000002,299.99L265.69,222.39" style="opacity: 1; stroke: rgb(171, 99, 250); stroke-opacity: 0.8; fill: rgb(0, 0, 0); fill-opacity: 0; stroke-width: 0.410895px;"/></g><g class="shape-group" data-index="40" clip-path="url(#clip183c23xy)"><path data-index="40" fill-rule="evenodd" d="M214.17000000000002,299.99L506.13,222.39" style="opacity: 1; stroke: rgb(171, 99, 250); stroke-opacity: 0.8; fill: rgb(0, 0, 0); fill-opacity: 0; stroke-width: 0.592442px;"/></g><g class="shape-group" data-index="41" clip-path="url(#clip183c23xy)"><path data-index="41" fill-rule="evenodd" d="M214.17000000000002,299.99L609.18,222.39" style="opacity: 1; stroke: rgb(171, 99, 250); stroke-opacity: 0.8; fill: rgb(0, 0, 0); fill-opacity: 0; stroke-width: 0.308873px;"/></g><g class="shape-group" data-index="42" clip-path="url(#clip183c23xy)"><path data-index="42" fill-rule="evenodd" d="M162.65,207.61L454.61,130.02" style="opacity: 1; stroke: rgb(99, 110, 250); stroke-opacity: 0.8; fill: rgb(0, 0, 0); fill-opacity: 0; stroke-width: 0.383791px;"/></g><g class="shape-group" data-index="43" clip-path="url(#clip183c23xy)"><path data-index="43" fill-rule="evenodd" d="M162.65,207.61L471.78,130.02" style="opacity: 1; stroke: rgb(99, 110, 250); stroke-opacity: 0.8; fill: rgb(0, 0, 0); fill-opacity: 0; stroke-width: 0.386613px;"/></g><g class="shape-group" data-index="44" clip-path="url(#clip183c23xy)"><path data-index="44" fill-rule="evenodd" d="M162.65,207.61L523.31,130.02" style="opacity: 1; stroke: rgb(99, 110, 250); stroke-opacity: 0.8; fill: rgb(0, 0, 0); fill-opacity: 0; stroke-width: 0.348781px;"/></g><g class="shape-group" data-index="45" clip-path="url(#clip183c23xy)"><path data-index="45" fill-rule="evenodd" d="M557.65,207.61L540.48,130.02" style="opacity: 1; stroke: rgb(239, 85, 59); stroke-opacity: 0.8; fill: rgb(0, 0, 0); fill-opacity: 0; stroke-width: 0.832757px;"/></g><g class="shape-group" data-index="46" clip-path="url(#clip183c23xy)"><path data-index="46" fill-rule="evenodd" d="M592,207.61L403.09,130.02" style="opacity: 1; stroke: rgb(0, 204, 150); stroke-opacity: 0.8; fill: rgb(0, 0, 0); fill-opacity: 0; stroke-width: 0.362378px;"/></g><g class="shape-group" data-index="47" clip-path="url(#clip183c23xy)"><path data-index="47" fill-rule="evenodd" d="M162.65,207.61L437.44,130.02" style="opacity: 1; stroke: rgb(0, 204, 150); stroke-opacity: 0.8; fill: rgb(0, 0, 0); fill-opacity: 0; stroke-width: 0.551568px;"/></g><g class="shape-group" data-index="48" clip-path="url(#clip183c23xy)"><path data-index="48" fill-rule="evenodd" d="M162.65,207.61L523.31,130.02" style="opacity: 1; stroke: rgb(0, 204, 150); stroke-opacity: 0.8; fill: rgb(0, 0, 0); fill-opacity: 0; stroke-width: 0.578109px;"/></g><g class="shape-group" data-index="49" clip-path="url(#clip183c23xy)"><path data-index="49" fill-rule="evenodd" d="M162.65,207.61L557.65,130.02" style="opacity: 1; stroke: rgb(0, 204, 150); stroke-opacity: 0.8; fill: rgb(0, 0, 0); fill-opacity: 0; stroke-width: 0.890788px;"/></g><g class="shape-group" data-index="50" clip-path="url(#clip183c23xy)"><path data-index="50" fill-rule="evenodd" d="M162.65,207.61L660.7,130.02" style="opacity: 1; stroke: rgb(0, 204, 150); stroke-opacity: 0.8; fill: rgb(0, 0, 0); fill-opacity: 0; stroke-width: 0.359116px;"/></g><g class="shape-group" data-index="51" clip-path="url(#clip183c23xy)"><path data-index="51" fill-rule="evenodd" d="M626.35,207.61L162.65,130.02" style="opacity: 1; stroke: rgb(171, 99, 250); stroke-opacity: 0.8; fill: rgb(0, 0, 0); fill-opacity: 0; stroke-width: 0.304593px;"/></g><g class="shape-group" data-index="52" clip-path="url(#clip183c23xy)"><path data-index="52" fill-rule="evenodd" d="M592,115.24L300.03999999999996,37.64" style="opacity: 1; stroke: rgb(99, 110, 250); stroke-opacity: 0.8; fill: rgb(0, 0, 0); fill-opacity: 0; stroke-width: 0.300768px;"/></g><g class="shape-group" data-index="53" clip-path="url(#clip183c23xy)"><path data-index="53" fill-rule="evenodd" d="M557.65,115.24L385.91,37.64" style="opacity: 1; stroke: rgb(99, 110, 250); stroke-opacity: 0.8; fill: rgb(0, 0, 0); fill-opacity: 0; stroke-width: 0.318715px;"/></g><g class="shape-group" data-index="54" clip-path="url(#clip183c23xy)"><path data-index="54" fill-rule="evenodd" d="M592,115.24L420.26,37.64" style="opacity: 1; stroke: rgb(99, 110, 250); stroke-opacity: 0.8; fill: rgb(0, 0, 0); fill-opacity: 0; stroke-width: 0.409737px;"/></g><g class="shape-group" data-index="55" clip-path="url(#clip183c23xy)"><path data-index="55" fill-rule="evenodd" d="M592,115.24L660.7,37.64" style="opacity: 1; stroke: rgb(99, 110, 250); stroke-opacity: 0.8; fill: rgb(0, 0, 0); fill-opacity: 0; stroke-width: 0.30134px;"/></g><g class="shape-group" data-index="56" clip-path="url(#clip183c23xy)"><path data-index="56" fill-rule="evenodd" d="M179.82,115.24L248.52,37.64" style="opacity: 1; stroke: rgb(239, 85, 59); stroke-opacity: 0.8; fill: rgb(0, 0, 0); fill-opacity: 0; stroke-width: 0.472376px;"/></g><g class="shape-group" data-index="57" clip-path="url(#clip183c23xy)"><path data-index="57" fill-rule="evenodd" d="M162.65,115.24L523.31,37.64" style="opacity: 1; stroke: rgb(0, 204, 150); stroke-opacity: 0.8; fill: rgb(0, 0, 0); fill-opacity: 0; stroke-width: 0.471299px;"/></g><g class="shape-group" data-index="58" clip-path="url(#clip183c23xy)"><path data-index="58" fill-rule="evenodd" d="M162.65,115.24L592,37.64" style="opacity: 1; stroke: rgb(0, 204, 150); stroke-opacity: 0.8; fill: rgb(0, 0, 0); fill-opacity: 0; stroke-width: 0.368061px;"/></g></g></g><g class="infolayer"><g class="g-gtitle"/><g class="g-xtitle"><text class="xtitle" x="394.5" y="491.7" text-anchor="middle" style="font-family: 'Open Sans', verdana, arial, sans-serif; font-size: 26px; fill: rgb(42, 63, 95); opacity: 1; font-weight: normal; white-space: pre;">Features</text></g><g class="g-ytitle" transform="translate(27.0908203125,0)"><text class="ytitle" transform="rotate(-90,0.9093749999999972,215)" x="0.9093749999999972" y="215" text-anchor="middle" style="font-family: 'Open Sans', verdana, arial, sans-serif; font-size: 26px; fill: rgb(42, 63, 95); opacity: 1; font-weight: normal; white-space: pre;">Layers</text></g></g></svg>