<?xml version="1.0" encoding="utf-8" standalone="no"?>
<!DOCTYPE svg PUBLIC "-//W3C//DTD SVG 1.1//EN"
  "http://www.w3.org/Graphics/SVG/1.1/DTD/svg11.dtd">
<svg height="288pt" version="1.1" viewBox="0 0 432 288" width="432pt" xmlns="http://www.w3.org/2000/svg" xmlns:xlink="http://www.w3.org/1999/xlink">
 <metadata>
  <rdf:RDF xmlns:cc="http://creativecommons.org/ns#" xmlns:dc="http://purl.org/dc/elements/1.1/" xmlns:rdf="http://www.w3.org/1999/02/22-rdf-syntax-ns#">
   <cc:Work>
    <dc:type rdf:resource="http://purl.org/dc/dcmitype/StillImage"/>
    <dc:date>2022-06-16T10:35:12.392614</dc:date>
    <dc:format>image/svg+xml</dc:format>
    <dc:creator>
     <cc:Agent>
      <dc:title>Matplotlib v3.4.2, https://matplotlib.org/</dc:title>
     </cc:Agent>
    </dc:creator>
   </cc:Work>
  </rdf:RDF>
 </metadata>
 <defs>
  <style type="text/css">*{stroke-linecap:butt;stroke-linejoin:round;}</style>
 </defs>
 <g id="figure_1">
  <g id="patch_1">
   <path d="M 0 288 
L 432 288 
L 432 0 
L 0 0 
z
" style="fill:none;"/>
  </g>
  <g id="axes_1">
   <g id="PathCollection_1">
    <defs>
     <path d="M 0 3 
C 0.795609 3 1.55874 2.683901 2.12132 2.12132 
C 2.683901 1.55874 3 0.795609 3 0 
C 3 -0.795609 2.683901 -1.55874 2.12132 -2.12132 
C 1.55874 -2.683901 0.795609 -3 0 -3 
C -0.795609 -3 -1.55874 -2.683901 -2.12132 -2.12132 
C -2.683901 -1.55874 -3 -0.795609 -3 0 
C -3 0.795609 -2.683901 1.55874 -2.12132 2.12132 
C -1.55874 2.683901 -0.795609 3 0 3 
z
" id="m5045ef9898" style="stroke:#1f77b4;"/>
    </defs>
    <g clip-path="url(#p604be9db64)">
     <use style="fill:#1f77b4;stroke:#1f77b4;" x="328.096916" xlink:href="#m5045ef9898" y="86.522261"/>
     <use style="fill:#1f77b4;stroke:#1f77b4;" x="342.365972" xlink:href="#m5045ef9898" y="116.495566"/>
     <use style="fill:#1f77b4;stroke:#1f77b4;" x="284.130526" xlink:href="#m5045ef9898" y="44.443636"/>
     <use style="fill:#1f77b4;stroke:#1f77b4;" x="326.631947" xlink:href="#m5045ef9898" y="54.725896"/>
     <use style="fill:#1f77b4;stroke:#1f77b4;" x="290.711495" xlink:href="#m5045ef9898" y="76.256867"/>
    </g>
   </g>
   <g id="PathCollection_2">
    <defs>
     <path d="M -3 3 
L 3 3 
L 3 -3 
L -3 -3 
z
" id="m3f487b1a52" style="stroke:#ff7f0e;"/>
    </defs>
    <g clip-path="url(#p604be9db64)">
     <use style="fill:#ff7f0e;stroke:#ff7f0e;" x="210.7086" xlink:href="#m3f487b1a52" y="185.862058"/>
     <use style="fill:#ff7f0e;stroke:#ff7f0e;" x="215.701452" xlink:href="#m3f487b1a52" y="240.020645"/>
     <use style="fill:#ff7f0e;stroke:#ff7f0e;" x="166.906465" xlink:href="#m3f487b1a52" y="242.116364"/>
     <use style="fill:#ff7f0e;stroke:#ff7f0e;" x="150.511215" xlink:href="#m3f487b1a52" y="135.770468"/>
     <use style="fill:#ff7f0e;stroke:#ff7f0e;" x="177.849894" xlink:href="#m3f487b1a52" y="167.188493"/>
     <use style="fill:#ff7f0e;stroke:#ff7f0e;" x="140.229359" xlink:href="#m3f487b1a52" y="184.615087"/>
     <use style="fill:#ff7f0e;stroke:#ff7f0e;" x="217.981868" xlink:href="#m3f487b1a52" y="157.485146"/>
     <use style="fill:#ff7f0e;stroke:#ff7f0e;" x="69.218182" xlink:href="#m3f487b1a52" y="182.345668"/>
     <use style="fill:#ff7f0e;stroke:#ff7f0e;" x="109.880083" xlink:href="#m3f487b1a52" y="198.354696"/>
     <use style="fill:#ff7f0e;stroke:#ff7f0e;" x="105.128913" xlink:href="#m3f487b1a52" y="166.819227"/>
     <use style="fill:#ff7f0e;stroke:#ff7f0e;" x="81.308307" xlink:href="#m3f487b1a52" y="218.610575"/>
     <use style="fill:#ff7f0e;stroke:#ff7f0e;" x="141.389014" xlink:href="#m3f487b1a52" y="159.605315"/>
     <use style="fill:#ff7f0e;stroke:#ff7f0e;" x="172.464746" xlink:href="#m3f487b1a52" y="83.251038"/>
     <use style="fill:#ff7f0e;stroke:#ff7f0e;" x="184.740221" xlink:href="#m3f487b1a52" y="142.287552"/>
     <use style="fill:#ff7f0e;stroke:#ff7f0e;" x="173.466924" xlink:href="#m3f487b1a52" y="192.765975"/>
     <use style="fill:#ff7f0e;stroke:#ff7f0e;" x="110.716146" xlink:href="#m3f487b1a52" y="136.708017"/>
     <use style="fill:#ff7f0e;stroke:#ff7f0e;" x="240.658302" xlink:href="#m3f487b1a52" y="208.797602"/>
     <use style="fill:#ff7f0e;stroke:#ff7f0e;" x="69.765782" xlink:href="#m3f487b1a52" y="145.558977"/>
     <use style="fill:#ff7f0e;stroke:#ff7f0e;" x="251.426182" xlink:href="#m3f487b1a52" y="175.599338"/>
     <use style="fill:#ff7f0e;stroke:#ff7f0e;" x="183.2494" xlink:href="#m3f487b1a52" y="112.760956"/>
     <use style="fill:#ff7f0e;stroke:#ff7f0e;" x="147.516298" xlink:href="#m3f487b1a52" y="213.448999"/>
     <use style="fill:#ff7f0e;stroke:#ff7f0e;" x="193.73993" xlink:href="#m3f487b1a52" y="214.756263"/>
     <use style="fill:#ff7f0e;stroke:#ff7f0e;" x="120.840448" xlink:href="#m3f487b1a52" y="236.46161"/>
     <use style="fill:#ff7f0e;stroke:#ff7f0e;" x="140.876222" xlink:href="#m3f487b1a52" y="110.577671"/>
    </g>
   </g>
   <g id="PathCollection_3">
    <defs>
     <path d="M -0 4.242641 
L 4.242641 0 
L 0 -4.242641 
L -4.242641 -0 
z
" id="m844ab1b29c" style="stroke:#2ca02c;"/>
    </defs>
    <g clip-path="url(#p604be9db64)">
     <use style="fill:#2ca02c;stroke:#2ca02c;" x="373.581818" xlink:href="#m844ab1b29c" y="81.143451"/>
    </g>
   </g>
   <g id="PathCollection_4">
    <defs>
     <path d="M 0 -3 
L -3 3 
L 3 3 
z
" id="m3a564afd9e" style="stroke:#d62728;"/>
    </defs>
    <g clip-path="url(#p604be9db64)">
     <use style="fill:#d62728;stroke:#d62728;" x="245.070773" xlink:href="#m3a564afd9e" y="68.035147"/>
     <use style="fill:#d62728;stroke:#d62728;" x="299.664975" xlink:href="#m3a564afd9e" y="140.181796"/>
     <use style="fill:#d62728;stroke:#d62728;" x="263.701292" xlink:href="#m3a564afd9e" y="125.814306"/>
     <use style="fill:#d62728;stroke:#d62728;" x="293.673604" xlink:href="#m3a564afd9e" y="109.237835"/>
     <use style="fill:#d62728;stroke:#d62728;" x="257.963505" xlink:href="#m3a564afd9e" y="95.33385"/>
    </g>
   </g>
   <g id="PathCollection_5">
    <defs>
     <path d="M -0 3 
L 3 -3 
L -3 -3 
z
" id="mc18adf4c4d" style="stroke:#9467bd;"/>
    </defs>
    <g clip-path="url(#p604be9db64)">
     <use style="fill:#9467bd;stroke:#9467bd;" x="95.29485" xlink:href="#mc18adf4c4d" y="104.206345"/>
     <use style="fill:#9467bd;stroke:#9467bd;" x="126.173998" xlink:href="#mc18adf4c4d" y="80.177727"/>
     <use style="fill:#9467bd;stroke:#9467bd;" x="218.070228" xlink:href="#mc18adf4c4d" y="125.279922"/>
    </g>
   </g>
   <g id="text_1">
    <!-- Datasets clusters -->
    <g transform="translate(169.341563 28.56)scale(0.12 -0.12)">
     <defs>
      <path d="M 1259 4147 
L 1259 519 
L 2022 519 
Q 2988 519 3436 956 
Q 3884 1394 3884 2338 
Q 3884 3275 3436 3711 
Q 2988 4147 2022 4147 
L 1259 4147 
z
M 628 4666 
L 1925 4666 
Q 3281 4666 3915 4102 
Q 4550 3538 4550 2338 
Q 4550 1131 3912 565 
Q 3275 0 1925 0 
L 628 0 
L 628 4666 
z
" id="DejaVuSans-44" transform="scale(0.015625)"/>
      <path d="M 2194 1759 
Q 1497 1759 1228 1600 
Q 959 1441 959 1056 
Q 959 750 1161 570 
Q 1363 391 1709 391 
Q 2188 391 2477 730 
Q 2766 1069 2766 1631 
L 2766 1759 
L 2194 1759 
z
M 3341 1997 
L 3341 0 
L 2766 0 
L 2766 531 
Q 2569 213 2275 61 
Q 1981 -91 1556 -91 
Q 1019 -91 701 211 
Q 384 513 384 1019 
Q 384 1609 779 1909 
Q 1175 2209 1959 2209 
L 2766 2209 
L 2766 2266 
Q 2766 2663 2505 2880 
Q 2244 3097 1772 3097 
Q 1472 3097 1187 3025 
Q 903 2953 641 2809 
L 641 3341 
Q 956 3463 1253 3523 
Q 1550 3584 1831 3584 
Q 2591 3584 2966 3190 
Q 3341 2797 3341 1997 
z
" id="DejaVuSans-61" transform="scale(0.015625)"/>
      <path d="M 1172 4494 
L 1172 3500 
L 2356 3500 
L 2356 3053 
L 1172 3053 
L 1172 1153 
Q 1172 725 1289 603 
Q 1406 481 1766 481 
L 2356 481 
L 2356 0 
L 1766 0 
Q 1100 0 847 248 
Q 594 497 594 1153 
L 594 3053 
L 172 3053 
L 172 3500 
L 594 3500 
L 594 4494 
L 1172 4494 
z
" id="DejaVuSans-74" transform="scale(0.015625)"/>
      <path d="M 2834 3397 
L 2834 2853 
Q 2591 2978 2328 3040 
Q 2066 3103 1784 3103 
Q 1356 3103 1142 2972 
Q 928 2841 928 2578 
Q 928 2378 1081 2264 
Q 1234 2150 1697 2047 
L 1894 2003 
Q 2506 1872 2764 1633 
Q 3022 1394 3022 966 
Q 3022 478 2636 193 
Q 2250 -91 1575 -91 
Q 1294 -91 989 -36 
Q 684 19 347 128 
L 347 722 
Q 666 556 975 473 
Q 1284 391 1588 391 
Q 1994 391 2212 530 
Q 2431 669 2431 922 
Q 2431 1156 2273 1281 
Q 2116 1406 1581 1522 
L 1381 1569 
Q 847 1681 609 1914 
Q 372 2147 372 2553 
Q 372 3047 722 3315 
Q 1072 3584 1716 3584 
Q 2034 3584 2315 3537 
Q 2597 3491 2834 3397 
z
" id="DejaVuSans-73" transform="scale(0.015625)"/>
      <path d="M 3597 1894 
L 3597 1613 
L 953 1613 
Q 991 1019 1311 708 
Q 1631 397 2203 397 
Q 2534 397 2845 478 
Q 3156 559 3463 722 
L 3463 178 
Q 3153 47 2828 -22 
Q 2503 -91 2169 -91 
Q 1331 -91 842 396 
Q 353 884 353 1716 
Q 353 2575 817 3079 
Q 1281 3584 2069 3584 
Q 2775 3584 3186 3129 
Q 3597 2675 3597 1894 
z
M 3022 2063 
Q 3016 2534 2758 2815 
Q 2500 3097 2075 3097 
Q 1594 3097 1305 2825 
Q 1016 2553 972 2059 
L 3022 2063 
z
" id="DejaVuSans-65" transform="scale(0.015625)"/>
      <path id="DejaVuSans-20" transform="scale(0.015625)"/>
      <path d="M 3122 3366 
L 3122 2828 
Q 2878 2963 2633 3030 
Q 2388 3097 2138 3097 
Q 1578 3097 1268 2742 
Q 959 2388 959 1747 
Q 959 1106 1268 751 
Q 1578 397 2138 397 
Q 2388 397 2633 464 
Q 2878 531 3122 666 
L 3122 134 
Q 2881 22 2623 -34 
Q 2366 -91 2075 -91 
Q 1284 -91 818 406 
Q 353 903 353 1747 
Q 353 2603 823 3093 
Q 1294 3584 2113 3584 
Q 2378 3584 2631 3529 
Q 2884 3475 3122 3366 
z
" id="DejaVuSans-63" transform="scale(0.015625)"/>
      <path d="M 603 4863 
L 1178 4863 
L 1178 0 
L 603 0 
L 603 4863 
z
" id="DejaVuSans-6c" transform="scale(0.015625)"/>
      <path d="M 544 1381 
L 544 3500 
L 1119 3500 
L 1119 1403 
Q 1119 906 1312 657 
Q 1506 409 1894 409 
Q 2359 409 2629 706 
Q 2900 1003 2900 1516 
L 2900 3500 
L 3475 3500 
L 3475 0 
L 2900 0 
L 2900 538 
Q 2691 219 2414 64 
Q 2138 -91 1772 -91 
Q 1169 -91 856 284 
Q 544 659 544 1381 
z
M 1991 3584 
L 1991 3584 
z
" id="DejaVuSans-75" transform="scale(0.015625)"/>
      <path d="M 2631 2963 
Q 2534 3019 2420 3045 
Q 2306 3072 2169 3072 
Q 1681 3072 1420 2755 
Q 1159 2438 1159 1844 
L 1159 0 
L 581 0 
L 581 3500 
L 1159 3500 
L 1159 2956 
Q 1341 3275 1631 3429 
Q 1922 3584 2338 3584 
Q 2397 3584 2469 3576 
Q 2541 3569 2628 3553 
L 2631 2963 
z
" id="DejaVuSans-72" transform="scale(0.015625)"/>
     </defs>
     <use xlink:href="#DejaVuSans-44"/>
     <use x="77.001953" xlink:href="#DejaVuSans-61"/>
     <use x="138.28125" xlink:href="#DejaVuSans-74"/>
     <use x="177.490234" xlink:href="#DejaVuSans-61"/>
     <use x="238.769531" xlink:href="#DejaVuSans-73"/>
     <use x="290.869141" xlink:href="#DejaVuSans-65"/>
     <use x="352.392578" xlink:href="#DejaVuSans-74"/>
     <use x="391.601562" xlink:href="#DejaVuSans-73"/>
     <use x="443.701172" xlink:href="#DejaVuSans-20"/>
     <use x="475.488281" xlink:href="#DejaVuSans-63"/>
     <use x="530.46875" xlink:href="#DejaVuSans-6c"/>
     <use x="558.251953" xlink:href="#DejaVuSans-75"/>
     <use x="621.630859" xlink:href="#DejaVuSans-73"/>
     <use x="673.730469" xlink:href="#DejaVuSans-74"/>
     <use x="712.939453" xlink:href="#DejaVuSans-65"/>
     <use x="774.462891" xlink:href="#DejaVuSans-72"/>
     <use x="815.576172" xlink:href="#DejaVuSans-73"/>
    </g>
   </g>
  </g>
 </g>
 <defs>
  <clipPath id="p604be9db64">
   <rect height="217.44" width="334.8" x="54" y="34.56"/>
  </clipPath>
 </defs>
</svg>
