<svg class="main-svg" xmlns="http://www.w3.org/2000/svg" xmlns:xlink="http://www.w3.org/1999/xlink" width="1750" height="1250" style="" viewBox="0 0 700 500"><rect x="0" y="0" width="700" height="500" style="fill: rgb(255, 255, 255); fill-opacity: 1;"/><defs id="defs-e6d694"><g class="clips"><clipPath id="clipe6d694xyplot" class="plotclip"><rect width="360" height="422"/></clipPath><clipPath class="axesclip" id="clipe6d694x"><rect x="80" y="0" width="360" height="500"/></clipPath><clipPath class="axesclip" id="clipe6d694y"><rect x="0" y="0" width="700" height="422"/></clipPath><clipPath class="axesclip" id="clipe6d694xy"><rect x="80" y="0" width="360" height="422"/></clipPath></g><g class="gradients"/><g class="patterns"/></defs><g class="bglayer"/><g class="layer-below"><g class="imagelayer"/><g class="shapelayer"/></g><g class="cartesianlayer"><g class="subplot xy"><g class="layer-subplot"><g class="shapelayer"/><g class="imagelayer"/></g><g class="minor-gridlayer"><g class="x"/><g class="y"/></g><g class="gridlayer"><g class="x"/><g class="y"><path class="ygrid crisp" transform="translate(0,347.52)" d="M80,0h360" style="stroke: rgb(235, 240, 248); stroke-opacity: 1; stroke-width: 1px;"/><path class="ygrid crisp" transform="translate(0,273.05)" d="M80,0h360" style="stroke: rgb(235, 240, 248); stroke-opacity: 1; stroke-width: 1px;"/><path class="ygrid crisp" transform="translate(0,198.57)" d="M80,0h360" style="stroke: rgb(235, 240, 248); stroke-opacity: 1; stroke-width: 1px;"/><path class="ygrid crisp" transform="translate(0,124.09)" d="M80,0h360" style="stroke: rgb(235, 240, 248); stroke-opacity: 1; stroke-width: 1px;"/><path class="ygrid crisp" transform="translate(0,49.62)" d="M80,0h360" style="stroke: rgb(235, 240, 248); stroke-opacity: 1; stroke-width: 1px;"/></g></g><g class="zerolinelayer"><path class="yzl zl crisp" transform="translate(0,422)" d="M80,0h360" style="stroke: rgb(235, 240, 248); stroke-opacity: 1; stroke-width: 2px;"/></g><path class="xlines-below"/><path class="ylines-below"/><g class="overlines-below"/><g class="xaxislayer-below"/><g class="yaxislayer-below"/><g class="overaxes-below"/><g class="plot" transform="translate(80,0)" clip-path="url(#clipe6d694xyplot)"><g class="barlayer mlayer"><g class="trace bars" style="opacity: 1;"><g class="points"><g class="point"><path d="M6,422V228.6H15.6V422Z" style="vector-effect: none; opacity: 1; stroke-width: 0.5px; fill: rgb(99, 110, 250); fill-opacity: 0.8; stroke: rgb(255, 255, 255); stroke-opacity: 1;"/></g><g class="point"><path d="M66,422V135.62H75.6V422Z" style="vector-effect: none; opacity: 1; stroke-width: 0.5px; fill: rgb(99, 110, 250); fill-opacity: 0.8; stroke: rgb(255, 255, 255); stroke-opacity: 1;"/></g><g class="point"><path d="M126,422V246.45H135.6V422Z" style="vector-effect: none; opacity: 1; stroke-width: 0.5px; fill: rgb(99, 110, 250); fill-opacity: 0.8; stroke: rgb(255, 255, 255); stroke-opacity: 1;"/></g><g class="point"><path d="M186,422V232.71H195.6V422Z" style="vector-effect: none; opacity: 1; stroke-width: 0.5px; fill: rgb(99, 110, 250); fill-opacity: 0.8; stroke: rgb(255, 255, 255); stroke-opacity: 1;"/></g><g class="point"><path d="M246,422V74.68H255.6V422Z" style="vector-effect: none; opacity: 1; stroke-width: 0.5px; fill: rgb(99, 110, 250); fill-opacity: 0.8; stroke: rgb(255, 255, 255); stroke-opacity: 1;"/></g><g class="point"><path d="M306,422V230.41H315.6V422Z" style="vector-effect: none; opacity: 1; stroke-width: 0.5px; fill: rgb(99, 110, 250); fill-opacity: 0.8; stroke: rgb(255, 255, 255); stroke-opacity: 1;"/></g></g><g class="errorbar" style="opacity: 1;"><path class="yerror" d="M6.800000000000001,227.36h8m-4,0V229.83m-4,0h8" style="vector-effect: none; stroke-width: 2px; stroke: rgb(0, 0, 0); stroke-opacity: 0.7;"/></g><g class="errorbar" style="opacity: 1;"><path class="yerror" d="M66.8,37.24h8m-4,0V234m-4,0h8" style="vector-effect: none; stroke-width: 2px; stroke: rgb(0, 0, 0); stroke-opacity: 0.7;"/></g><g class="errorbar" style="opacity: 1;"><path class="yerror" d="M126.80000000000001,232.71h8m-4,0V260.18m-4,0h8" style="vector-effect: none; stroke-width: 2px; stroke: rgb(0, 0, 0); stroke-opacity: 0.7;"/></g><g class="errorbar" style="opacity: 1;"><path class="yerror" d="M186.8,140.67h8m-4,0V324.74m-4,0h8" style="vector-effect: none; stroke-width: 2px; stroke: rgb(0, 0, 0); stroke-opacity: 0.7;"/></g><g class="errorbar" style="opacity: 1;"><path class="yerror" d="M246.8,67.28h8m-4,0V82.08m-4,0h8" style="vector-effect: none; stroke-width: 2px; stroke: rgb(0, 0, 0); stroke-opacity: 0.7;"/></g><g class="errorbar" style="opacity: 1;"><path class="yerror" d="M306.8,226.11h8m-4,0V234.72m-4,0h8" style="vector-effect: none; stroke-width: 2px; stroke: rgb(0, 0, 0); stroke-opacity: 0.7;"/></g></g><g class="trace bars" style="opacity: 1;"><g class="points"><g class="point"><path d="M15.6,422V226.75H25.2V422Z" style="vector-effect: none; opacity: 1; stroke-width: 0.5px; fill: rgb(239, 85, 59); fill-opacity: 0.8; stroke: rgb(255, 255, 255); stroke-opacity: 1;"/></g><g class="point"><path d="M75.6,422V105.48H85.2V422Z" style="vector-effect: none; opacity: 1; stroke-width: 0.5px; fill: rgb(239, 85, 59); fill-opacity: 0.8; stroke: rgb(255, 255, 255); stroke-opacity: 1;"/></g><g class="point"><path d="M135.6,422V224.28H145.2V422Z" style="vector-effect: none; opacity: 1; stroke-width: 0.5px; fill: rgb(239, 85, 59); fill-opacity: 0.8; stroke: rgb(255, 255, 255); stroke-opacity: 1;"/></g><g class="point"><path d="M195.6,422V232.96H205.2V422Z" style="vector-effect: none; opacity: 1; stroke-width: 0.5px; fill: rgb(239, 85, 59); fill-opacity: 0.8; stroke: rgb(255, 255, 255); stroke-opacity: 1;"/></g><g class="point"><path d="M255.6,422V81.97H265.2V422Z" style="vector-effect: none; opacity: 1; stroke-width: 0.5px; fill: rgb(239, 85, 59); fill-opacity: 0.8; stroke: rgb(255, 255, 255); stroke-opacity: 1;"/></g><g class="point"><path d="M315.6,422V206.71H325.2V422Z" style="vector-effect: none; opacity: 1; stroke-width: 0.5px; fill: rgb(239, 85, 59); fill-opacity: 0.8; stroke: rgb(255, 255, 255); stroke-opacity: 1;"/></g></g><g class="errorbar" style="opacity: 1;"><path class="yerror" d="M16.4,223.74h8m-4,0V229.77m-4,0h8" style="vector-effect: none; stroke-width: 2px; stroke: rgb(0, 0, 0); stroke-opacity: 0.7;"/></g><g class="errorbar" style="opacity: 1;"><path class="yerror" d="M76.4,31.17h8m-4,0V179.78m-4,0h8" style="vector-effect: none; stroke-width: 2px; stroke: rgb(0, 0, 0); stroke-opacity: 0.7;"/></g><g class="errorbar" style="opacity: 1;"><path class="yerror" d="M136.4,168.63h8m-4,0V279.94m-4,0h8" style="vector-effect: none; stroke-width: 2px; stroke: rgb(0, 0, 0); stroke-opacity: 0.7;"/></g><g class="errorbar" style="opacity: 1;"><path class="yerror" d="M196.4,207.91h8m-4,0V258.02m-4,0h8" style="vector-effect: none; stroke-width: 2px; stroke: rgb(0, 0, 0); stroke-opacity: 0.7;"/></g><g class="errorbar" style="opacity: 1;"><path class="yerror" d="M256.4,73.22h8m-4,0V90.73m-4,0h8" style="vector-effect: none; stroke-width: 2px; stroke: rgb(0, 0, 0); stroke-opacity: 0.7;"/></g><g class="errorbar" style="opacity: 1;"><path class="yerror" d="M316.4,198.26h8m-4,0V215.17m-4,0h8" style="vector-effect: none; stroke-width: 2px; stroke: rgb(0, 0, 0); stroke-opacity: 0.7;"/></g></g><g class="trace bars" style="opacity: 1;"><g class="points"><g class="point"><path d="M25.2,422V234.52H34.8V422Z" style="vector-effect: none; opacity: 1; stroke-width: 0.5px; fill: rgb(0, 204, 150); fill-opacity: 0.8; stroke: rgb(255, 255, 255); stroke-opacity: 1;"/></g><g class="point"><path d="M85.2,422V93.06H94.8V422Z" style="vector-effect: none; opacity: 1; stroke-width: 0.5px; fill: rgb(0, 204, 150); fill-opacity: 0.8; stroke: rgb(255, 255, 255); stroke-opacity: 1;"/></g><g class="point"><path d="M145.2,422V216.3H154.8V422Z" style="vector-effect: none; opacity: 1; stroke-width: 0.5px; fill: rgb(0, 204, 150); fill-opacity: 0.8; stroke: rgb(255, 255, 255); stroke-opacity: 1;"/></g><g class="point"><path d="M205.2,422V239.95H214.8V422Z" style="vector-effect: none; opacity: 1; stroke-width: 0.5px; fill: rgb(0, 204, 150); fill-opacity: 0.8; stroke: rgb(255, 255, 255); stroke-opacity: 1;"/></g><g class="point"><path d="M265.2,422V90.84H274.8V422Z" style="vector-effect: none; opacity: 1; stroke-width: 0.5px; fill: rgb(0, 204, 150); fill-opacity: 0.8; stroke: rgb(255, 255, 255); stroke-opacity: 1;"/></g><g class="point"><path d="M325.2,422V297.06H334.8V422Z" style="vector-effect: none; opacity: 1; stroke-width: 0.5px; fill: rgb(0, 204, 150); fill-opacity: 0.8; stroke: rgb(255, 255, 255); stroke-opacity: 1;"/></g></g><g class="errorbar" style="opacity: 1;"><path class="yerror" d="M26,233.3h8m-4,0V235.73m-4,0h8" style="vector-effect: none; stroke-width: 2px; stroke: rgb(0, 0, 0); stroke-opacity: 0.7;"/></g><g class="errorbar" style="opacity: 1;"><path class="yerror" d="M86,21.1h8m-4,0V165.03m-4,0h8" style="vector-effect: none; stroke-width: 2px; stroke: rgb(0, 0, 0); stroke-opacity: 0.7;"/></g><g class="errorbar" style="opacity: 1;"><path class="yerror" d="M146,165.45h8m-4,0V267.16m-4,0h8" style="vector-effect: none; stroke-width: 2px; stroke: rgb(0, 0, 0); stroke-opacity: 0.7;"/></g><g class="errorbar" style="opacity: 1;"><path class="yerror" d="M206,231.22h8m-4,0V248.67m-4,0h8" style="vector-effect: none; stroke-width: 2px; stroke: rgb(0, 0, 0); stroke-opacity: 0.7;"/></g><g class="errorbar" style="opacity: 1;"><path class="yerror" d="M266,78.9h8m-4,0V102.78m-4,0h8" style="vector-effect: none; stroke-width: 2px; stroke: rgb(0, 0, 0); stroke-opacity: 0.7;"/></g><g class="errorbar" style="opacity: 1;"><path class="yerror" d="M326,294.79h8m-4,0V299.32m-4,0h8" style="vector-effect: none; stroke-width: 2px; stroke: rgb(0, 0, 0); stroke-opacity: 0.7;"/></g></g><g class="trace bars" style="opacity: 1;"><g class="points"><g class="point"><path d="M34.8,422V235.79H44.4V422Z" style="vector-effect: none; opacity: 1; stroke-width: 0.5px; fill: rgb(171, 99, 250); fill-opacity: 0.8; stroke: rgb(255, 255, 255); stroke-opacity: 1;"/></g><g class="point"><path d="M94.8,422V88.63H104.4V422Z" style="vector-effect: none; opacity: 1; stroke-width: 0.5px; fill: rgb(171, 99, 250); fill-opacity: 0.8; stroke: rgb(255, 255, 255); stroke-opacity: 1;"/></g><g class="point"><path d="M154.8,422V216.3H164.4V422Z" style="vector-effect: none; opacity: 1; stroke-width: 0.5px; fill: rgb(171, 99, 250); fill-opacity: 0.8; stroke: rgb(255, 255, 255); stroke-opacity: 1;"/></g><g class="point"><path d="M214.8,422V231.15H224.4V422Z" style="vector-effect: none; opacity: 1; stroke-width: 0.5px; fill: rgb(171, 99, 250); fill-opacity: 0.8; stroke: rgb(255, 255, 255); stroke-opacity: 1;"/></g><g class="point"><path d="M274.8,422V82.9H284.4V422Z" style="vector-effect: none; opacity: 1; stroke-width: 0.5px; fill: rgb(171, 99, 250); fill-opacity: 0.8; stroke: rgb(255, 255, 255); stroke-opacity: 1;"/></g><g class="point"><path d="M334.8,422V276.3H344.4V422Z" style="vector-effect: none; opacity: 1; stroke-width: 0.5px; fill: rgb(171, 99, 250); fill-opacity: 0.8; stroke: rgb(255, 255, 255); stroke-opacity: 1;"/></g></g><g class="errorbar" style="opacity: 1;"><path class="yerror" d="M35.6,235.69h8m-4,0V235.88m-4,0h8" style="vector-effect: none; stroke-width: 2px; stroke: rgb(0, 0, 0); stroke-opacity: 0.7;"/></g><g class="errorbar" style="opacity: 1;"><path class="yerror" d="M95.6,25.63h8m-4,0V151.63m-4,0h8" style="vector-effect: none; stroke-width: 2px; stroke: rgb(0, 0, 0); stroke-opacity: 0.7;"/></g><g class="errorbar" style="opacity: 1;"><path class="yerror" d="M155.6,165.45h8m-4,0V267.16m-4,0h8" style="vector-effect: none; stroke-width: 2px; stroke: rgb(0, 0, 0); stroke-opacity: 0.7;"/></g><g class="errorbar" style="opacity: 1;"><path class="yerror" d="M215.6,198.61h8m-4,0V263.7m-4,0h8" style="vector-effect: none; stroke-width: 2px; stroke: rgb(0, 0, 0); stroke-opacity: 0.7;"/></g><g class="errorbar" style="opacity: 1;"><path class="yerror" d="M275.6,73.8h8m-4,0V91.99m-4,0h8" style="vector-effect: none; stroke-width: 2px; stroke: rgb(0, 0, 0); stroke-opacity: 0.7;"/></g><g class="errorbar" style="opacity: 1;"><path class="yerror" d="M335.6,260.5h8m-4,0V292.09m-4,0h8" style="vector-effect: none; stroke-width: 2px; stroke: rgb(0, 0, 0); stroke-opacity: 0.7;"/></g></g><g class="trace bars" style="opacity: 1;"><g class="points"><g class="point"><path d="M44.4,422V233.07H54V422Z" style="vector-effect: none; opacity: 1; stroke-width: 0.5px; fill: rgb(255, 161, 90); fill-opacity: 0.8; stroke: rgb(255, 255, 255); stroke-opacity: 1;"/></g><g class="point"><path d="M104.4,422V196.35H114V422Z" style="vector-effect: none; opacity: 1; stroke-width: 0.5px; fill: rgb(255, 161, 90); fill-opacity: 0.8; stroke: rgb(255, 255, 255); stroke-opacity: 1;"/></g><g class="point"><path d="M164.4,422V233.42H174V422Z" style="vector-effect: none; opacity: 1; stroke-width: 0.5px; fill: rgb(255, 161, 90); fill-opacity: 0.8; stroke: rgb(255, 255, 255); stroke-opacity: 1;"/></g><g class="point"><path d="M224.4,422V226.65H234V422Z" style="vector-effect: none; opacity: 1; stroke-width: 0.5px; fill: rgb(255, 161, 90); fill-opacity: 0.8; stroke: rgb(255, 255, 255); stroke-opacity: 1;"/></g><g class="point"><path d="M284.4,422V209.7H294V422Z" style="vector-effect: none; opacity: 1; stroke-width: 0.5px; fill: rgb(255, 161, 90); fill-opacity: 0.8; stroke: rgb(255, 255, 255); stroke-opacity: 1;"/></g><g class="point"><path d="M344.4,422V284.54H354V422Z" style="vector-effect: none; opacity: 1; stroke-width: 0.5px; fill: rgb(255, 161, 90); fill-opacity: 0.8; stroke: rgb(255, 255, 255); stroke-opacity: 1;"/></g></g><g class="errorbar" style="opacity: 1;"><path class="yerror" d="M45.2,232.55h8m-4,0V233.6m-4,0h8" style="vector-effect: none; stroke-width: 2px; stroke: rgb(0, 0, 0); stroke-opacity: 0.7;"/></g><g class="errorbar" style="opacity: 1;"><path class="yerror" d="M105.2,154.3h8m-4,0V238.41m-4,0h8" style="vector-effect: none; stroke-width: 2px; stroke: rgb(0, 0, 0); stroke-opacity: 0.7;"/></g><g class="errorbar" style="opacity: 1;"><path class="yerror" d="M165.2,222.84h8m-4,0V243.99m-4,0h8" style="vector-effect: none; stroke-width: 2px; stroke: rgb(0, 0, 0); stroke-opacity: 0.7;"/></g><g class="errorbar" style="opacity: 1;"><path class="yerror" d="M225.2,205.18h8m-4,0V248.13m-4,0h8" style="vector-effect: none; stroke-width: 2px; stroke: rgb(0, 0, 0); stroke-opacity: 0.7;"/></g><g class="errorbar" style="opacity: 1;"><path class="yerror" d="M285.2,199.78h8m-4,0V219.63m-4,0h8" style="vector-effect: none; stroke-width: 2px; stroke: rgb(0, 0, 0); stroke-opacity: 0.7;"/></g><g class="errorbar" style="opacity: 1;"><path class="yerror" d="M345.2,277.59h8m-4,0V291.49m-4,0h8" style="vector-effect: none; stroke-width: 2px; stroke: rgb(0, 0, 0); stroke-opacity: 0.7;"/></g></g></g></g><g class="overplot"/><path class="xlines-above crisp" d="M0,0" style="fill: none;"/><path class="ylines-above crisp" d="M0,0" style="fill: none;"/><g class="overlines-above"/><g class="xaxislayer-above"><g class="xtick"><text text-anchor="start" x="0" y="445" transform="translate(110,0) rotate(30,0,434)" style="font-family: 'Open Sans', verdana, arial, sans-serif; font-size: 22px; fill: rgb(42, 63, 95); fill-opacity: 1; white-space: pre; opacity: 1;">adult</text></g><g class="xtick"><text text-anchor="start" x="0" y="445" transform="translate(170,0) rotate(30,0,434)" style="font-family: 'Open Sans', verdana, arial, sans-serif; font-size: 22px; fill: rgb(42, 63, 95); fill-opacity: 1; white-space: pre; opacity: 1;">anneal</text></g><g class="xtick"><text text-anchor="start" x="0" y="445" transform="translate(230,0) rotate(30,0,434)" style="font-family: 'Open Sans', verdana, arial, sans-serif; font-size: 22px; fill: rgb(42, 63, 95); fill-opacity: 1; white-space: pre; opacity: 1;">australian</text></g><g class="xtick"><text text-anchor="start" x="0" y="445" transform="translate(290,0) rotate(30,0,434)" style="font-family: 'Open Sans', verdana, arial, sans-serif; font-size: 22px; fill: rgb(42, 63, 95); fill-opacity: 1; white-space: pre; opacity: 1;">jasmine</text></g><g class="xtick"><text text-anchor="start" x="0" y="445" transform="translate(350,0) rotate(30,0,434)" style="font-family: 'Open Sans', verdana, arial, sans-serif; font-size: 22px; fill: rgb(42, 63, 95); fill-opacity: 1; white-space: pre; opacity: 1;">sylvine</text></g><g class="xtick"><text text-anchor="start" x="0" y="445" transform="translate(410,0) rotate(30,0,434)" style="font-family: 'Open Sans', verdana, arial, sans-serif; font-size: 22px; fill: rgb(42, 63, 95); fill-opacity: 1; white-space: pre; opacity: 1;">volkert</text></g></g><g class="yaxislayer-above"><g class="ytick"><text text-anchor="end" x="79" y="7.699999999999999" transform="translate(0,422)" style="font-family: 'Open Sans', verdana, arial, sans-serif; font-size: 22px; fill: rgb(42, 63, 95); fill-opacity: 1; white-space: pre; opacity: 1;">0</text></g><g class="ytick"><text text-anchor="end" x="79" y="7.699999999999999" style="font-family: 'Open Sans', verdana, arial, sans-serif; font-size: 22px; fill: rgb(42, 63, 95); fill-opacity: 1; white-space: pre; opacity: 1;" transform="translate(0,347.52)">0.2</text></g><g class="ytick"><text text-anchor="end" x="79" y="7.699999999999999" style="font-family: 'Open Sans', verdana, arial, sans-serif; font-size: 22px; fill: rgb(42, 63, 95); fill-opacity: 1; white-space: pre; opacity: 1;" transform="translate(0,273.05)">0.4</text></g><g class="ytick"><text text-anchor="end" x="79" y="7.699999999999999" style="font-family: 'Open Sans', verdana, arial, sans-serif; font-size: 22px; fill: rgb(42, 63, 95); fill-opacity: 1; white-space: pre; opacity: 1;" transform="translate(0,198.57)">0.6</text></g><g class="ytick"><text text-anchor="end" x="79" y="7.699999999999999" style="font-family: 'Open Sans', verdana, arial, sans-serif; font-size: 22px; fill: rgb(42, 63, 95); fill-opacity: 1; white-space: pre; opacity: 1;" transform="translate(0,124.09)">0.8</text></g><g class="ytick"><text text-anchor="end" x="79" y="7.699999999999999" style="font-family: 'Open Sans', verdana, arial, sans-serif; font-size: 22px; fill: rgb(42, 63, 95); fill-opacity: 1; white-space: pre; opacity: 1;" transform="translate(0,49.62)">1</text></g></g><g class="overaxes-above"/></g></g><g class="polarlayer"/><g class="smithlayer"/><g class="ternarylayer"/><g class="geolayer"/><g class="funnelarealayer"/><g class="pielayer"/><g class="iciclelayer"/><g class="treemaplayer"/><g class="sunburstlayer"/><g class="glimages"/><defs id="topdefs-e6d694"><g class="clips"/><clipPath id="legende6d694"><rect width="253" height="200" x="0" y="0"/></clipPath></defs><g class="layer-above"><g class="imagelayer"/><g class="shapelayer"><g class="shape-group" data-index="0" clip-path="url(#clipe6d694xy)"><path data-index="0" fill-rule="evenodd" d="M83,160.66L137,160.66" style="opacity: 1; stroke: rgb(254, 203, 82); stroke-opacity: 0.8; fill: rgb(0, 0, 0); fill-opacity: 0; stroke-dasharray: 3px, 3px; stroke-width: 2.5px;"/></g><g class="shape-group" data-index="1" clip-path="url(#clipe6d694xy)"><path data-index="1" fill-rule="evenodd" d="M143,93.95L197,93.95" style="opacity: 1; stroke: rgb(254, 203, 82); stroke-opacity: 0.8; fill: rgb(0, 0, 0); fill-opacity: 0; stroke-dasharray: 3px, 3px; stroke-width: 2.5px;"/></g><g class="shape-group" data-index="2" clip-path="url(#clipe6d694xy)"><path data-index="2" fill-rule="evenodd" d="M203,209.21L257,209.21" style="opacity: 1; stroke: rgb(254, 203, 82); stroke-opacity: 0.8; fill: rgb(0, 0, 0); fill-opacity: 0; stroke-dasharray: 3px, 3px; stroke-width: 2.5px;"/></g><g class="shape-group" data-index="3" clip-path="url(#clipe6d694xy)"><path data-index="3" fill-rule="evenodd" d="M263,237.88L317,237.88" style="opacity: 1; stroke: rgb(254, 203, 82); stroke-opacity: 0.8; fill: rgb(0, 0, 0); fill-opacity: 0; stroke-dasharray: 3px, 3px; stroke-width: 2.5px;"/></g><g class="shape-group" data-index="4" clip-path="url(#clipe6d694xy)"><path data-index="4" fill-rule="evenodd" d="M323,106.62L377,106.62" style="opacity: 1; stroke: rgb(254, 203, 82); stroke-opacity: 0.8; fill: rgb(0, 0, 0); fill-opacity: 0; stroke-dasharray: 3px, 3px; stroke-width: 2.5px;"/></g><g class="shape-group" data-index="5" clip-path="url(#clipe6d694xy)"><path data-index="5" fill-rule="evenodd" d="M383,196.17L437,196.17" style="opacity: 1; stroke: rgb(254, 203, 82); stroke-opacity: 0.8; fill: rgb(0, 0, 0); fill-opacity: 0; stroke-dasharray: 3px, 3px; stroke-width: 2.5px;"/></g></g></g><g class="infolayer"><g class="legend" pointer-events="all" transform="translate(447,0)"><rect class="bg" shape-rendering="crispEdges" width="253" height="200" x="0" y="0" style="stroke: rgb(68, 68, 68); stroke-opacity: 1; fill: rgb(255, 255, 255); fill-opacity: 1; stroke-width: 0px;"/><g class="scrollbox" transform="" clip-path="url(#legende6d694)"><g class="groups"><g class="traces" transform="translate(0,20.8)" style="opacity: 1;"><text class="legendtext" text-anchor="start" x="40" y="8.58" style="font-family: 'Open Sans', verdana, arial, sans-serif; font-size: 22px; fill: rgb(42, 63, 95); fill-opacity: 1; white-space: pre;">Attention</text><g class="layers" style="opacity: 1;"><g class="legendfill"/><g class="legendlines"/><g class="legendsymbols"><g class="legendpoints"><path class="legendundefined" d="M6,6H-6V-6H6Z" transform="translate(20,0)" style="stroke-width: 0.5px; fill: rgb(99, 110, 250); fill-opacity: 0.8; stroke: rgb(255, 255, 255); stroke-opacity: 1;"/></g></g></g><rect class="legendtoggle" x="0" y="-15.8" width="247.28125" height="31.6" style="fill: rgb(0, 0, 0); fill-opacity: 0;"/></g><g class="traces" transform="translate(0,52.400000000000006)" style="opacity: 1;"><text class="legendtext" text-anchor="start" x="40" y="8.58" style="font-family: 'Open Sans', verdana, arial, sans-serif; font-size: 22px; fill: rgb(42, 63, 95); fill-opacity: 1; white-space: pre;">Decision tree</text><g class="layers" style="opacity: 1;"><g class="legendfill"/><g class="legendlines"/><g class="legendsymbols"><g class="legendpoints"><path class="legendundefined" d="M6,6H-6V-6H6Z" transform="translate(20,0)" style="stroke-width: 0.5px; fill: rgb(239, 85, 59); fill-opacity: 0.8; stroke: rgb(255, 255, 255); stroke-opacity: 1;"/></g></g></g><rect class="legendtoggle" x="0" y="-15.8" width="247.28125" height="31.6" style="fill: rgb(0, 0, 0); fill-opacity: 0;"/></g><g class="traces" transform="translate(0,84)" style="opacity: 1;"><text class="legendtext" text-anchor="start" x="40" y="8.58" style="font-family: 'Open Sans', verdana, arial, sans-serif; font-size: 22px; fill: rgb(42, 63, 95); fill-opacity: 1; white-space: pre;">F test</text><g class="layers" style="opacity: 1;"><g class="legendfill"/><g class="legendlines"/><g class="legendsymbols"><g class="legendpoints"><path class="legendundefined" d="M6,6H-6V-6H6Z" transform="translate(20,0)" style="stroke-width: 0.5px; fill: rgb(0, 204, 150); fill-opacity: 0.8; stroke: rgb(255, 255, 255); stroke-opacity: 1;"/></g></g></g><rect class="legendtoggle" x="0" y="-15.8" width="247.28125" height="31.6" style="fill: rgb(0, 0, 0); fill-opacity: 0;"/></g><g class="traces" transform="translate(0,115.60000000000001)" style="opacity: 1;"><text class="legendtext" text-anchor="start" x="40" y="8.58" style="font-family: 'Open Sans', verdana, arial, sans-serif; font-size: 22px; fill: rgb(42, 63, 95); fill-opacity: 1; white-space: pre;">Linear model</text><g class="layers" style="opacity: 1;"><g class="legendfill"/><g class="legendlines"/><g class="legendsymbols"><g class="legendpoints"><path class="legendundefined" d="M6,6H-6V-6H6Z" transform="translate(20,0)" style="stroke-width: 0.5px; fill: rgb(171, 99, 250); fill-opacity: 0.8; stroke: rgb(255, 255, 255); stroke-opacity: 1;"/></g></g></g><rect class="legendtoggle" x="0" y="-15.8" width="247.28125" height="31.6" style="fill: rgb(0, 0, 0); fill-opacity: 0;"/></g><g class="traces" transform="translate(0,147.20000000000002)" style="opacity: 1;"><text class="legendtext" text-anchor="start" x="40" y="8.58" style="font-family: 'Open Sans', verdana, arial, sans-serif; font-size: 22px; fill: rgb(42, 63, 95); fill-opacity: 1; white-space: pre;">Random</text><g class="layers" style="opacity: 1;"><g class="legendfill"/><g class="legendlines"/><g class="legendsymbols"><g class="legendpoints"><path class="legendundefined" d="M6,6H-6V-6H6Z" transform="translate(20,0)" style="stroke-width: 0.5px; fill: rgb(255, 161, 90); fill-opacity: 0.8; stroke: rgb(255, 255, 255); stroke-opacity: 1;"/></g></g></g><rect class="legendtoggle" x="0" y="-15.8" width="247.28125" height="31.6" style="fill: rgb(0, 0, 0); fill-opacity: 0;"/></g><g class="traces" transform="translate(0,178.8)" style="opacity: 1;"><text class="legendtext" text-anchor="start" x="40" y="8.58" style="font-family: 'Open Sans', verdana, arial, sans-serif; font-size: 22px; fill: rgb(42, 63, 95); fill-opacity: 1; white-space: pre;">No feature selection</text><g class="layers" style="opacity: 1;"><g class="legendfill"/><g class="legendlines"><path class="js-line" d="M5,0h30" style="fill: none; stroke: rgb(254, 203, 82); stroke-opacity: 0.8; stroke-dasharray: 3px, 3px; stroke-width: 2.5px;"/></g><g class="legendsymbols"><g class="legendpoints"/></g></g><rect class="legendtoggle" x="0" y="-15.8" width="247.28125" height="31.6" style="fill: rgb(0, 0, 0); fill-opacity: 0;"/></g></g></g><rect class="scrollbar" rx="20" ry="3" width="0" height="0" x="0" y="0" style="fill: rgb(128, 139, 164); fill-opacity: 1;"/></g><g class="g-gtitle"/><g class="g-xtitle"/><g class="g-ytitle" transform="translate(12.7158203125,0)"><text class="ytitle" transform="rotate(-90,15.284374999999997,211)" x="15.284374999999997" y="211" text-anchor="middle" style="font-family: 'Open Sans', verdana, arial, sans-serif; font-size: 26px; fill: rgb(42, 63, 95); opacity: 1; font-weight: normal; white-space: pre;">Balanced accuracy</text></g></g></svg>