<svg class="main-svg" xmlns="http://www.w3.org/2000/svg" xmlns:xlink="http://www.w3.org/1999/xlink" width="1750" height="1250" style="" viewBox="0 0 700 500"><rect x="0" y="0" width="700" height="500" style="fill: rgb(255, 255, 255); fill-opacity: 1;"/><defs id="defs-75654f"><g class="clips"><clipPath id="clip75654fxyplot" class="plotclip"><rect width="360" height="422"/></clipPath><clipPath class="axesclip" id="clip75654fx"><rect x="80" y="0" width="360" height="500"/></clipPath><clipPath class="axesclip" id="clip75654fy"><rect x="0" y="0" width="700" height="422"/></clipPath><clipPath class="axesclip" id="clip75654fxy"><rect x="80" y="0" width="360" height="422"/></clipPath></g><g class="gradients"/><g class="patterns"/></defs><g class="bglayer"/><g class="layer-below"><g class="imagelayer"/><g class="shapelayer"/></g><g class="cartesianlayer"><g class="subplot xy"><g class="layer-subplot"><g class="shapelayer"/><g class="imagelayer"/></g><g class="minor-gridlayer"><g class="x"/><g class="y"/></g><g class="gridlayer"><g class="x"/><g class="y"><path class="ygrid crisp" transform="translate(0,349.82)" d="M80,0h360" style="stroke: rgb(235, 240, 248); stroke-opacity: 1; stroke-width: 1px;"/><path class="ygrid crisp" transform="translate(0,277.64)" d="M80,0h360" style="stroke: rgb(235, 240, 248); stroke-opacity: 1; stroke-width: 1px;"/><path class="ygrid crisp" transform="translate(0,205.46)" d="M80,0h360" style="stroke: rgb(235, 240, 248); stroke-opacity: 1; stroke-width: 1px;"/><path class="ygrid crisp" transform="translate(0,133.28)" d="M80,0h360" style="stroke: rgb(235, 240, 248); stroke-opacity: 1; stroke-width: 1px;"/><path class="ygrid crisp" transform="translate(0,61.09)" d="M80,0h360" style="stroke: rgb(235, 240, 248); stroke-opacity: 1; stroke-width: 1px;"/></g></g><g class="zerolinelayer"><path class="yzl zl crisp" transform="translate(0,422)" d="M80,0h360" style="stroke: rgb(235, 240, 248); stroke-opacity: 1; stroke-width: 2px;"/></g><path class="xlines-below"/><path class="ylines-below"/><g class="overlines-below"/><g class="xaxislayer-below"/><g class="yaxislayer-below"/><g class="overaxes-below"/><g class="plot" transform="translate(80,0)" clip-path="url(#clip75654fxyplot)"><g class="barlayer mlayer"><g class="trace bars" style="opacity: 1;"><g class="points"><g class="point"><path d="M6,422V241.03H15.6V422Z" style="vector-effect: none; opacity: 1; stroke-width: 0.5px; fill: rgb(99, 110, 250); fill-opacity: 0.8; stroke: rgb(255, 255, 255); stroke-opacity: 1;"/></g><g class="point"><path d="M66,422V97.19H75.6V422Z" style="vector-effect: none; opacity: 1; stroke-width: 0.5px; fill: rgb(99, 110, 250); fill-opacity: 0.8; stroke: rgb(255, 255, 255); stroke-opacity: 1;"/></g><g class="point"><path d="M126,422V241.55H135.6V422Z" style="vector-effect: none; opacity: 1; stroke-width: 0.5px; fill: rgb(99, 110, 250); fill-opacity: 0.8; stroke: rgb(255, 255, 255); stroke-opacity: 1;"/></g><g class="point"><path d="M186,422V232.48H195.6V422Z" style="vector-effect: none; opacity: 1; stroke-width: 0.5px; fill: rgb(99, 110, 250); fill-opacity: 0.8; stroke: rgb(255, 255, 255); stroke-opacity: 1;"/></g><g class="point"><path d="M246,422V75.63H255.6V422Z" style="vector-effect: none; opacity: 1; stroke-width: 0.5px; fill: rgb(99, 110, 250); fill-opacity: 0.8; stroke: rgb(255, 255, 255); stroke-opacity: 1;"/></g><g class="point"><path d="M306,422V251.32H315.6V422Z" style="vector-effect: none; opacity: 1; stroke-width: 0.5px; fill: rgb(99, 110, 250); fill-opacity: 0.8; stroke: rgb(255, 255, 255); stroke-opacity: 1;"/></g></g><g class="errorbar" style="opacity: 1;"><path class="yerror" d="M6.800000000000001,240.19h8m-4,0V241.88m-4,0h8" style="vector-effect: none; stroke-width: 2px; stroke: rgb(0, 0, 0); stroke-opacity: 0.7;"/></g><g class="errorbar" style="opacity: 1;"><path class="yerror" d="M66.8,21.1h8m-4,0V173.27m-4,0h8" style="vector-effect: none; stroke-width: 2px; stroke: rgb(0, 0, 0); stroke-opacity: 0.7;"/></g><g class="errorbar" style="opacity: 1;"><path class="yerror" d="M126.80000000000001,241.55h8m-4,0V241.55m-4,0h8" style="vector-effect: none; stroke-width: 2px; stroke: rgb(0, 0, 0); stroke-opacity: 0.7;"/></g><g class="errorbar" style="opacity: 1;"><path class="yerror" d="M186.8,217.01h8m-4,0V247.94m-4,0h8" style="vector-effect: none; stroke-width: 2px; stroke: rgb(0, 0, 0); stroke-opacity: 0.7;"/></g><g class="errorbar" style="opacity: 1;"><path class="yerror" d="M246.8,70.84h8m-4,0V80.43m-4,0h8" style="vector-effect: none; stroke-width: 2px; stroke: rgb(0, 0, 0); stroke-opacity: 0.7;"/></g><g class="errorbar" style="opacity: 1;"><path class="yerror" d="M306.8,244.08h8m-4,0V258.57m-4,0h8" style="vector-effect: none; stroke-width: 2px; stroke: rgb(0, 0, 0); stroke-opacity: 0.7;"/></g></g><g class="trace bars" style="opacity: 1;"><g class="points"><g class="point"><path d="M15.6,422V233.39H25.2V422Z" style="vector-effect: none; opacity: 1; stroke-width: 0.5px; fill: rgb(239, 85, 59); fill-opacity: 0.8; stroke: rgb(255, 255, 255); stroke-opacity: 1;"/></g><g class="point"><path d="M75.6,422V97.19H85.2V422Z" style="vector-effect: none; opacity: 1; stroke-width: 0.5px; fill: rgb(239, 85, 59); fill-opacity: 0.8; stroke: rgb(255, 255, 255); stroke-opacity: 1;"/></g><g class="point"><path d="M135.6,422V95.76H145.2V422Z" style="vector-effect: none; opacity: 1; stroke-width: 0.5px; fill: rgb(239, 85, 59); fill-opacity: 0.8; stroke: rgb(255, 255, 255); stroke-opacity: 1;"/></g><g class="point"><path d="M195.6,422V232.05H205.2V422Z" style="vector-effect: none; opacity: 1; stroke-width: 0.5px; fill: rgb(239, 85, 59); fill-opacity: 0.8; stroke: rgb(255, 255, 255); stroke-opacity: 1;"/></g><g class="point"><path d="M255.6,422V75.63H265.2V422Z" style="vector-effect: none; opacity: 1; stroke-width: 0.5px; fill: rgb(239, 85, 59); fill-opacity: 0.8; stroke: rgb(255, 255, 255); stroke-opacity: 1;"/></g><g class="point"><path d="M315.6,422V241.75H325.2V422Z" style="vector-effect: none; opacity: 1; stroke-width: 0.5px; fill: rgb(239, 85, 59); fill-opacity: 0.8; stroke: rgb(255, 255, 255); stroke-opacity: 1;"/></g></g><g class="errorbar" style="opacity: 1;"><path class="yerror" d="M16.4,230.29h8m-4,0V236.48m-4,0h8" style="vector-effect: none; stroke-width: 2px; stroke: rgb(0, 0, 0); stroke-opacity: 0.7;"/></g><g class="errorbar" style="opacity: 1;"><path class="yerror" d="M76.4,21.1h8m-4,0V173.27m-4,0h8" style="vector-effect: none; stroke-width: 2px; stroke: rgb(0, 0, 0); stroke-opacity: 0.7;"/></g><g class="errorbar" style="opacity: 1;"><path class="yerror" d="M136.4,66.22h8m-4,0V125.29m-4,0h8" style="vector-effect: none; stroke-width: 2px; stroke: rgb(0, 0, 0); stroke-opacity: 0.7;"/></g><g class="errorbar" style="opacity: 1;"><path class="yerror" d="M196.4,217h8m-4,0V247.1m-4,0h8" style="vector-effect: none; stroke-width: 2px; stroke: rgb(0, 0, 0); stroke-opacity: 0.7;"/></g><g class="errorbar" style="opacity: 1;"><path class="yerror" d="M256.4,70.84h8m-4,0V80.43m-4,0h8" style="vector-effect: none; stroke-width: 2px; stroke: rgb(0, 0, 0); stroke-opacity: 0.7;"/></g><g class="errorbar" style="opacity: 1;"><path class="yerror" d="M316.4,230.42h8m-4,0V253.08m-4,0h8" style="vector-effect: none; stroke-width: 2px; stroke: rgb(0, 0, 0); stroke-opacity: 0.7;"/></g></g><g class="trace bars" style="opacity: 1;"><g class="points"><g class="point"><path d="M25.2,422V241.03H34.8V422Z" style="vector-effect: none; opacity: 1; stroke-width: 0.5px; fill: rgb(0, 204, 150); fill-opacity: 0.8; stroke: rgb(255, 255, 255); stroke-opacity: 1;"/></g><g class="point"><path d="M85.2,422V97.19H94.8V422Z" style="vector-effect: none; opacity: 1; stroke-width: 0.5px; fill: rgb(0, 204, 150); fill-opacity: 0.8; stroke: rgb(255, 255, 255); stroke-opacity: 1;"/></g><g class="point"><path d="M145.2,422V95.76H154.8V422Z" style="vector-effect: none; opacity: 1; stroke-width: 0.5px; fill: rgb(0, 204, 150); fill-opacity: 0.8; stroke: rgb(255, 255, 255); stroke-opacity: 1;"/></g><g class="point"><path d="M205.2,422V247.21H214.8V422Z" style="vector-effect: none; opacity: 1; stroke-width: 0.5px; fill: rgb(0, 204, 150); fill-opacity: 0.8; stroke: rgb(255, 255, 255); stroke-opacity: 1;"/></g><g class="point"><path d="M265.2,422V88.3H274.8V422Z" style="vector-effect: none; opacity: 1; stroke-width: 0.5px; fill: rgb(0, 204, 150); fill-opacity: 0.8; stroke: rgb(255, 255, 255); stroke-opacity: 1;"/></g><g class="point"><path d="M325.2,422V295.26H334.8V422Z" style="vector-effect: none; opacity: 1; stroke-width: 0.5px; fill: rgb(0, 204, 150); fill-opacity: 0.8; stroke: rgb(255, 255, 255); stroke-opacity: 1;"/></g></g><g class="errorbar" style="opacity: 1;"><path class="yerror" d="M26,240.19h8m-4,0V241.88m-4,0h8" style="vector-effect: none; stroke-width: 2px; stroke: rgb(0, 0, 0); stroke-opacity: 0.7;"/></g><g class="errorbar" style="opacity: 1;"><path class="yerror" d="M86,21.1h8m-4,0V173.27m-4,0h8" style="vector-effect: none; stroke-width: 2px; stroke: rgb(0, 0, 0); stroke-opacity: 0.7;"/></g><g class="errorbar" style="opacity: 1;"><path class="yerror" d="M146,66.22h8m-4,0V125.29m-4,0h8" style="vector-effect: none; stroke-width: 2px; stroke: rgb(0, 0, 0); stroke-opacity: 0.7;"/></g><g class="errorbar" style="opacity: 1;"><path class="yerror" d="M206,221h8m-4,0V273.42m-4,0h8" style="vector-effect: none; stroke-width: 2px; stroke: rgb(0, 0, 0); stroke-opacity: 0.7;"/></g><g class="errorbar" style="opacity: 1;"><path class="yerror" d="M266,78.22h8m-4,0V98.39m-4,0h8" style="vector-effect: none; stroke-width: 2px; stroke: rgb(0, 0, 0); stroke-opacity: 0.7;"/></g><g class="errorbar" style="opacity: 1;"><path class="yerror" d="M326,288.58h8m-4,0V301.94m-4,0h8" style="vector-effect: none; stroke-width: 2px; stroke: rgb(0, 0, 0); stroke-opacity: 0.7;"/></g></g><g class="trace bars" style="opacity: 1;"><g class="points"><g class="point"><path d="M34.8,422V241.07H44.4V422Z" style="vector-effect: none; opacity: 1; stroke-width: 0.5px; fill: rgb(171, 99, 250); fill-opacity: 0.8; stroke: rgb(255, 255, 255); stroke-opacity: 1;"/></g><g class="point"><path d="M94.8,422V97.19H104.4V422Z" style="vector-effect: none; opacity: 1; stroke-width: 0.5px; fill: rgb(171, 99, 250); fill-opacity: 0.8; stroke: rgb(255, 255, 255); stroke-opacity: 1;"/></g><g class="point"><path d="M154.8,422V95.76H164.4V422Z" style="vector-effect: none; opacity: 1; stroke-width: 0.5px; fill: rgb(171, 99, 250); fill-opacity: 0.8; stroke: rgb(255, 255, 255); stroke-opacity: 1;"/></g><g class="point"><path d="M214.8,422V237.82H224.4V422Z" style="vector-effect: none; opacity: 1; stroke-width: 0.5px; fill: rgb(171, 99, 250); fill-opacity: 0.8; stroke: rgb(255, 255, 255); stroke-opacity: 1;"/></g><g class="point"><path d="M274.8,422V84.77H284.4V422Z" style="vector-effect: none; opacity: 1; stroke-width: 0.5px; fill: rgb(171, 99, 250); fill-opacity: 0.8; stroke: rgb(255, 255, 255); stroke-opacity: 1;"/></g><g class="point"><path d="M334.8,422V275.29H344.4V422Z" style="vector-effect: none; opacity: 1; stroke-width: 0.5px; fill: rgb(171, 99, 250); fill-opacity: 0.8; stroke: rgb(255, 255, 255); stroke-opacity: 1;"/></g></g><g class="errorbar" style="opacity: 1;"><path class="yerror" d="M35.6,240.21h8m-4,0V241.93m-4,0h8" style="vector-effect: none; stroke-width: 2px; stroke: rgb(0, 0, 0); stroke-opacity: 0.7;"/></g><g class="errorbar" style="opacity: 1;"><path class="yerror" d="M95.6,21.1h8m-4,0V173.27m-4,0h8" style="vector-effect: none; stroke-width: 2px; stroke: rgb(0, 0, 0); stroke-opacity: 0.7;"/></g><g class="errorbar" style="opacity: 1;"><path class="yerror" d="M155.6,66.22h8m-4,0V125.29m-4,0h8" style="vector-effect: none; stroke-width: 2px; stroke: rgb(0, 0, 0); stroke-opacity: 0.7;"/></g><g class="errorbar" style="opacity: 1;"><path class="yerror" d="M215.6,221.39h8m-4,0V254.24m-4,0h8" style="vector-effect: none; stroke-width: 2px; stroke: rgb(0, 0, 0); stroke-opacity: 0.7;"/></g><g class="errorbar" style="opacity: 1;"><path class="yerror" d="M275.6,73.85h8m-4,0V95.69m-4,0h8" style="vector-effect: none; stroke-width: 2px; stroke: rgb(0, 0, 0); stroke-opacity: 0.7;"/></g><g class="errorbar" style="opacity: 1;"><path class="yerror" d="M335.6,266.48h8m-4,0V284.1m-4,0h8" style="vector-effect: none; stroke-width: 2px; stroke: rgb(0, 0, 0); stroke-opacity: 0.7;"/></g></g><g class="trace bars" style="opacity: 1;"><g class="points"><g class="point"><path d="M44.4,422V236.09H54V422Z" style="vector-effect: none; opacity: 1; stroke-width: 0.5px; fill: rgb(255, 161, 90); fill-opacity: 0.8; stroke: rgb(255, 255, 255); stroke-opacity: 1;"/></g><g class="point"><path d="M104.4,422V97.19H114V422Z" style="vector-effect: none; opacity: 1; stroke-width: 0.5px; fill: rgb(255, 161, 90); fill-opacity: 0.8; stroke: rgb(255, 255, 255); stroke-opacity: 1;"/></g><g class="point"><path d="M164.4,422V209.29H174V422Z" style="vector-effect: none; opacity: 1; stroke-width: 0.5px; fill: rgb(255, 161, 90); fill-opacity: 0.8; stroke: rgb(255, 255, 255); stroke-opacity: 1;"/></g><g class="point"><path d="M224.4,422V237.68H234V422Z" style="vector-effect: none; opacity: 1; stroke-width: 0.5px; fill: rgb(255, 161, 90); fill-opacity: 0.8; stroke: rgb(255, 255, 255); stroke-opacity: 1;"/></g><g class="point"><path d="M284.4,422V189.06H294V422Z" style="vector-effect: none; opacity: 1; stroke-width: 0.5px; fill: rgb(255, 161, 90); fill-opacity: 0.8; stroke: rgb(255, 255, 255); stroke-opacity: 1;"/></g><g class="point"><path d="M344.4,422V293.35H354V422Z" style="vector-effect: none; opacity: 1; stroke-width: 0.5px; fill: rgb(255, 161, 90); fill-opacity: 0.8; stroke: rgb(255, 255, 255); stroke-opacity: 1;"/></g></g><g class="errorbar" style="opacity: 1;"><path class="yerror" d="M45.2,232.72h8m-4,0V239.47m-4,0h8" style="vector-effect: none; stroke-width: 2px; stroke: rgb(0, 0, 0); stroke-opacity: 0.7;"/></g><g class="errorbar" style="opacity: 1;"><path class="yerror" d="M105.2,97.19h8m-4,0V97.19m-4,0h8" style="vector-effect: none; stroke-width: 2px; stroke: rgb(0, 0, 0); stroke-opacity: 0.7;"/></g><g class="errorbar" style="opacity: 1;"><path class="yerror" d="M165.2,192.67h8m-4,0V225.91m-4,0h8" style="vector-effect: none; stroke-width: 2px; stroke: rgb(0, 0, 0); stroke-opacity: 0.7;"/></g><g class="errorbar" style="opacity: 1;"><path class="yerror" d="M225.2,233.54h8m-4,0V241.81m-4,0h8" style="vector-effect: none; stroke-width: 2px; stroke: rgb(0, 0, 0); stroke-opacity: 0.7;"/></g><g class="errorbar" style="opacity: 1;"><path class="yerror" d="M285.2,159.74h8m-4,0V218.37m-4,0h8" style="vector-effect: none; stroke-width: 2px; stroke: rgb(0, 0, 0); stroke-opacity: 0.7;"/></g><g class="errorbar" style="opacity: 1;"><path class="yerror" d="M345.2,286.82h8m-4,0V299.88m-4,0h8" style="vector-effect: none; stroke-width: 2px; stroke: rgb(0, 0, 0); stroke-opacity: 0.7;"/></g></g></g></g><g class="overplot"/><path class="xlines-above crisp" d="M0,0" style="fill: none;"/><path class="ylines-above crisp" d="M0,0" style="fill: none;"/><g class="overlines-above"/><g class="xaxislayer-above"><g class="xtick"><text text-anchor="start" x="0" y="445" transform="translate(110,0) rotate(30,0,434)" style="font-family: 'Open Sans', verdana, arial, sans-serif; font-size: 22px; fill: rgb(42, 63, 95); fill-opacity: 1; white-space: pre; opacity: 1;">adult</text></g><g class="xtick"><text text-anchor="start" x="0" y="445" transform="translate(170,0) rotate(30,0,434)" style="font-family: 'Open Sans', verdana, arial, sans-serif; font-size: 22px; fill: rgb(42, 63, 95); fill-opacity: 1; white-space: pre; opacity: 1;">anneal</text></g><g class="xtick"><text text-anchor="start" x="0" y="445" transform="translate(230,0) rotate(30,0,434)" style="font-family: 'Open Sans', verdana, arial, sans-serif; font-size: 22px; fill: rgb(42, 63, 95); fill-opacity: 1; white-space: pre; opacity: 1;">australian</text></g><g class="xtick"><text text-anchor="start" x="0" y="445" transform="translate(290,0) rotate(30,0,434)" style="font-family: 'Open Sans', verdana, arial, sans-serif; font-size: 22px; fill: rgb(42, 63, 95); fill-opacity: 1; white-space: pre; opacity: 1;">jasmine</text></g><g class="xtick"><text text-anchor="start" x="0" y="445" transform="translate(350,0) rotate(30,0,434)" style="font-family: 'Open Sans', verdana, arial, sans-serif; font-size: 22px; fill: rgb(42, 63, 95); fill-opacity: 1; white-space: pre; opacity: 1;">sylvine</text></g><g class="xtick"><text text-anchor="start" x="0" y="445" transform="translate(410,0) rotate(30,0,434)" style="font-family: 'Open Sans', verdana, arial, sans-serif; font-size: 22px; fill: rgb(42, 63, 95); fill-opacity: 1; white-space: pre; opacity: 1;">volkert</text></g></g><g class="yaxislayer-above"><g class="ytick"><text text-anchor="end" x="79" y="7.699999999999999" transform="translate(0,422)" style="font-family: 'Open Sans', verdana, arial, sans-serif; font-size: 22px; fill: rgb(42, 63, 95); fill-opacity: 1; white-space: pre; opacity: 1;">0</text></g><g class="ytick"><text text-anchor="end" x="79" y="7.699999999999999" style="font-family: 'Open Sans', verdana, arial, sans-serif; font-size: 22px; fill: rgb(42, 63, 95); fill-opacity: 1; white-space: pre; opacity: 1;" transform="translate(0,349.82)">0.2</text></g><g class="ytick"><text text-anchor="end" x="79" y="7.699999999999999" style="font-family: 'Open Sans', verdana, arial, sans-serif; font-size: 22px; fill: rgb(42, 63, 95); fill-opacity: 1; white-space: pre; opacity: 1;" transform="translate(0,277.64)">0.4</text></g><g class="ytick"><text text-anchor="end" x="79" y="7.699999999999999" style="font-family: 'Open Sans', verdana, arial, sans-serif; font-size: 22px; fill: rgb(42, 63, 95); fill-opacity: 1; white-space: pre; opacity: 1;" transform="translate(0,205.46)">0.6</text></g><g class="ytick"><text text-anchor="end" x="79" y="7.699999999999999" style="font-family: 'Open Sans', verdana, arial, sans-serif; font-size: 22px; fill: rgb(42, 63, 95); fill-opacity: 1; white-space: pre; opacity: 1;" transform="translate(0,133.28)">0.8</text></g><g class="ytick"><text text-anchor="end" x="79" y="7.699999999999999" style="font-family: 'Open Sans', verdana, arial, sans-serif; font-size: 22px; fill: rgb(42, 63, 95); fill-opacity: 1; white-space: pre; opacity: 1;" transform="translate(0,61.09)">1</text></g></g><g class="overaxes-above"/></g></g><g class="polarlayer"/><g class="smithlayer"/><g class="ternarylayer"/><g class="geolayer"/><g class="funnelarealayer"/><g class="pielayer"/><g class="iciclelayer"/><g class="treemaplayer"/><g class="sunburstlayer"/><g class="glimages"/><defs id="topdefs-75654f"><g class="clips"/><clipPath id="legend75654f"><rect width="253" height="200" x="0" y="0"/></clipPath></defs><g class="layer-above"><g class="imagelayer"/><g class="shapelayer"><g class="shape-group" data-index="0" clip-path="url(#clip75654fxy)"><path data-index="0" fill-rule="evenodd" d="M83,167.76L137,167.76" style="opacity: 1; stroke: rgb(254, 203, 82); stroke-opacity: 0.8; fill: rgb(0, 0, 0); fill-opacity: 0; stroke-dasharray: 3px, 3px; stroke-width: 2.5px;"/></g><g class="shape-group" data-index="1" clip-path="url(#clip75654fxy)"><path data-index="1" fill-rule="evenodd" d="M143,97.19L197,97.19" style="opacity: 1; stroke: rgb(254, 203, 82); stroke-opacity: 0.8; fill: rgb(0, 0, 0); fill-opacity: 0; stroke-dasharray: 3px, 3px; stroke-width: 2.5px;"/></g><g class="shape-group" data-index="2" clip-path="url(#clip75654fxy)"><path data-index="2" fill-rule="evenodd" d="M203,111.25L257,111.25" style="opacity: 1; stroke: rgb(254, 203, 82); stroke-opacity: 0.8; fill: rgb(0, 0, 0); fill-opacity: 0; stroke-dasharray: 3px, 3px; stroke-width: 2.5px;"/></g><g class="shape-group" data-index="3" clip-path="url(#clip75654fxy)"><path data-index="3" fill-rule="evenodd" d="M263,232.91L317,232.91" style="opacity: 1; stroke: rgb(254, 203, 82); stroke-opacity: 0.8; fill: rgb(0, 0, 0); fill-opacity: 0; stroke-dasharray: 3px, 3px; stroke-width: 2.5px;"/></g><g class="shape-group" data-index="4" clip-path="url(#clip75654fxy)"><path data-index="4" fill-rule="evenodd" d="M323,111.74L377,111.74" style="opacity: 1; stroke: rgb(254, 203, 82); stroke-opacity: 0.8; fill: rgb(0, 0, 0); fill-opacity: 0; stroke-dasharray: 3px, 3px; stroke-width: 2.5px;"/></g><g class="shape-group" data-index="5" clip-path="url(#clip75654fxy)"><path data-index="5" fill-rule="evenodd" d="M383,225.45L437,225.45" style="opacity: 1; stroke: rgb(254, 203, 82); stroke-opacity: 0.8; fill: rgb(0, 0, 0); fill-opacity: 0; stroke-dasharray: 3px, 3px; stroke-width: 2.5px;"/></g></g></g><g class="infolayer"><g class="legend" pointer-events="all" transform="translate(447,0)"><rect class="bg" shape-rendering="crispEdges" width="253" height="200" x="0" y="0" style="stroke: rgb(68, 68, 68); stroke-opacity: 1; fill: rgb(255, 255, 255); fill-opacity: 1; stroke-width: 0px;"/><g class="scrollbox" transform="" clip-path="url(#legend75654f)"><g class="groups"><g class="traces" transform="translate(0,20.8)" style="opacity: 1;"><text class="legendtext" text-anchor="start" x="40" y="8.58" style="font-family: 'Open Sans', verdana, arial, sans-serif; font-size: 22px; fill: rgb(42, 63, 95); fill-opacity: 1; white-space: pre;">Attention</text><g class="layers" style="opacity: 1;"><g class="legendfill"/><g class="legendlines"/><g class="legendsymbols"><g class="legendpoints"><path class="legendundefined" d="M6,6H-6V-6H6Z" transform="translate(20,0)" style="stroke-width: 0.5px; fill: rgb(99, 110, 250); fill-opacity: 0.8; stroke: rgb(255, 255, 255); stroke-opacity: 1;"/></g></g></g><rect class="legendtoggle" x="0" y="-15.8" width="247.28125" height="31.6" style="fill: rgb(0, 0, 0); fill-opacity: 0;"/></g><g class="traces" transform="translate(0,52.400000000000006)" style="opacity: 1;"><text class="legendtext" text-anchor="start" x="40" y="8.58" style="font-family: 'Open Sans', verdana, arial, sans-serif; font-size: 22px; fill: rgb(42, 63, 95); fill-opacity: 1; white-space: pre;">Decision tree</text><g class="layers" style="opacity: 1;"><g class="legendfill"/><g class="legendlines"/><g class="legendsymbols"><g class="legendpoints"><path class="legendundefined" d="M6,6H-6V-6H6Z" transform="translate(20,0)" style="stroke-width: 0.5px; fill: rgb(239, 85, 59); fill-opacity: 0.8; stroke: rgb(255, 255, 255); stroke-opacity: 1;"/></g></g></g><rect class="legendtoggle" x="0" y="-15.8" width="247.28125" height="31.6" style="fill: rgb(0, 0, 0); fill-opacity: 0;"/></g><g class="traces" transform="translate(0,84)" style="opacity: 1;"><text class="legendtext" text-anchor="start" x="40" y="8.58" style="font-family: 'Open Sans', verdana, arial, sans-serif; font-size: 22px; fill: rgb(42, 63, 95); fill-opacity: 1; white-space: pre;">F test</text><g class="layers" style="opacity: 1;"><g class="legendfill"/><g class="legendlines"/><g class="legendsymbols"><g class="legendpoints"><path class="legendundefined" d="M6,6H-6V-6H6Z" transform="translate(20,0)" style="stroke-width: 0.5px; fill: rgb(0, 204, 150); fill-opacity: 0.8; stroke: rgb(255, 255, 255); stroke-opacity: 1;"/></g></g></g><rect class="legendtoggle" x="0" y="-15.8" width="247.28125" height="31.6" style="fill: rgb(0, 0, 0); fill-opacity: 0;"/></g><g class="traces" transform="translate(0,115.60000000000001)" style="opacity: 1;"><text class="legendtext" text-anchor="start" x="40" y="8.58" style="font-family: 'Open Sans', verdana, arial, sans-serif; font-size: 22px; fill: rgb(42, 63, 95); fill-opacity: 1; white-space: pre;">Linear model</text><g class="layers" style="opacity: 1;"><g class="legendfill"/><g class="legendlines"/><g class="legendsymbols"><g class="legendpoints"><path class="legendundefined" d="M6,6H-6V-6H6Z" transform="translate(20,0)" style="stroke-width: 0.5px; fill: rgb(171, 99, 250); fill-opacity: 0.8; stroke: rgb(255, 255, 255); stroke-opacity: 1;"/></g></g></g><rect class="legendtoggle" x="0" y="-15.8" width="247.28125" height="31.6" style="fill: rgb(0, 0, 0); fill-opacity: 0;"/></g><g class="traces" transform="translate(0,147.20000000000002)" style="opacity: 1;"><text class="legendtext" text-anchor="start" x="40" y="8.58" style="font-family: 'Open Sans', verdana, arial, sans-serif; font-size: 22px; fill: rgb(42, 63, 95); fill-opacity: 1; white-space: pre;">Random</text><g class="layers" style="opacity: 1;"><g class="legendfill"/><g class="legendlines"/><g class="legendsymbols"><g class="legendpoints"><path class="legendundefined" d="M6,6H-6V-6H6Z" transform="translate(20,0)" style="stroke-width: 0.5px; fill: rgb(255, 161, 90); fill-opacity: 0.8; stroke: rgb(255, 255, 255); stroke-opacity: 1;"/></g></g></g><rect class="legendtoggle" x="0" y="-15.8" width="247.28125" height="31.6" style="fill: rgb(0, 0, 0); fill-opacity: 0;"/></g><g class="traces" transform="translate(0,178.8)" style="opacity: 1;"><text class="legendtext" text-anchor="start" x="40" y="8.58" style="font-family: 'Open Sans', verdana, arial, sans-serif; font-size: 22px; fill: rgb(42, 63, 95); fill-opacity: 1; white-space: pre;">No feature selection</text><g class="layers" style="opacity: 1;"><g class="legendfill"/><g class="legendlines"><path class="js-line" d="M5,0h30" style="fill: none; stroke: rgb(254, 203, 82); stroke-opacity: 0.8; stroke-dasharray: 3px, 3px; stroke-width: 2.5px;"/></g><g class="legendsymbols"><g class="legendpoints"/></g></g><rect class="legendtoggle" x="0" y="-15.8" width="247.28125" height="31.6" style="fill: rgb(0, 0, 0); fill-opacity: 0;"/></g></g></g><rect class="scrollbar" rx="20" ry="3" width="0" height="0" x="0" y="0" style="fill: rgb(128, 139, 164); fill-opacity: 1;"/></g><g class="g-gtitle"/><g class="g-xtitle"/><g class="g-ytitle" transform="translate(12.7158203125,0)"><text class="ytitle" transform="rotate(-90,15.284374999999997,211)" x="15.284374999999997" y="211" text-anchor="middle" style="font-family: 'Open Sans', verdana, arial, sans-serif; font-size: 26px; fill: rgb(42, 63, 95); opacity: 1; font-weight: normal; white-space: pre;">Balanced accuracy</text></g></g></svg>