<svg class="main-svg" xmlns="http://www.w3.org/2000/svg" xmlns:xlink="http://www.w3.org/1999/xlink" width="1750" height="1250" style="" viewBox="0 0 700 500"><rect x="0" y="0" width="700" height="500" style="fill: rgb(255, 255, 255); fill-opacity: 1;"/><defs id="defs-f08e17"><g class="clips"><clipPath id="clipf08e17xyplot" class="plotclip"><rect width="360" height="371"/></clipPath><clipPath class="axesclip" id="clipf08e17x"><rect x="80" y="0" width="360" height="500"/></clipPath><clipPath class="axesclip" id="clipf08e17y"><rect x="0" y="15" width="700" height="371"/></clipPath><clipPath class="axesclip" id="clipf08e17xy"><rect x="80" y="15" width="360" height="371"/></clipPath></g><g class="gradients"/><g class="patterns"/></defs><g class="bglayer"/><g class="layer-below"><g class="imagelayer"/><g class="shapelayer"/></g><g class="cartesianlayer"><g class="subplot xy"><g class="layer-subplot"><g class="shapelayer"/><g class="imagelayer"/></g><g class="minor-gridlayer"><g class="x"/><g class="y"/></g><g class="gridlayer"><g class="x"/><g class="y"><path class="ygrid crisp" transform="translate(0,311.95)" d="M80,0h360" style="stroke: rgb(235, 240, 248); stroke-opacity: 1; stroke-width: 1px;"/><path class="ygrid crisp" transform="translate(0,237.91)" d="M80,0h360" style="stroke: rgb(235, 240, 248); stroke-opacity: 1; stroke-width: 1px;"/><path class="ygrid crisp" transform="translate(0,163.86)" d="M80,0h360" style="stroke: rgb(235, 240, 248); stroke-opacity: 1; stroke-width: 1px;"/><path class="ygrid crisp" transform="translate(0,89.82)" d="M80,0h360" style="stroke: rgb(235, 240, 248); stroke-opacity: 1; stroke-width: 1px;"/></g></g><g class="zerolinelayer"><path class="yzl zl crisp" transform="translate(0,386)" d="M80,0h360" style="stroke: rgb(235, 240, 248); stroke-opacity: 1; stroke-width: 2px;"/></g><path class="xlines-below"/><path class="ylines-below"/><g class="overlines-below"/><g class="xaxislayer-below"/><g class="yaxislayer-below"/><g class="overaxes-below"/><g class="plot" transform="translate(80,15)" clip-path="url(#clipf08e17xyplot)"><g class="barlayer mlayer"><g class="trace bars" style="opacity: 1;"><g class="points"><g class="point"><path d="M5.14,371V185.88H13.37V371Z" style="vector-effect: none; opacity: 1; stroke-width: 0.5px; fill: rgb(99, 110, 250); fill-opacity: 0.8; stroke: rgb(255, 255, 255); stroke-opacity: 1;"/></g><g class="point"><path d="M56.57,371V253.95H64.8V371Z" style="vector-effect: none; opacity: 1; stroke-width: 0.5px; fill: rgb(99, 110, 250); fill-opacity: 0.8; stroke: rgb(255, 255, 255); stroke-opacity: 1;"/></g><g class="point"><path d="M108,371V132.75H116.23V371Z" style="vector-effect: none; opacity: 1; stroke-width: 0.5px; fill: rgb(99, 110, 250); fill-opacity: 0.8; stroke: rgb(255, 255, 255); stroke-opacity: 1;"/></g><g class="point"><path d="M159.43,371V100.53H167.66V371Z" style="vector-effect: none; opacity: 1; stroke-width: 0.5px; fill: rgb(99, 110, 250); fill-opacity: 0.8; stroke: rgb(255, 255, 255); stroke-opacity: 1;"/></g><g class="point"><path d="M210.86,371V37.39H219.09V371Z" style="vector-effect: none; opacity: 1; stroke-width: 0.5px; fill: rgb(99, 110, 250); fill-opacity: 0.8; stroke: rgb(255, 255, 255); stroke-opacity: 1;"/></g><g class="point"><path d="M262.29,371V29.96H270.51V371Z" style="vector-effect: none; opacity: 1; stroke-width: 0.5px; fill: rgb(99, 110, 250); fill-opacity: 0.8; stroke: rgb(255, 255, 255); stroke-opacity: 1;"/></g><g class="point"><path d="M313.71,371V189.04H321.94V371Z" style="vector-effect: none; opacity: 1; stroke-width: 0.5px; fill: rgb(99, 110, 250); fill-opacity: 0.8; stroke: rgb(255, 255, 255); stroke-opacity: 1;"/></g></g><g class="errorbar" style="opacity: 1;"><path class="yerror" d="M5.26,185.88h8m-4,0V185.88m-4,0h8" style="vector-effect: none; stroke-width: 2px; stroke: rgb(0, 0, 0); stroke-opacity: 0.7;"/></g><g class="errorbar" style="opacity: 1;"><path class="yerror" d="M56.69,217.95h8m-4,0V289.95m-4,0h8" style="vector-effect: none; stroke-width: 2px; stroke: rgb(0, 0, 0); stroke-opacity: 0.7;"/></g><g class="errorbar" style="opacity: 1;"><path class="yerror" d="M108.11,111.19h8m-4,0V154.31m-4,0h8" style="vector-effect: none; stroke-width: 2px; stroke: rgb(0, 0, 0); stroke-opacity: 0.7;"/></g><g class="errorbar" style="opacity: 1;"><path class="yerror" d="M159.54,90.14h8m-4,0V110.91m-4,0h8" style="vector-effect: none; stroke-width: 2px; stroke: rgb(0, 0, 0); stroke-opacity: 0.7;"/></g><g class="errorbar" style="opacity: 1;"><path class="yerror" d="M210.97,33.43h8m-4,0V41.34m-4,0h8" style="vector-effect: none; stroke-width: 2px; stroke: rgb(0, 0, 0); stroke-opacity: 0.7;"/></g><g class="errorbar" style="opacity: 1;"><path class="yerror" d="M262.4,24.35h8m-4,0V35.57m-4,0h8" style="vector-effect: none; stroke-width: 2px; stroke: rgb(0, 0, 0); stroke-opacity: 0.7;"/></g><g class="errorbar" style="opacity: 1;"><path class="yerror" d="M313.83,186.54h8m-4,0V191.53m-4,0h8" style="vector-effect: none; stroke-width: 2px; stroke: rgb(0, 0, 0); stroke-opacity: 0.7;"/></g></g><g class="trace bars" style="opacity: 1;"><g class="points"><g class="point"><path d="M13.37,371V185.88H21.6V371Z" style="vector-effect: none; opacity: 1; stroke-width: 0.5px; fill: rgb(239, 85, 59); fill-opacity: 0.8; stroke: rgb(255, 255, 255); stroke-opacity: 1;"/></g><g class="point"><path d="M64.8,371V129.53H73.03V371Z" style="vector-effect: none; opacity: 1; stroke-width: 0.5px; fill: rgb(239, 85, 59); fill-opacity: 0.8; stroke: rgb(255, 255, 255); stroke-opacity: 1;"/></g><g class="point"><path d="M116.23,371V51.83H124.46V371Z" style="vector-effect: none; opacity: 1; stroke-width: 0.5px; fill: rgb(239, 85, 59); fill-opacity: 0.8; stroke: rgb(255, 255, 255); stroke-opacity: 1;"/></g><g class="point"><path d="M167.66,371V73.11H175.89V371Z" style="vector-effect: none; opacity: 1; stroke-width: 0.5px; fill: rgb(239, 85, 59); fill-opacity: 0.8; stroke: rgb(255, 255, 255); stroke-opacity: 1;"/></g><g class="point"><path d="M219.09,371V37.39H227.31V371Z" style="vector-effect: none; opacity: 1; stroke-width: 0.5px; fill: rgb(239, 85, 59); fill-opacity: 0.8; stroke: rgb(255, 255, 255); stroke-opacity: 1;"/></g><g class="point"><path d="M270.51,371V29.96H278.74V371Z" style="vector-effect: none; opacity: 1; stroke-width: 0.5px; fill: rgb(239, 85, 59); fill-opacity: 0.8; stroke: rgb(255, 255, 255); stroke-opacity: 1;"/></g><g class="point"><path d="M321.94,371V173.67H330.17V371Z" style="vector-effect: none; opacity: 1; stroke-width: 0.5px; fill: rgb(239, 85, 59); fill-opacity: 0.8; stroke: rgb(255, 255, 255); stroke-opacity: 1;"/></g></g><g class="errorbar" style="opacity: 1;"><path class="yerror" d="M13.489999999999998,185.88h8m-4,0V185.88m-4,0h8" style="vector-effect: none; stroke-width: 2px; stroke: rgb(0, 0, 0); stroke-opacity: 0.7;"/></g><g class="errorbar" style="opacity: 1;"><path class="yerror" d="M64.91,97.16h8m-4,0V161.89m-4,0h8" style="vector-effect: none; stroke-width: 2px; stroke: rgb(0, 0, 0); stroke-opacity: 0.7;"/></g><g class="errorbar" style="opacity: 1;"><path class="yerror" d="M116.34,37.71h8m-4,0V65.95m-4,0h8" style="vector-effect: none; stroke-width: 2px; stroke: rgb(0, 0, 0); stroke-opacity: 0.7;"/></g><g class="errorbar" style="opacity: 1;"><path class="yerror" d="M167.77,65.73h8m-4,0V80.48m-4,0h8" style="vector-effect: none; stroke-width: 2px; stroke: rgb(0, 0, 0); stroke-opacity: 0.7;"/></g><g class="errorbar" style="opacity: 1;"><path class="yerror" d="M219.2,33.43h8m-4,0V41.34m-4,0h8" style="vector-effect: none; stroke-width: 2px; stroke: rgb(0, 0, 0); stroke-opacity: 0.7;"/></g><g class="errorbar" style="opacity: 1;"><path class="yerror" d="M270.63,24.35h8m-4,0V35.57m-4,0h8" style="vector-effect: none; stroke-width: 2px; stroke: rgb(0, 0, 0); stroke-opacity: 0.7;"/></g><g class="errorbar" style="opacity: 1;"><path class="yerror" d="M322.06,168.94h8m-4,0V178.39m-4,0h8" style="vector-effect: none; stroke-width: 2px; stroke: rgb(0, 0, 0); stroke-opacity: 0.7;"/></g></g><g class="trace bars" style="opacity: 1;"><g class="points"><g class="point"><path d="M21.6,371V185.88H29.83V371Z" style="vector-effect: none; opacity: 1; stroke-width: 0.5px; fill: rgb(0, 204, 150); fill-opacity: 0.8; stroke: rgb(255, 255, 255); stroke-opacity: 1;"/></g><g class="point"><path d="M73.03,371V171.4H81.26V371Z" style="vector-effect: none; opacity: 1; stroke-width: 0.5px; fill: rgb(0, 204, 150); fill-opacity: 0.8; stroke: rgb(255, 255, 255); stroke-opacity: 1;"/></g><g class="point"><path d="M124.46,371V51.83H132.69V371Z" style="vector-effect: none; opacity: 1; stroke-width: 0.5px; fill: rgb(0, 204, 150); fill-opacity: 0.8; stroke: rgb(255, 255, 255); stroke-opacity: 1;"/></g><g class="point"><path d="M175.89,371V77.56H184.11V371Z" style="vector-effect: none; opacity: 1; stroke-width: 0.5px; fill: rgb(0, 204, 150); fill-opacity: 0.8; stroke: rgb(255, 255, 255); stroke-opacity: 1;"/></g><g class="point"><path d="M227.31,371V37.39H235.54V371Z" style="vector-effect: none; opacity: 1; stroke-width: 0.5px; fill: rgb(0, 204, 150); fill-opacity: 0.8; stroke: rgb(255, 255, 255); stroke-opacity: 1;"/></g><g class="point"><path d="M278.74,371V32.85H286.97V371Z" style="vector-effect: none; opacity: 1; stroke-width: 0.5px; fill: rgb(0, 204, 150); fill-opacity: 0.8; stroke: rgb(255, 255, 255); stroke-opacity: 1;"/></g><g class="point"><path d="M330.17,371V231.82H338.4V371Z" style="vector-effect: none; opacity: 1; stroke-width: 0.5px; fill: rgb(0, 204, 150); fill-opacity: 0.8; stroke: rgb(255, 255, 255); stroke-opacity: 1;"/></g></g><g class="errorbar" style="opacity: 1;"><path class="yerror" d="M21.71,185.88h8m-4,0V185.88m-4,0h8" style="vector-effect: none; stroke-width: 2px; stroke: rgb(0, 0, 0); stroke-opacity: 0.7;"/></g><g class="errorbar" style="opacity: 1;"><path class="yerror" d="M73.14,119.98h8m-4,0V222.81m-4,0h8" style="vector-effect: none; stroke-width: 2px; stroke: rgb(0, 0, 0); stroke-opacity: 0.7;"/></g><g class="errorbar" style="opacity: 1;"><path class="yerror" d="M124.57,37.71h8m-4,0V65.95m-4,0h8" style="vector-effect: none; stroke-width: 2px; stroke: rgb(0, 0, 0); stroke-opacity: 0.7;"/></g><g class="errorbar" style="opacity: 1;"><path class="yerror" d="M176,66.97h8m-4,0V88.16m-4,0h8" style="vector-effect: none; stroke-width: 2px; stroke: rgb(0, 0, 0); stroke-opacity: 0.7;"/></g><g class="errorbar" style="opacity: 1;"><path class="yerror" d="M227.43,33.43h8m-4,0V41.34m-4,0h8" style="vector-effect: none; stroke-width: 2px; stroke: rgb(0, 0, 0); stroke-opacity: 0.7;"/></g><g class="errorbar" style="opacity: 1;"><path class="yerror" d="M278.86,25.65h8m-4,0V40.05m-4,0h8" style="vector-effect: none; stroke-width: 2px; stroke: rgb(0, 0, 0); stroke-opacity: 0.7;"/></g><g class="errorbar" style="opacity: 1;"><path class="yerror" d="M330.29,229.5h8m-4,0V234.14m-4,0h8" style="vector-effect: none; stroke-width: 2px; stroke: rgb(0, 0, 0); stroke-opacity: 0.7;"/></g></g><g class="trace bars" style="opacity: 1;"><g class="points"><g class="point"><path d="M29.83,371V151.99H38.06V371Z" style="vector-effect: none; opacity: 1; stroke-width: 0.5px; fill: rgb(171, 99, 250); fill-opacity: 0.8; stroke: rgb(255, 255, 255); stroke-opacity: 1;"/></g><g class="point"><path d="M81.26,371V135.95H89.49V371Z" style="vector-effect: none; opacity: 1; stroke-width: 0.5px; fill: rgb(171, 99, 250); fill-opacity: 0.8; stroke: rgb(255, 255, 255); stroke-opacity: 1;"/></g><g class="point"><path d="M132.69,371V78.98H140.91V371Z" style="vector-effect: none; opacity: 1; stroke-width: 0.5px; fill: rgb(171, 99, 250); fill-opacity: 0.8; stroke: rgb(255, 255, 255); stroke-opacity: 1;"/></g><g class="point"><path d="M184.11,371V76.44H192.34V371Z" style="vector-effect: none; opacity: 1; stroke-width: 0.5px; fill: rgb(171, 99, 250); fill-opacity: 0.8; stroke: rgb(255, 255, 255); stroke-opacity: 1;"/></g><g class="point"><path d="M235.54,371V37.39H243.77V371Z" style="vector-effect: none; opacity: 1; stroke-width: 0.5px; fill: rgb(171, 99, 250); fill-opacity: 0.8; stroke: rgb(255, 255, 255); stroke-opacity: 1;"/></g><g class="point"><path d="M286.97,371V32.49H295.2V371Z" style="vector-effect: none; opacity: 1; stroke-width: 0.5px; fill: rgb(171, 99, 250); fill-opacity: 0.8; stroke: rgb(255, 255, 255); stroke-opacity: 1;"/></g><g class="point"><path d="M338.4,371V227.52H346.63V371Z" style="vector-effect: none; opacity: 1; stroke-width: 0.5px; fill: rgb(171, 99, 250); fill-opacity: 0.8; stroke: rgb(255, 255, 255); stroke-opacity: 1;"/></g></g><g class="errorbar" style="opacity: 1;"><path class="yerror" d="M29.939999999999998,150.42h8m-4,0V153.56m-4,0h8" style="vector-effect: none; stroke-width: 2px; stroke: rgb(0, 0, 0); stroke-opacity: 0.7;"/></g><g class="errorbar" style="opacity: 1;"><path class="yerror" d="M81.37,89.33h8m-4,0V182.57m-4,0h8" style="vector-effect: none; stroke-width: 2px; stroke: rgb(0, 0, 0); stroke-opacity: 0.7;"/></g><g class="errorbar" style="opacity: 1;"><path class="yerror" d="M132.8,18.55h8m-4,0V139.42m-4,0h8" style="vector-effect: none; stroke-width: 2px; stroke: rgb(0, 0, 0); stroke-opacity: 0.7;"/></g><g class="errorbar" style="opacity: 1;"><path class="yerror" d="M184.23,66.35h8m-4,0V86.52m-4,0h8" style="vector-effect: none; stroke-width: 2px; stroke: rgb(0, 0, 0); stroke-opacity: 0.7;"/></g><g class="errorbar" style="opacity: 1;"><path class="yerror" d="M235.66,33.43h8m-4,0V41.34m-4,0h8" style="vector-effect: none; stroke-width: 2px; stroke: rgb(0, 0, 0); stroke-opacity: 0.7;"/></g><g class="errorbar" style="opacity: 1;"><path class="yerror" d="M287.09,25.77h8m-4,0V39.21m-4,0h8" style="vector-effect: none; stroke-width: 2px; stroke: rgb(0, 0, 0); stroke-opacity: 0.7;"/></g><g class="errorbar" style="opacity: 1;"><path class="yerror" d="M338.51,225.05h8m-4,0V229.99m-4,0h8" style="vector-effect: none; stroke-width: 2px; stroke: rgb(0, 0, 0); stroke-opacity: 0.7;"/></g></g><g class="trace bars" style="opacity: 1;"><g class="points"><g class="point"><path d="M38.06,371V177.95H46.29V371Z" style="vector-effect: none; opacity: 1; stroke-width: 0.5px; fill: rgb(255, 161, 90); fill-opacity: 0.8; stroke: rgb(255, 255, 255); stroke-opacity: 1;"/></g><g class="point"><path d="M89.49,371V261.53H97.71V371Z" style="vector-effect: none; opacity: 1; stroke-width: 0.5px; fill: rgb(255, 161, 90); fill-opacity: 0.8; stroke: rgb(255, 255, 255); stroke-opacity: 1;"/></g><g class="point"><path d="M140.91,371V148.12H149.14V371Z" style="vector-effect: none; opacity: 1; stroke-width: 0.5px; fill: rgb(255, 161, 90); fill-opacity: 0.8; stroke: rgb(255, 255, 255); stroke-opacity: 1;"/></g><g class="point"><path d="M192.34,371V101.41H200.57V371Z" style="vector-effect: none; opacity: 1; stroke-width: 0.5px; fill: rgb(255, 161, 90); fill-opacity: 0.8; stroke: rgb(255, 255, 255); stroke-opacity: 1;"/></g><g class="point"><path d="M243.77,371V151.6H252V371Z" style="vector-effect: none; opacity: 1; stroke-width: 0.5px; fill: rgb(255, 161, 90); fill-opacity: 0.8; stroke: rgb(255, 255, 255); stroke-opacity: 1;"/></g><g class="point"><path d="M295.2,371V148.26H303.43V371Z" style="vector-effect: none; opacity: 1; stroke-width: 0.5px; fill: rgb(255, 161, 90); fill-opacity: 0.8; stroke: rgb(255, 255, 255); stroke-opacity: 1;"/></g><g class="point"><path d="M346.63,371V219.51H354.86V371Z" style="vector-effect: none; opacity: 1; stroke-width: 0.5px; fill: rgb(255, 161, 90); fill-opacity: 0.8; stroke: rgb(255, 255, 255); stroke-opacity: 1;"/></g></g><g class="errorbar" style="opacity: 1;"><path class="yerror" d="M38.17,173.31h8m-4,0V182.58m-4,0h8" style="vector-effect: none; stroke-width: 2px; stroke: rgb(0, 0, 0); stroke-opacity: 0.7;"/></g><g class="errorbar" style="opacity: 1;"><path class="yerror" d="M89.6,249.98h8m-4,0V273.08m-4,0h8" style="vector-effect: none; stroke-width: 2px; stroke: rgb(0, 0, 0); stroke-opacity: 0.7;"/></g><g class="errorbar" style="opacity: 1;"><path class="yerror" d="M141.03,137.49h8m-4,0V158.75m-4,0h8" style="vector-effect: none; stroke-width: 2px; stroke: rgb(0, 0, 0); stroke-opacity: 0.7;"/></g><g class="errorbar" style="opacity: 1;"><path class="yerror" d="M192.46,94.83h8m-4,0V107.99m-4,0h8" style="vector-effect: none; stroke-width: 2px; stroke: rgb(0, 0, 0); stroke-opacity: 0.7;"/></g><g class="errorbar" style="opacity: 1;"><path class="yerror" d="M243.89,144.24h8m-4,0V158.96m-4,0h8" style="vector-effect: none; stroke-width: 2px; stroke: rgb(0, 0, 0); stroke-opacity: 0.7;"/></g><g class="errorbar" style="opacity: 1;"><path class="yerror" d="M295.31,136.23h8m-4,0V160.28m-4,0h8" style="vector-effect: none; stroke-width: 2px; stroke: rgb(0, 0, 0); stroke-opacity: 0.7;"/></g><g class="errorbar" style="opacity: 1;"><path class="yerror" d="M346.74,216.65h8m-4,0V222.36m-4,0h8" style="vector-effect: none; stroke-width: 2px; stroke: rgb(0, 0, 0); stroke-opacity: 0.7;"/></g></g></g></g><g class="overplot"/><path class="xlines-above crisp" d="M0,0" style="fill: none;"/><path class="ylines-above crisp" d="M0,0" style="fill: none;"/><g class="overlines-above"/><g class="xaxislayer-above"><g class="xtick"><text text-anchor="start" x="0" y="409" transform="translate(105.71000000000001,0) rotate(90,0,398)" style="font-family: 'Open Sans', verdana, arial, sans-serif; font-size: 22px; fill: rgb(42, 63, 95); fill-opacity: 1; white-space: pre; opacity: 1;">adult</text></g><g class="xtick"><text text-anchor="start" x="0" y="409" transform="translate(157.14,0) rotate(90,0,398)" style="font-family: 'Open Sans', verdana, arial, sans-serif; font-size: 22px; fill: rgb(42, 63, 95); fill-opacity: 1; white-space: pre; opacity: 1;">anneal</text></g><g class="xtick"><text text-anchor="start" x="0" y="409" transform="translate(208.57,0) rotate(90,0,398)" style="font-family: 'Open Sans', verdana, arial, sans-serif; font-size: 22px; fill: rgb(42, 63, 95); fill-opacity: 1; white-space: pre; opacity: 1;">australian</text></g><g class="xtick"><text text-anchor="start" x="0" y="409" transform="translate(260,0) rotate(90,0,398)" style="font-family: 'Open Sans', verdana, arial, sans-serif; font-size: 22px; fill: rgb(42, 63, 95); fill-opacity: 1; white-space: pre; opacity: 1;">jasmine</text></g><g class="xtick"><text text-anchor="start" x="0" y="409" transform="translate(311.43,0) rotate(90,0,398)" style="font-family: 'Open Sans', verdana, arial, sans-serif; font-size: 22px; fill: rgb(42, 63, 95); fill-opacity: 1; white-space: pre; opacity: 1;">kr-vs-kp</text></g><g class="xtick"><text text-anchor="start" x="0" y="409" transform="translate(362.86,0) rotate(90,0,398)" style="font-family: 'Open Sans', verdana, arial, sans-serif; font-size: 22px; fill: rgb(42, 63, 95); fill-opacity: 1; white-space: pre; opacity: 1;">sylvine</text></g><g class="xtick"><text text-anchor="start" x="0" y="409" transform="translate(414.29,0) rotate(90,0,398)" style="font-family: 'Open Sans', verdana, arial, sans-serif; font-size: 22px; fill: rgb(42, 63, 95); fill-opacity: 1; white-space: pre; opacity: 1;">volkert</text></g></g><g class="yaxislayer-above"><g class="ytick"><text text-anchor="end" x="79" y="7.699999999999999" transform="translate(0,386)" style="font-family: 'Open Sans', verdana, arial, sans-serif; font-size: 22px; fill: rgb(42, 63, 95); fill-opacity: 1; white-space: pre; opacity: 1;">0</text></g><g class="ytick"><text text-anchor="end" x="79" y="7.699999999999999" style="font-family: 'Open Sans', verdana, arial, sans-serif; font-size: 22px; fill: rgb(42, 63, 95); fill-opacity: 1; white-space: pre; opacity: 1;" transform="translate(0,311.95)">0.2</text></g><g class="ytick"><text text-anchor="end" x="79" y="7.699999999999999" style="font-family: 'Open Sans', verdana, arial, sans-serif; font-size: 22px; fill: rgb(42, 63, 95); fill-opacity: 1; white-space: pre; opacity: 1;" transform="translate(0,237.91)">0.4</text></g><g class="ytick"><text text-anchor="end" x="79" y="7.699999999999999" style="font-family: 'Open Sans', verdana, arial, sans-serif; font-size: 22px; fill: rgb(42, 63, 95); fill-opacity: 1; white-space: pre; opacity: 1;" transform="translate(0,163.86)">0.6</text></g><g class="ytick"><text text-anchor="end" x="79" y="7.699999999999999" style="font-family: 'Open Sans', verdana, arial, sans-serif; font-size: 22px; fill: rgb(42, 63, 95); fill-opacity: 1; white-space: pre; opacity: 1;" transform="translate(0,89.82)">0.8</text></g><g class="ytick"><text text-anchor="end" x="79" y="7.699999999999999" style="font-family: 'Open Sans', verdana, arial, sans-serif; font-size: 22px; fill: rgb(42, 63, 95); fill-opacity: 1; white-space: pre; opacity: 0;" transform="translate(0,15.77)">1</text></g></g><g class="overaxes-above"/></g></g><g class="polarlayer"/><g class="smithlayer"/><g class="ternarylayer"/><g class="geolayer"/><g class="funnelarealayer"/><g class="pielayer"/><g class="iciclelayer"/><g class="treemaplayer"/><g class="sunburstlayer"/><g class="glimages"/><defs id="topdefs-f08e17"><g class="clips"/><clipPath id="legendf08e17"><rect width="253" height="200" x="0" y="0"/></clipPath></defs><g class="layer-above"><g class="imagelayer"/><g class="shapelayer"><g class="shape-group" data-index="0" clip-path="url(#clipf08e17xy)"><path data-index="0" fill-rule="evenodd" d="M82.57,98.02L128.86,98.02" style="opacity: 1; stroke: rgb(254, 203, 82); stroke-opacity: 0.8; fill: rgb(0, 0, 0); fill-opacity: 0; stroke-dasharray: 3px, 3px; stroke-width: 2.5px;"/></g><g class="shape-group" data-index="1" clip-path="url(#clipf08e17xy)"><path data-index="1" fill-rule="evenodd" d="M134,35.59L180.29000000000002,35.59" style="opacity: 1; stroke: rgb(254, 203, 82); stroke-opacity: 0.8; fill: rgb(0, 0, 0); fill-opacity: 0; stroke-dasharray: 3px, 3px; stroke-width: 2.5px;"/></g><g class="shape-group" data-index="2" clip-path="url(#clipf08e17xy)"><path data-index="2" fill-rule="evenodd" d="M185.43,71L231.71,71" style="opacity: 1; stroke: rgb(254, 203, 82); stroke-opacity: 0.8; fill: rgb(0, 0, 0); fill-opacity: 0; stroke-dasharray: 3px, 3px; stroke-width: 2.5px;"/></g><g class="shape-group" data-index="3" clip-path="url(#clipf08e17xy)"><path data-index="3" fill-rule="evenodd" d="M236.86,97.15L283.14,97.15" style="opacity: 1; stroke: rgb(254, 203, 82); stroke-opacity: 0.8; fill: rgb(0, 0, 0); fill-opacity: 0; stroke-dasharray: 3px, 3px; stroke-width: 2.5px;"/></g><g class="shape-group" data-index="4" clip-path="url(#clipf08e17xy)"><path data-index="4" fill-rule="evenodd" d="M288.28999999999996,17.75L334.57,17.75" style="opacity: 1; stroke: rgb(254, 203, 82); stroke-opacity: 0.8; fill: rgb(0, 0, 0); fill-opacity: 0; stroke-dasharray: 3px, 3px; stroke-width: 2.5px;"/></g><g class="shape-group" data-index="5" clip-path="url(#clipf08e17xy)"><path data-index="5" fill-rule="evenodd" d="M339.71,42.36L386,42.36" style="opacity: 1; stroke: rgb(254, 203, 82); stroke-opacity: 0.8; fill: rgb(0, 0, 0); fill-opacity: 0; stroke-dasharray: 3px, 3px; stroke-width: 2.5px;"/></g><g class="shape-group" data-index="6" clip-path="url(#clipf08e17xy)"><path data-index="6" fill-rule="evenodd" d="M391.14,171.6L437.43,171.6" style="opacity: 1; stroke: rgb(254, 203, 82); stroke-opacity: 0.8; fill: rgb(0, 0, 0); fill-opacity: 0; stroke-dasharray: 3px, 3px; stroke-width: 2.5px;"/></g></g></g><g class="infolayer"><g class="legend" pointer-events="all" transform="translate(447,15)"><rect class="bg" shape-rendering="crispEdges" width="253" height="200" x="0" y="0" style="stroke: rgb(68, 68, 68); stroke-opacity: 1; fill: rgb(255, 255, 255); fill-opacity: 1; stroke-width: 0px;"/><g class="scrollbox" transform="" clip-path="url(#legendf08e17)"><g class="groups"><g class="traces" transform="translate(0,20.8)" style="opacity: 1;"><text class="legendtext" text-anchor="start" x="40" y="8.58" style="font-family: 'Open Sans', verdana, arial, sans-serif; font-size: 22px; fill: rgb(42, 63, 95); fill-opacity: 1; white-space: pre;">Attention</text><g class="layers" style="opacity: 1;"><g class="legendfill"/><g class="legendlines"/><g class="legendsymbols"><g class="legendpoints"><path class="legendundefined" d="M6,6H-6V-6H6Z" transform="translate(20,0)" style="stroke-width: 0.5px; fill: rgb(99, 110, 250); fill-opacity: 0.8; stroke: rgb(255, 255, 255); stroke-opacity: 1;"/></g></g></g><rect class="legendtoggle" x="0" y="-15.8" width="247.28125" height="31.6" style="fill: rgb(0, 0, 0); fill-opacity: 0;"/></g><g class="traces" transform="translate(0,52.400000000000006)" style="opacity: 1;"><text class="legendtext" text-anchor="start" x="40" y="8.58" style="font-family: 'Open Sans', verdana, arial, sans-serif; font-size: 22px; fill: rgb(42, 63, 95); fill-opacity: 1; white-space: pre;">Decision tree</text><g class="layers" style="opacity: 1;"><g class="legendfill"/><g class="legendlines"/><g class="legendsymbols"><g class="legendpoints"><path class="legendundefined" d="M6,6H-6V-6H6Z" transform="translate(20,0)" style="stroke-width: 0.5px; fill: rgb(239, 85, 59); fill-opacity: 0.8; stroke: rgb(255, 255, 255); stroke-opacity: 1;"/></g></g></g><rect class="legendtoggle" x="0" y="-15.8" width="247.28125" height="31.6" style="fill: rgb(0, 0, 0); fill-opacity: 0;"/></g><g class="traces" transform="translate(0,84)" style="opacity: 1;"><text class="legendtext" text-anchor="start" x="40" y="8.58" style="font-family: 'Open Sans', verdana, arial, sans-serif; font-size: 22px; fill: rgb(42, 63, 95); fill-opacity: 1; white-space: pre;">F test</text><g class="layers" style="opacity: 1;"><g class="legendfill"/><g class="legendlines"/><g class="legendsymbols"><g class="legendpoints"><path class="legendundefined" d="M6,6H-6V-6H6Z" transform="translate(20,0)" style="stroke-width: 0.5px; fill: rgb(0, 204, 150); fill-opacity: 0.8; stroke: rgb(255, 255, 255); stroke-opacity: 1;"/></g></g></g><rect class="legendtoggle" x="0" y="-15.8" width="247.28125" height="31.6" style="fill: rgb(0, 0, 0); fill-opacity: 0;"/></g><g class="traces" transform="translate(0,115.60000000000001)" style="opacity: 1;"><text class="legendtext" text-anchor="start" x="40" y="8.58" style="font-family: 'Open Sans', verdana, arial, sans-serif; font-size: 22px; fill: rgb(42, 63, 95); fill-opacity: 1; white-space: pre;">Linear model</text><g class="layers" style="opacity: 1;"><g class="legendfill"/><g class="legendlines"/><g class="legendsymbols"><g class="legendpoints"><path class="legendundefined" d="M6,6H-6V-6H6Z" transform="translate(20,0)" style="stroke-width: 0.5px; fill: rgb(171, 99, 250); fill-opacity: 0.8; stroke: rgb(255, 255, 255); stroke-opacity: 1;"/></g></g></g><rect class="legendtoggle" x="0" y="-15.8" width="247.28125" height="31.6" style="fill: rgb(0, 0, 0); fill-opacity: 0;"/></g><g class="traces" transform="translate(0,147.20000000000002)" style="opacity: 1;"><text class="legendtext" text-anchor="start" x="40" y="8.58" style="font-family: 'Open Sans', verdana, arial, sans-serif; font-size: 22px; fill: rgb(42, 63, 95); fill-opacity: 1; white-space: pre;">Random</text><g class="layers" style="opacity: 1;"><g class="legendfill"/><g class="legendlines"/><g class="legendsymbols"><g class="legendpoints"><path class="legendundefined" d="M6,6H-6V-6H6Z" transform="translate(20,0)" style="stroke-width: 0.5px; fill: rgb(255, 161, 90); fill-opacity: 0.8; stroke: rgb(255, 255, 255); stroke-opacity: 1;"/></g></g></g><rect class="legendtoggle" x="0" y="-15.8" width="247.28125" height="31.6" style="fill: rgb(0, 0, 0); fill-opacity: 0;"/></g><g class="traces" transform="translate(0,178.8)" style="opacity: 1;"><text class="legendtext" text-anchor="start" x="40" y="8.58" style="font-family: 'Open Sans', verdana, arial, sans-serif; font-size: 22px; fill: rgb(42, 63, 95); fill-opacity: 1; white-space: pre;">No feature selection</text><g class="layers" style="opacity: 1;"><g class="legendfill"/><g class="legendlines"><path class="js-line" d="M5,0h30" style="fill: none; stroke: rgb(254, 203, 82); stroke-opacity: 0.8; stroke-dasharray: 3px, 3px; stroke-width: 2.5px;"/></g><g class="legendsymbols"><g class="legendpoints"/></g></g><rect class="legendtoggle" x="0" y="-15.8" width="247.28125" height="31.6" style="fill: rgb(0, 0, 0); fill-opacity: 0;"/></g></g></g><rect class="scrollbar" rx="20" ry="3" width="0" height="0" x="0" y="0" style="fill: rgb(128, 139, 164); fill-opacity: 1;"/></g><g class="g-gtitle"/><g class="g-xtitle"/><g class="g-ytitle" transform="translate(12.7158203125,0)"><text class="ytitle" transform="rotate(-90,15.284374999999997,200.5)" x="15.284374999999997" y="200.5" text-anchor="middle" style="font-family: 'Open Sans', verdana, arial, sans-serif; font-size: 26px; fill: rgb(42, 63, 95); opacity: 1; font-weight: normal; white-space: pre;">Balanced accuracy</text></g></g></svg>