<svg class="main-svg" xmlns="http://www.w3.org/2000/svg" xmlns:xlink="http://www.w3.org/1999/xlink" width="1750" height="1250" style="" viewBox="0 0 700 500"><rect x="0" y="0" width="700" height="500" style="fill: rgb(255, 255, 255); fill-opacity: 1;"/><defs id="defs-d8d636"><g class="clips"><clipPath id="clipd8d636xyplot" class="plotclip"><rect width="360" height="386"/></clipPath><clipPath class="axesclip" id="clipd8d636x"><rect x="80" y="0" width="360" height="500"/></clipPath><clipPath class="axesclip" id="clipd8d636y"><rect x="0" y="0" width="700" height="386"/></clipPath><clipPath class="axesclip" id="clipd8d636xy"><rect x="80" y="0" width="360" height="386"/></clipPath></g><g class="gradients"/><g class="patterns"/></defs><g class="bglayer"/><g class="layer-below"><g class="imagelayer"/><g class="shapelayer"/></g><g class="cartesianlayer"><g class="subplot xy"><g class="layer-subplot"><g class="shapelayer"/><g class="imagelayer"/></g><g class="minor-gridlayer"><g class="x"/><g class="y"/></g><g class="gridlayer"><g class="x"/><g class="y"><path class="ygrid crisp" transform="translate(0,318.61)" d="M80,0h360" style="stroke: rgb(235, 240, 248); stroke-opacity: 1; stroke-width: 1px;"/><path class="ygrid crisp" transform="translate(0,251.22)" d="M80,0h360" style="stroke: rgb(235, 240, 248); stroke-opacity: 1; stroke-width: 1px;"/><path class="ygrid crisp" transform="translate(0,183.83)" d="M80,0h360" style="stroke: rgb(235, 240, 248); stroke-opacity: 1; stroke-width: 1px;"/><path class="ygrid crisp" transform="translate(0,116.43)" d="M80,0h360" style="stroke: rgb(235, 240, 248); stroke-opacity: 1; stroke-width: 1px;"/><path class="ygrid crisp" transform="translate(0,49.04)" d="M80,0h360" style="stroke: rgb(235, 240, 248); stroke-opacity: 1; stroke-width: 1px;"/></g></g><g class="zerolinelayer"><path class="yzl zl crisp" transform="translate(0,386)" d="M80,0h360" style="stroke: rgb(235, 240, 248); stroke-opacity: 1; stroke-width: 2px;"/></g><path class="xlines-below"/><path class="ylines-below"/><g class="overlines-below"/><g class="xaxislayer-below"/><g class="yaxislayer-below"/><g class="overaxes-below"/><g class="plot" transform="translate(80,0)" clip-path="url(#clipd8d636xyplot)"><g class="barlayer mlayer"><g class="trace bars" style="opacity: 1;"><g class="points"><g class="point"><path d="M5.14,386V217.52H13.37V386Z" style="vector-effect: none; opacity: 1; stroke-width: 0.5px; fill: rgb(99, 110, 250); fill-opacity: 0.8; stroke: rgb(255, 255, 255); stroke-opacity: 1;"/></g><g class="point"><path d="M56.57,386V71.51H64.8V386Z" style="vector-effect: none; opacity: 1; stroke-width: 0.5px; fill: rgb(99, 110, 250); fill-opacity: 0.8; stroke: rgb(255, 255, 255); stroke-opacity: 1;"/></g><g class="point"><path d="M108,386V174.76H116.23V386Z" style="vector-effect: none; opacity: 1; stroke-width: 0.5px; fill: rgb(99, 110, 250); fill-opacity: 0.8; stroke: rgb(255, 255, 255); stroke-opacity: 1;"/></g><g class="point"><path d="M159.43,386V213.2H167.66V386Z" style="vector-effect: none; opacity: 1; stroke-width: 0.5px; fill: rgb(99, 110, 250); fill-opacity: 0.8; stroke: rgb(255, 255, 255); stroke-opacity: 1;"/></g><g class="point"><path d="M210.86,386V133.57H219.09V386Z" style="vector-effect: none; opacity: 1; stroke-width: 0.5px; fill: rgb(99, 110, 250); fill-opacity: 0.8; stroke: rgb(255, 255, 255); stroke-opacity: 1;"/></g><g class="point"><path d="M262.29,386V75.76H270.51V386Z" style="vector-effect: none; opacity: 1; stroke-width: 0.5px; fill: rgb(99, 110, 250); fill-opacity: 0.8; stroke: rgb(255, 255, 255); stroke-opacity: 1;"/></g><g class="point"><path d="M313.71,386V222.15H321.94V386Z" style="vector-effect: none; opacity: 1; stroke-width: 0.5px; fill: rgb(99, 110, 250); fill-opacity: 0.8; stroke: rgb(255, 255, 255); stroke-opacity: 1;"/></g></g><g class="errorbar" style="opacity: 1;"><path class="yerror" d="M5.26,217.52h8m-4,0V217.52m-4,0h8" style="vector-effect: none; stroke-width: 2px; stroke: rgb(0, 0, 0); stroke-opacity: 0.7;"/></g><g class="errorbar" style="opacity: 1;"><path class="yerror" d="M56.69,24.15h8m-4,0V118.86m-4,0h8" style="vector-effect: none; stroke-width: 2px; stroke: rgb(0, 0, 0); stroke-opacity: 0.7;"/></g><g class="errorbar" style="opacity: 1;"><path class="yerror" d="M108.11,133.43h8m-4,0V216.08m-4,0h8" style="vector-effect: none; stroke-width: 2px; stroke: rgb(0, 0, 0); stroke-opacity: 0.7;"/></g><g class="errorbar" style="opacity: 1;"><path class="yerror" d="M159.54,192.32h8m-4,0V234.08m-4,0h8" style="vector-effect: none; stroke-width: 2px; stroke: rgb(0, 0, 0); stroke-opacity: 0.7;"/></g><g class="errorbar" style="opacity: 1;"><path class="yerror" d="M210.97,123.11h8m-4,0V144.04m-4,0h8" style="vector-effect: none; stroke-width: 2px; stroke: rgb(0, 0, 0); stroke-opacity: 0.7;"/></g><g class="errorbar" style="opacity: 1;"><path class="yerror" d="M262.4,69.18h8m-4,0V82.34m-4,0h8" style="vector-effect: none; stroke-width: 2px; stroke: rgb(0, 0, 0); stroke-opacity: 0.7;"/></g><g class="errorbar" style="opacity: 1;"><path class="yerror" d="M313.83,211.31h8m-4,0V232.99m-4,0h8" style="vector-effect: none; stroke-width: 2px; stroke: rgb(0, 0, 0); stroke-opacity: 0.7;"/></g></g><g class="trace bars" style="opacity: 1;"><g class="points"><g class="point"><path d="M13.37,386V217.52H21.6V386Z" style="vector-effect: none; opacity: 1; stroke-width: 0.5px; fill: rgb(239, 85, 59); fill-opacity: 0.8; stroke: rgb(255, 255, 255); stroke-opacity: 1;"/></g><g class="point"><path d="M64.8,386V75.25H73.03V386Z" style="vector-effect: none; opacity: 1; stroke-width: 0.5px; fill: rgb(239, 85, 59); fill-opacity: 0.8; stroke: rgb(255, 255, 255); stroke-opacity: 1;"/></g><g class="point"><path d="M116.23,386V113.13H124.46V386Z" style="vector-effect: none; opacity: 1; stroke-width: 0.5px; fill: rgb(239, 85, 59); fill-opacity: 0.8; stroke: rgb(255, 255, 255); stroke-opacity: 1;"/></g><g class="point"><path d="M167.66,386V222.49H175.89V386Z" style="vector-effect: none; opacity: 1; stroke-width: 0.5px; fill: rgb(239, 85, 59); fill-opacity: 0.8; stroke: rgb(255, 255, 255); stroke-opacity: 1;"/></g><g class="point"><path d="M219.09,386V132.05H227.31V386Z" style="vector-effect: none; opacity: 1; stroke-width: 0.5px; fill: rgb(239, 85, 59); fill-opacity: 0.8; stroke: rgb(255, 255, 255); stroke-opacity: 1;"/></g><g class="point"><path d="M270.51,386V72.43H278.74V386Z" style="vector-effect: none; opacity: 1; stroke-width: 0.5px; fill: rgb(239, 85, 59); fill-opacity: 0.8; stroke: rgb(255, 255, 255); stroke-opacity: 1;"/></g><g class="point"><path d="M321.94,386V214.81H330.17V386Z" style="vector-effect: none; opacity: 1; stroke-width: 0.5px; fill: rgb(239, 85, 59); fill-opacity: 0.8; stroke: rgb(255, 255, 255); stroke-opacity: 1;"/></g></g><g class="errorbar" style="opacity: 1;"><path class="yerror" d="M13.489999999999998,217.52h8m-4,0V217.52m-4,0h8" style="vector-effect: none; stroke-width: 2px; stroke: rgb(0, 0, 0); stroke-opacity: 0.7;"/></g><g class="errorbar" style="opacity: 1;"><path class="yerror" d="M64.91,19.3h8m-4,0V131.2m-4,0h8" style="vector-effect: none; stroke-width: 2px; stroke: rgb(0, 0, 0); stroke-opacity: 0.7;"/></g><g class="errorbar" style="opacity: 1;"><path class="yerror" d="M116.34,76.47h8m-4,0V149.8m-4,0h8" style="vector-effect: none; stroke-width: 2px; stroke: rgb(0, 0, 0); stroke-opacity: 0.7;"/></g><g class="errorbar" style="opacity: 1;"><path class="yerror" d="M167.77,190.44h8m-4,0V254.54m-4,0h8" style="vector-effect: none; stroke-width: 2px; stroke: rgb(0, 0, 0); stroke-opacity: 0.7;"/></g><g class="errorbar" style="opacity: 1;"><path class="yerror" d="M219.2,104.43h8m-4,0V159.66m-4,0h8" style="vector-effect: none; stroke-width: 2px; stroke: rgb(0, 0, 0); stroke-opacity: 0.7;"/></g><g class="errorbar" style="opacity: 1;"><path class="yerror" d="M270.63,67.49h8m-4,0V77.36m-4,0h8" style="vector-effect: none; stroke-width: 2px; stroke: rgb(0, 0, 0); stroke-opacity: 0.7;"/></g><g class="errorbar" style="opacity: 1;"><path class="yerror" d="M322.06,209.37h8m-4,0V220.25m-4,0h8" style="vector-effect: none; stroke-width: 2px; stroke: rgb(0, 0, 0); stroke-opacity: 0.7;"/></g></g><g class="trace bars" style="opacity: 1;"><g class="points"><g class="point"><path d="M21.6,386V217.52H29.83V386Z" style="vector-effect: none; opacity: 1; stroke-width: 0.5px; fill: rgb(0, 204, 150); fill-opacity: 0.8; stroke: rgb(255, 255, 255); stroke-opacity: 1;"/></g><g class="point"><path d="M73.03,386V75.25H81.26V386Z" style="vector-effect: none; opacity: 1; stroke-width: 0.5px; fill: rgb(0, 204, 150); fill-opacity: 0.8; stroke: rgb(255, 255, 255); stroke-opacity: 1;"/></g><g class="point"><path d="M124.46,386V113.13H132.69V386Z" style="vector-effect: none; opacity: 1; stroke-width: 0.5px; fill: rgb(0, 204, 150); fill-opacity: 0.8; stroke: rgb(255, 255, 255); stroke-opacity: 1;"/></g><g class="point"><path d="M175.89,386V204.35H184.11V386Z" style="vector-effect: none; opacity: 1; stroke-width: 0.5px; fill: rgb(0, 204, 150); fill-opacity: 0.8; stroke: rgb(255, 255, 255); stroke-opacity: 1;"/></g><g class="point"><path d="M227.31,386V101.54H235.54V386Z" style="vector-effect: none; opacity: 1; stroke-width: 0.5px; fill: rgb(0, 204, 150); fill-opacity: 0.8; stroke: rgb(255, 255, 255); stroke-opacity: 1;"/></g><g class="point"><path d="M278.74,386V72.22H286.97V386Z" style="vector-effect: none; opacity: 1; stroke-width: 0.5px; fill: rgb(0, 204, 150); fill-opacity: 0.8; stroke: rgb(255, 255, 255); stroke-opacity: 1;"/></g><g class="point"><path d="M330.17,386V271.58H338.4V386Z" style="vector-effect: none; opacity: 1; stroke-width: 0.5px; fill: rgb(0, 204, 150); fill-opacity: 0.8; stroke: rgb(255, 255, 255); stroke-opacity: 1;"/></g></g><g class="errorbar" style="opacity: 1;"><path class="yerror" d="M21.71,217.52h8m-4,0V217.52m-4,0h8" style="vector-effect: none; stroke-width: 2px; stroke: rgb(0, 0, 0); stroke-opacity: 0.7;"/></g><g class="errorbar" style="opacity: 1;"><path class="yerror" d="M73.14,19.3h8m-4,0V131.2m-4,0h8" style="vector-effect: none; stroke-width: 2px; stroke: rgb(0, 0, 0); stroke-opacity: 0.7;"/></g><g class="errorbar" style="opacity: 1;"><path class="yerror" d="M124.57,76.47h8m-4,0V149.8m-4,0h8" style="vector-effect: none; stroke-width: 2px; stroke: rgb(0, 0, 0); stroke-opacity: 0.7;"/></g><g class="errorbar" style="opacity: 1;"><path class="yerror" d="M176,166.97h8m-4,0V241.72m-4,0h8" style="vector-effect: none; stroke-width: 2px; stroke: rgb(0, 0, 0); stroke-opacity: 0.7;"/></g><g class="errorbar" style="opacity: 1;"><path class="yerror" d="M227.43,85.75h8m-4,0V117.33m-4,0h8" style="vector-effect: none; stroke-width: 2px; stroke: rgb(0, 0, 0); stroke-opacity: 0.7;"/></g><g class="errorbar" style="opacity: 1;"><path class="yerror" d="M278.86,67.32h8m-4,0V77.12m-4,0h8" style="vector-effect: none; stroke-width: 2px; stroke: rgb(0, 0, 0); stroke-opacity: 0.7;"/></g><g class="errorbar" style="opacity: 1;"><path class="yerror" d="M330.29,266.96h8m-4,0V276.2m-4,0h8" style="vector-effect: none; stroke-width: 2px; stroke: rgb(0, 0, 0); stroke-opacity: 0.7;"/></g></g><g class="trace bars" style="opacity: 1;"><g class="points"><g class="point"><path d="M29.83,386V217.52H38.06V386Z" style="vector-effect: none; opacity: 1; stroke-width: 0.5px; fill: rgb(171, 99, 250); fill-opacity: 0.8; stroke: rgb(255, 255, 255); stroke-opacity: 1;"/></g><g class="point"><path d="M81.26,386V71.51H89.49V386Z" style="vector-effect: none; opacity: 1; stroke-width: 0.5px; fill: rgb(171, 99, 250); fill-opacity: 0.8; stroke: rgb(255, 255, 255); stroke-opacity: 1;"/></g><g class="point"><path d="M132.69,386V113.13H140.91V386Z" style="vector-effect: none; opacity: 1; stroke-width: 0.5px; fill: rgb(171, 99, 250); fill-opacity: 0.8; stroke: rgb(255, 255, 255); stroke-opacity: 1;"/></g><g class="point"><path d="M184.11,386V236.42H192.34V386Z" style="vector-effect: none; opacity: 1; stroke-width: 0.5px; fill: rgb(171, 99, 250); fill-opacity: 0.8; stroke: rgb(255, 255, 255); stroke-opacity: 1;"/></g><g class="point"><path d="M235.54,386V133.34H243.77V386Z" style="vector-effect: none; opacity: 1; stroke-width: 0.5px; fill: rgb(171, 99, 250); fill-opacity: 0.8; stroke: rgb(255, 255, 255); stroke-opacity: 1;"/></g><g class="point"><path d="M286.97,386V76.27H295.2V386Z" style="vector-effect: none; opacity: 1; stroke-width: 0.5px; fill: rgb(171, 99, 250); fill-opacity: 0.8; stroke: rgb(255, 255, 255); stroke-opacity: 1;"/></g><g class="point"><path d="M338.4,386V244.54H346.63V386Z" style="vector-effect: none; opacity: 1; stroke-width: 0.5px; fill: rgb(171, 99, 250); fill-opacity: 0.8; stroke: rgb(255, 255, 255); stroke-opacity: 1;"/></g></g><g class="errorbar" style="opacity: 1;"><path class="yerror" d="M29.939999999999998,217.52h8m-4,0V217.52m-4,0h8" style="vector-effect: none; stroke-width: 2px; stroke: rgb(0, 0, 0); stroke-opacity: 0.7;"/></g><g class="errorbar" style="opacity: 1;"><path class="yerror" d="M81.37,24.15h8m-4,0V118.86m-4,0h8" style="vector-effect: none; stroke-width: 2px; stroke: rgb(0, 0, 0); stroke-opacity: 0.7;"/></g><g class="errorbar" style="opacity: 1;"><path class="yerror" d="M132.8,76.47h8m-4,0V149.8m-4,0h8" style="vector-effect: none; stroke-width: 2px; stroke: rgb(0, 0, 0); stroke-opacity: 0.7;"/></g><g class="errorbar" style="opacity: 1;"><path class="yerror" d="M184.23,217.9h8m-4,0V254.94m-4,0h8" style="vector-effect: none; stroke-width: 2px; stroke: rgb(0, 0, 0); stroke-opacity: 0.7;"/></g><g class="errorbar" style="opacity: 1;"><path class="yerror" d="M235.66,120.07h8m-4,0V146.61m-4,0h8" style="vector-effect: none; stroke-width: 2px; stroke: rgb(0, 0, 0); stroke-opacity: 0.7;"/></g><g class="errorbar" style="opacity: 1;"><path class="yerror" d="M287.09,70.74h8m-4,0V81.81m-4,0h8" style="vector-effect: none; stroke-width: 2px; stroke: rgb(0, 0, 0); stroke-opacity: 0.7;"/></g><g class="errorbar" style="opacity: 1;"><path class="yerror" d="M338.51,236.1h8m-4,0V252.97m-4,0h8" style="vector-effect: none; stroke-width: 2px; stroke: rgb(0, 0, 0); stroke-opacity: 0.7;"/></g></g><g class="trace bars" style="opacity: 1;"><g class="points"><g class="point"><path d="M38.06,386V216.94H46.29V386Z" style="vector-effect: none; opacity: 1; stroke-width: 0.5px; fill: rgb(255, 161, 90); fill-opacity: 0.8; stroke: rgb(255, 255, 255); stroke-opacity: 1;"/></g><g class="point"><path d="M89.49,386V155.55H97.71V386Z" style="vector-effect: none; opacity: 1; stroke-width: 0.5px; fill: rgb(255, 161, 90); fill-opacity: 0.8; stroke: rgb(255, 255, 255); stroke-opacity: 1;"/></g><g class="point"><path d="M140.91,386V194.52H149.14V386Z" style="vector-effect: none; opacity: 1; stroke-width: 0.5px; fill: rgb(255, 161, 90); fill-opacity: 0.8; stroke: rgb(255, 255, 255); stroke-opacity: 1;"/></g><g class="point"><path d="M192.34,386V217.15H200.57V386Z" style="vector-effect: none; opacity: 1; stroke-width: 0.5px; fill: rgb(255, 161, 90); fill-opacity: 0.8; stroke: rgb(255, 255, 255); stroke-opacity: 1;"/></g><g class="point"><path d="M243.77,386V198.34H252V386Z" style="vector-effect: none; opacity: 1; stroke-width: 0.5px; fill: rgb(255, 161, 90); fill-opacity: 0.8; stroke: rgb(255, 255, 255); stroke-opacity: 1;"/></g><g class="point"><path d="M295.2,386V188.64H303.43V386Z" style="vector-effect: none; opacity: 1; stroke-width: 0.5px; fill: rgb(255, 161, 90); fill-opacity: 0.8; stroke: rgb(255, 255, 255); stroke-opacity: 1;"/></g><g class="point"><path d="M346.63,386V257.98H354.86V386Z" style="vector-effect: none; opacity: 1; stroke-width: 0.5px; fill: rgb(255, 161, 90); fill-opacity: 0.8; stroke: rgb(255, 255, 255); stroke-opacity: 1;"/></g></g><g class="errorbar" style="opacity: 1;"><path class="yerror" d="M38.17,216.36h8m-4,0V217.52m-4,0h8" style="vector-effect: none; stroke-width: 2px; stroke: rgb(0, 0, 0); stroke-opacity: 0.7;"/></g><g class="errorbar" style="opacity: 1;"><path class="yerror" d="M89.6,130.19h8m-4,0V180.9m-4,0h8" style="vector-effect: none; stroke-width: 2px; stroke: rgb(0, 0, 0); stroke-opacity: 0.7;"/></g><g class="errorbar" style="opacity: 1;"><path class="yerror" d="M141.03,179.64h8m-4,0V209.4m-4,0h8" style="vector-effect: none; stroke-width: 2px; stroke: rgb(0, 0, 0); stroke-opacity: 0.7;"/></g><g class="errorbar" style="opacity: 1;"><path class="yerror" d="M192.46,211.68h8m-4,0V222.63m-4,0h8" style="vector-effect: none; stroke-width: 2px; stroke: rgb(0, 0, 0); stroke-opacity: 0.7;"/></g><g class="errorbar" style="opacity: 1;"><path class="yerror" d="M243.89,190.17h8m-4,0V206.52m-4,0h8" style="vector-effect: none; stroke-width: 2px; stroke: rgb(0, 0, 0); stroke-opacity: 0.7;"/></g><g class="errorbar" style="opacity: 1;"><path class="yerror" d="M295.31,175.85h8m-4,0V201.43m-4,0h8" style="vector-effect: none; stroke-width: 2px; stroke: rgb(0, 0, 0); stroke-opacity: 0.7;"/></g><g class="errorbar" style="opacity: 1;"><path class="yerror" d="M346.74,253.29h8m-4,0V262.67m-4,0h8" style="vector-effect: none; stroke-width: 2px; stroke: rgb(0, 0, 0); stroke-opacity: 0.7;"/></g></g></g></g><g class="overplot"/><path class="xlines-above crisp" d="M0,0" style="fill: none;"/><path class="ylines-above crisp" d="M0,0" style="fill: none;"/><g class="overlines-above"/><g class="xaxislayer-above"><g class="xtick"><text text-anchor="start" x="0" y="409" transform="translate(105.71000000000001,0) rotate(90,0,398)" style="font-family: 'Open Sans', verdana, arial, sans-serif; font-size: 22px; fill: rgb(42, 63, 95); fill-opacity: 1; white-space: pre; opacity: 1;">adult</text></g><g class="xtick"><text text-anchor="start" x="0" y="409" transform="translate(157.14,0) rotate(90,0,398)" style="font-family: 'Open Sans', verdana, arial, sans-serif; font-size: 22px; fill: rgb(42, 63, 95); fill-opacity: 1; white-space: pre; opacity: 1;">anneal</text></g><g class="xtick"><text text-anchor="start" x="0" y="409" transform="translate(208.57,0) rotate(90,0,398)" style="font-family: 'Open Sans', verdana, arial, sans-serif; font-size: 22px; fill: rgb(42, 63, 95); fill-opacity: 1; white-space: pre; opacity: 1;">australian</text></g><g class="xtick"><text text-anchor="start" x="0" y="409" transform="translate(260,0) rotate(90,0,398)" style="font-family: 'Open Sans', verdana, arial, sans-serif; font-size: 22px; fill: rgb(42, 63, 95); fill-opacity: 1; white-space: pre; opacity: 1;">jasmine</text></g><g class="xtick"><text text-anchor="start" x="0" y="409" transform="translate(311.43,0) rotate(90,0,398)" style="font-family: 'Open Sans', verdana, arial, sans-serif; font-size: 22px; fill: rgb(42, 63, 95); fill-opacity: 1; white-space: pre; opacity: 1;">kr-vs-kp</text></g><g class="xtick"><text text-anchor="start" x="0" y="409" transform="translate(362.86,0) rotate(90,0,398)" style="font-family: 'Open Sans', verdana, arial, sans-serif; font-size: 22px; fill: rgb(42, 63, 95); fill-opacity: 1; white-space: pre; opacity: 1;">sylvine</text></g><g class="xtick"><text text-anchor="start" x="0" y="409" transform="translate(414.29,0) rotate(90,0,398)" style="font-family: 'Open Sans', verdana, arial, sans-serif; font-size: 22px; fill: rgb(42, 63, 95); fill-opacity: 1; white-space: pre; opacity: 1;">volkert</text></g></g><g class="yaxislayer-above"><g class="ytick"><text text-anchor="end" x="79" y="7.699999999999999" transform="translate(0,386)" style="font-family: 'Open Sans', verdana, arial, sans-serif; font-size: 22px; fill: rgb(42, 63, 95); fill-opacity: 1; white-space: pre; opacity: 1;">0</text></g><g class="ytick"><text text-anchor="end" x="79" y="7.699999999999999" style="font-family: 'Open Sans', verdana, arial, sans-serif; font-size: 22px; fill: rgb(42, 63, 95); fill-opacity: 1; white-space: pre; opacity: 1;" transform="translate(0,318.61)">0.2</text></g><g class="ytick"><text text-anchor="end" x="79" y="7.699999999999999" style="font-family: 'Open Sans', verdana, arial, sans-serif; font-size: 22px; fill: rgb(42, 63, 95); fill-opacity: 1; white-space: pre; opacity: 1;" transform="translate(0,251.22)">0.4</text></g><g class="ytick"><text text-anchor="end" x="79" y="7.699999999999999" style="font-family: 'Open Sans', verdana, arial, sans-serif; font-size: 22px; fill: rgb(42, 63, 95); fill-opacity: 1; white-space: pre; opacity: 1;" transform="translate(0,183.83)">0.6</text></g><g class="ytick"><text text-anchor="end" x="79" y="7.699999999999999" style="font-family: 'Open Sans', verdana, arial, sans-serif; font-size: 22px; fill: rgb(42, 63, 95); fill-opacity: 1; white-space: pre; opacity: 1;" transform="translate(0,116.43)">0.8</text></g><g class="ytick"><text text-anchor="end" x="79" y="7.699999999999999" style="font-family: 'Open Sans', verdana, arial, sans-serif; font-size: 22px; fill: rgb(42, 63, 95); fill-opacity: 1; white-space: pre; opacity: 1;" transform="translate(0,49.04)">1</text></g></g><g class="overaxes-above"/></g></g><g class="polarlayer"/><g class="smithlayer"/><g class="ternarylayer"/><g class="geolayer"/><g class="funnelarealayer"/><g class="pielayer"/><g class="iciclelayer"/><g class="treemaplayer"/><g class="sunburstlayer"/><g class="glimages"/><defs id="topdefs-d8d636"><g class="clips"/><clipPath id="legendd8d636"><rect width="253" height="200" x="0" y="0"/></clipPath></defs><g class="layer-above"><g class="imagelayer"/><g class="shapelayer"><g class="shape-group" data-index="0" clip-path="url(#clipd8d636xy)"><path data-index="0" fill-rule="evenodd" d="M82.57,162.94L128.86,162.94" style="opacity: 1; stroke: rgb(254, 203, 82); stroke-opacity: 0.8; fill: rgb(0, 0, 0); fill-opacity: 0; stroke-dasharray: 3px, 3px; stroke-width: 2.5px;"/></g><g class="shape-group" data-index="1" clip-path="url(#clipd8d636xy)"><path data-index="1" fill-rule="evenodd" d="M134,71.51L180.29000000000002,71.51" style="opacity: 1; stroke: rgb(254, 203, 82); stroke-opacity: 0.8; fill: rgb(0, 0, 0); fill-opacity: 0; stroke-dasharray: 3px, 3px; stroke-width: 2.5px;"/></g><g class="shape-group" data-index="2" clip-path="url(#clipd8d636xy)"><path data-index="2" fill-rule="evenodd" d="M185.43,134.63L231.71,134.63" style="opacity: 1; stroke: rgb(254, 203, 82); stroke-opacity: 0.8; fill: rgb(0, 0, 0); fill-opacity: 0; stroke-dasharray: 3px, 3px; stroke-width: 2.5px;"/></g><g class="shape-group" data-index="3" clip-path="url(#clipd8d636xy)"><path data-index="3" fill-rule="evenodd" d="M236.86,222.6L283.14,222.6" style="opacity: 1; stroke: rgb(254, 203, 82); stroke-opacity: 0.8; fill: rgb(0, 0, 0); fill-opacity: 0; stroke-dasharray: 3px, 3px; stroke-width: 2.5px;"/></g><g class="shape-group" data-index="4" clip-path="url(#clipd8d636xy)"><path data-index="4" fill-rule="evenodd" d="M288.28999999999996,55.95L334.57,55.95" style="opacity: 1; stroke: rgb(254, 203, 82); stroke-opacity: 0.8; fill: rgb(0, 0, 0); fill-opacity: 0; stroke-dasharray: 3px, 3px; stroke-width: 2.5px;"/></g><g class="shape-group" data-index="5" clip-path="url(#clipd8d636xy)"><path data-index="5" fill-rule="evenodd" d="M339.71,73.02L386,73.02" style="opacity: 1; stroke: rgb(254, 203, 82); stroke-opacity: 0.8; fill: rgb(0, 0, 0); fill-opacity: 0; stroke-dasharray: 3px, 3px; stroke-width: 2.5px;"/></g><g class="shape-group" data-index="6" clip-path="url(#clipd8d636xy)"><path data-index="6" fill-rule="evenodd" d="M391.14,198.49L437.43,198.49" style="opacity: 1; stroke: rgb(254, 203, 82); stroke-opacity: 0.8; fill: rgb(0, 0, 0); fill-opacity: 0; stroke-dasharray: 3px, 3px; stroke-width: 2.5px;"/></g></g></g><g class="infolayer"><g class="legend" pointer-events="all" transform="translate(447,0)"><rect class="bg" shape-rendering="crispEdges" width="253" height="200" x="0" y="0" style="stroke: rgb(68, 68, 68); stroke-opacity: 1; fill: rgb(255, 255, 255); fill-opacity: 1; stroke-width: 0px;"/><g class="scrollbox" transform="" clip-path="url(#legendd8d636)"><g class="groups"><g class="traces" transform="translate(0,20.8)" style="opacity: 1;"><text class="legendtext" text-anchor="start" x="40" y="8.58" style="font-family: 'Open Sans', verdana, arial, sans-serif; font-size: 22px; fill: rgb(42, 63, 95); fill-opacity: 1; white-space: pre;">Attention</text><g class="layers" style="opacity: 1;"><g class="legendfill"/><g class="legendlines"/><g class="legendsymbols"><g class="legendpoints"><path class="legendundefined" d="M6,6H-6V-6H6Z" transform="translate(20,0)" style="stroke-width: 0.5px; fill: rgb(99, 110, 250); fill-opacity: 0.8; stroke: rgb(255, 255, 255); stroke-opacity: 1;"/></g></g></g><rect class="legendtoggle" x="0" y="-15.8" width="247.28125" height="31.6" style="fill: rgb(0, 0, 0); fill-opacity: 0;"/></g><g class="traces" transform="translate(0,52.400000000000006)" style="opacity: 1;"><text class="legendtext" text-anchor="start" x="40" y="8.58" style="font-family: 'Open Sans', verdana, arial, sans-serif; font-size: 22px; fill: rgb(42, 63, 95); fill-opacity: 1; white-space: pre;">Decision tree</text><g class="layers" style="opacity: 1;"><g class="legendfill"/><g class="legendlines"/><g class="legendsymbols"><g class="legendpoints"><path class="legendundefined" d="M6,6H-6V-6H6Z" transform="translate(20,0)" style="stroke-width: 0.5px; fill: rgb(239, 85, 59); fill-opacity: 0.8; stroke: rgb(255, 255, 255); stroke-opacity: 1;"/></g></g></g><rect class="legendtoggle" x="0" y="-15.8" width="247.28125" height="31.6" style="fill: rgb(0, 0, 0); fill-opacity: 0;"/></g><g class="traces" transform="translate(0,84)" style="opacity: 1;"><text class="legendtext" text-anchor="start" x="40" y="8.58" style="font-family: 'Open Sans', verdana, arial, sans-serif; font-size: 22px; fill: rgb(42, 63, 95); fill-opacity: 1; white-space: pre;">F test</text><g class="layers" style="opacity: 1;"><g class="legendfill"/><g class="legendlines"/><g class="legendsymbols"><g class="legendpoints"><path class="legendundefined" d="M6,6H-6V-6H6Z" transform="translate(20,0)" style="stroke-width: 0.5px; fill: rgb(0, 204, 150); fill-opacity: 0.8; stroke: rgb(255, 255, 255); stroke-opacity: 1;"/></g></g></g><rect class="legendtoggle" x="0" y="-15.8" width="247.28125" height="31.6" style="fill: rgb(0, 0, 0); fill-opacity: 0;"/></g><g class="traces" transform="translate(0,115.60000000000001)" style="opacity: 1;"><text class="legendtext" text-anchor="start" x="40" y="8.58" style="font-family: 'Open Sans', verdana, arial, sans-serif; font-size: 22px; fill: rgb(42, 63, 95); fill-opacity: 1; white-space: pre;">Linear model</text><g class="layers" style="opacity: 1;"><g class="legendfill"/><g class="legendlines"/><g class="legendsymbols"><g class="legendpoints"><path class="legendundefined" d="M6,6H-6V-6H6Z" transform="translate(20,0)" style="stroke-width: 0.5px; fill: rgb(171, 99, 250); fill-opacity: 0.8; stroke: rgb(255, 255, 255); stroke-opacity: 1;"/></g></g></g><rect class="legendtoggle" x="0" y="-15.8" width="247.28125" height="31.6" style="fill: rgb(0, 0, 0); fill-opacity: 0;"/></g><g class="traces" transform="translate(0,147.20000000000002)" style="opacity: 1;"><text class="legendtext" text-anchor="start" x="40" y="8.58" style="font-family: 'Open Sans', verdana, arial, sans-serif; font-size: 22px; fill: rgb(42, 63, 95); fill-opacity: 1; white-space: pre;">Random</text><g class="layers" style="opacity: 1;"><g class="legendfill"/><g class="legendlines"/><g class="legendsymbols"><g class="legendpoints"><path class="legendundefined" d="M6,6H-6V-6H6Z" transform="translate(20,0)" style="stroke-width: 0.5px; fill: rgb(255, 161, 90); fill-opacity: 0.8; stroke: rgb(255, 255, 255); stroke-opacity: 1;"/></g></g></g><rect class="legendtoggle" x="0" y="-15.8" width="247.28125" height="31.6" style="fill: rgb(0, 0, 0); fill-opacity: 0;"/></g><g class="traces" transform="translate(0,178.8)" style="opacity: 1;"><text class="legendtext" text-anchor="start" x="40" y="8.58" style="font-family: 'Open Sans', verdana, arial, sans-serif; font-size: 22px; fill: rgb(42, 63, 95); fill-opacity: 1; white-space: pre;">No feature selection</text><g class="layers" style="opacity: 1;"><g class="legendfill"/><g class="legendlines"><path class="js-line" d="M5,0h30" style="fill: none; stroke: rgb(254, 203, 82); stroke-opacity: 0.8; stroke-dasharray: 3px, 3px; stroke-width: 2.5px;"/></g><g class="legendsymbols"><g class="legendpoints"/></g></g><rect class="legendtoggle" x="0" y="-15.8" width="247.28125" height="31.6" style="fill: rgb(0, 0, 0); fill-opacity: 0;"/></g></g></g><rect class="scrollbar" rx="20" ry="3" width="0" height="0" x="0" y="0" style="fill: rgb(128, 139, 164); fill-opacity: 1;"/></g><g class="g-gtitle"/><g class="g-xtitle"/><g class="g-ytitle" transform="translate(12.7158203125,0)"><text class="ytitle" transform="rotate(-90,15.284374999999997,193)" x="15.284374999999997" y="193" text-anchor="middle" style="font-family: 'Open Sans', verdana, arial, sans-serif; font-size: 26px; fill: rgb(42, 63, 95); opacity: 1; font-weight: normal; white-space: pre;">Balanced accuracy</text></g></g></svg>